<svg width="72" height="72" viewBox="0 0 72 72" fill="none" xmlns="http://www.w3.org/2000/svg">
<rect width="72" height="72" rx="36" fill="#F0792D"/>
<path d="M60 34.6278C60 34.6537 59.9739 34.6537 59.9739 34.6796C59.9218 34.9903 59.7394 35.2233 59.5049 35.4045C59.2964 35.5858 59.0358 35.6893 58.7492 35.767C58.3583 35.8706 57.9414 35.8706 57.5505 35.7411C56.9772 35.5599 56.6124 35.1974 56.4821 34.6278C56.3257 33.877 56.6384 33.2039 57.316 32.8932C57.8632 32.6343 58.4365 32.5825 59.0098 32.7896C59.4006 32.9191 59.6873 33.1521 59.8697 33.5146C59.9218 33.5922 59.9479 33.6958 59.9739 33.7735C59.9739 33.7994 60 33.8252 60 33.8511C60 34.11 60 34.3689 60 34.6278ZM58.1238 35.301C58.4625 35.301 58.8274 35.2492 59.1401 35.0939C59.3225 35.0162 59.4788 34.9126 59.6091 34.7832C59.9479 34.4207 59.9218 33.8511 59.5049 33.5405C59.3485 33.4369 59.1922 33.3592 59.0358 33.2816C58.7231 33.178 58.3844 33.178 58.0717 33.2039C57.8111 33.2298 57.5505 33.3074 57.316 33.411C57.1596 33.4887 57.0033 33.5922 56.899 33.7217C56.5603 34.11 56.6124 34.6278 56.9772 34.9385C57.0814 35.0421 57.2117 35.0939 57.3681 35.1715C57.6026 35.2751 57.8632 35.301 58.1238 35.301Z" fill="white"/>
<path d="M36.1042 60C36.0261 59.9741 35.9218 59.9482 35.8436 59.9223C35.7134 59.8706 35.557 59.8447 35.4528 59.767C35.4267 59.5081 35.4267 59.0939 35.4528 58.9644C35.4788 58.9644 35.5309 58.9644 35.5831 58.9644C35.6091 59.0162 35.6091 59.068 35.6352 59.0939C35.7915 59.4822 36.2085 59.7411 36.6775 59.7152C37.0163 59.6893 37.2769 59.5081 37.4593 59.2233C37.5896 59.0162 37.6417 58.7832 37.6677 58.5502C37.6938 58.1877 37.6417 57.8511 37.5114 57.5146C37.4593 57.3592 37.3811 57.2298 37.2769 57.1262C37.0423 56.8673 36.7557 56.712 36.4169 56.712C36.2085 56.712 36.0261 56.712 35.8176 56.7896C35.7915 56.7896 35.7655 56.8155 35.7394 56.8155C35.7394 56.8673 35.7394 56.8932 35.7394 56.945C35.7394 57.1262 35.7655 57.3333 35.7655 57.5146C35.7655 57.6958 35.8176 57.8511 35.9479 57.9547C36 57.9806 36.0261 58.0324 36 58.0841C35.8436 58.11 35.3485 58.1359 35.2182 58.11C35.1922 58.0583 35.2182 58.0324 35.2182 57.9806C35.2964 57.8252 35.3225 57.6699 35.3225 57.5146C35.3225 57.3074 35.3225 57.1262 35.2964 56.9191C35.2964 56.8414 35.3225 56.7896 35.3746 56.7379C35.4788 56.6861 35.557 56.6084 35.6612 56.5566C36.0782 56.3495 36.4951 56.3236 36.9381 56.4013C37.355 56.479 37.6677 56.712 37.8762 57.0744C38.0065 57.3074 38.1107 57.5405 38.1368 57.7994C38.1889 58.1877 38.1629 58.5761 38.0065 58.9644C37.798 59.4563 37.4332 59.767 36.912 59.8964C36.8339 59.9223 36.7557 59.9482 36.6775 59.9741C36.4691 60 36.2866 60 36.1042 60Z" fill="white"/>
<path d="M36.8599 12C36.9381 12.3883 36.9642 12.699 36.9642 12.8544L36.9381 12.8803C36.912 12.8803 36.886 12.8803 36.8599 12.8803C36.8339 12.8544 36.8078 12.8026 36.8078 12.7767C36.7818 12.7249 36.7557 12.6731 36.7036 12.5955C36.5733 12.3883 36.3909 12.233 36.1303 12.233C35.8697 12.233 35.5831 12.233 35.3225 12.2589C35.3225 12.2589 35.3225 12.2589 35.2964 12.2848C35.2964 12.3107 35.2704 12.3107 35.2704 12.3366C35.2704 12.7508 35.2704 13.165 35.2964 13.6052C35.2964 13.6311 35.2964 13.6311 35.3225 13.6828C35.5049 13.7087 35.6873 13.6828 35.8697 13.6828C35.9479 13.6828 36.0261 13.6828 36.1042 13.657C36.2085 13.6311 36.2866 13.5534 36.3388 13.4757C36.3648 13.4239 36.3909 13.3722 36.4169 13.2945C36.4691 13.2945 36.4951 13.2945 36.5472 13.2945C36.5733 13.4757 36.5993 14.1489 36.5733 14.2783C36.5472 14.2783 36.4951 14.2783 36.4691 14.2783C36.443 14.2265 36.4169 14.1748 36.4169 14.123C36.3648 13.9935 36.2606 13.89 36.1042 13.89C35.8697 13.89 35.6352 13.89 35.3746 13.9159C35.3746 13.9159 35.3746 13.9159 35.3485 13.9417C35.3485 13.9676 35.3485 13.9935 35.3485 14.0194C35.3485 14.4595 35.3746 14.8997 35.3746 15.3398C35.4267 15.3398 35.4528 15.3657 35.5049 15.3657C35.7655 15.3657 36 15.3398 36.2606 15.3398C36.5733 15.3398 36.7818 15.1845 36.9381 14.9256C36.9642 14.8479 37.0163 14.7702 37.0423 14.6926C37.0684 14.6926 37.1205 14.6926 37.1466 14.6926C37.1466 14.7184 37.1726 14.7443 37.1726 14.7443C37.1466 14.9256 37.1466 15.1068 37.1205 15.3139C37.1205 15.3916 37.0945 15.4693 37.0945 15.5469C37.0423 15.5987 36.9902 15.5728 36.912 15.5728C36.4951 15.5728 36.0521 15.5728 35.6352 15.5987C35.4267 15.5987 35.1922 15.5987 34.9837 15.6246C34.9316 15.6246 34.8534 15.6246 34.8013 15.6246C34.7492 15.5728 34.7752 15.521 34.7752 15.4951C34.8795 15.3398 34.8795 15.1586 34.8795 14.9773C34.8534 14.2265 34.8534 13.4757 34.8534 12.7249C34.8534 12.5696 34.8274 12.4401 34.7492 12.3107C34.7231 12.2589 34.6971 12.2589 34.7231 12.1553C34.7752 12.1553 34.8534 12.1553 34.9055 12.1553C35.2964 12.1553 35.7134 12.1553 36.1042 12.1294C36.1824 12.1294 36.2345 12.1036 36.3127 12.1036C36.4691 12 36.6515 12 36.8599 12Z" fill="white"/>
<path d="M12 34.8091C12.3909 34.6796 12.7818 34.5502 13.1726 34.4207C13.798 34.2136 14.4235 33.9806 15.0749 33.7735C15.2313 33.7217 15.3876 33.6699 15.5179 33.5405C15.544 33.5146 15.57 33.5146 15.5961 33.5146C15.6221 33.5146 15.6743 33.5405 15.6743 33.5663V33.5922C15.6743 33.8252 15.6482 34.0841 15.6482 34.3172C15.5961 34.343 15.544 34.343 15.5179 34.3172C15.3876 34.2136 15.2573 34.2136 15.101 34.2654C14.8925 34.343 14.684 34.4207 14.4756 34.4725C14.4495 34.6796 14.4495 34.8867 14.4495 35.0939C14.4235 35.301 14.4235 35.4822 14.4235 35.6893C14.4756 35.7152 14.5016 35.7411 14.5537 35.767C14.7101 35.8447 14.8925 35.9223 15.0489 36C15.101 36.0259 15.127 36.0259 15.1792 36.0518C15.2834 36.0777 15.3616 36.0777 15.4397 36C15.4658 35.9482 15.5179 35.9223 15.57 35.9741C15.5961 36.1295 15.57 36.4142 15.544 36.6214C15.5179 36.6214 15.4919 36.6214 15.4658 36.5955L15.4397 36.5696C15.3355 36.3884 15.1792 36.3107 14.9967 36.233C14.6059 36.0518 14.215 35.8964 13.8502 35.7152C13.329 35.4822 12.8078 35.2492 12.2606 35.0162C12.2085 34.9903 12.1303 34.9385 12.0521 34.9644C12 34.9126 12 34.8608 12 34.8091ZM14.1107 35.6375C14.1107 35.6117 14.1368 35.5858 14.1368 35.5858C14.1629 35.301 14.1629 34.9903 14.1889 34.7055C14.1889 34.6796 14.1889 34.6278 14.1368 34.6278C13.7199 34.7573 13.3029 34.9126 12.886 35.068C12.886 35.068 12.886 35.0939 12.8599 35.1197C13.2769 35.2492 13.6938 35.4563 14.1107 35.6375Z" fill="white"/>
<path d="M35.3746 39.5469C35.2964 39.521 35.2443 39.4951 35.1922 39.4951C34.5407 39.3139 33.9414 39.0032 33.4202 38.5631C32.9772 38.1748 32.6384 37.7087 32.4821 37.1392C32.2476 36.2848 32.3778 35.4822 32.9251 34.7573C33.1857 34.3948 33.5505 34.0841 33.9414 33.8511C34.4625 33.5405 35.0358 33.3333 35.6352 33.2557C36.5733 33.1003 37.5114 33.1521 38.4495 33.3592C38.5277 33.3851 38.6059 33.3851 38.684 33.411C38.7362 33.3333 38.7622 33.2557 38.7883 33.178C39.3094 32.1165 39.8306 31.0809 40.3778 30.0453C40.6906 29.4498 41.0293 28.8803 41.342 28.3107C41.6808 27.7411 42.0456 27.1974 42.4625 26.6796C42.8274 26.2136 43.2443 25.7994 43.7394 25.4628C44.0782 25.2298 44.4691 25.0485 44.886 24.9709C45.0684 24.945 45.2508 24.9191 45.4332 24.9191C45.4853 25.0227 45.4853 25.0227 45.4853 25.2039C45.4332 25.2039 45.3811 25.2039 45.329 25.2039C45.1205 25.2298 44.9381 25.2557 44.7557 25.3592C44.4951 25.5146 44.3388 25.7217 44.3127 26.0324C44.3127 26.11 44.3127 26.2136 44.3127 26.2913C44.3127 29.0097 44.3127 31.754 44.3127 34.4725C44.3127 34.5243 44.3127 34.6019 44.3127 34.6796C44.3648 34.6796 44.3909 34.7055 44.443 34.7055C44.6254 34.7055 44.8078 34.6796 44.9902 34.6278C45.2248 34.5761 45.3811 34.4207 45.4332 34.1618C45.4332 34.1359 45.4332 34.11 45.4593 34.0583C45.4853 34.0065 45.5114 33.9806 45.5635 33.9547C45.6417 33.9288 45.7199 33.9288 45.8241 33.9547C45.9283 33.9806 45.9804 34.0583 45.9544 34.1618C45.9023 34.4466 45.7459 34.6537 45.4853 34.7573C45.3029 34.835 45.1205 34.8867 44.912 34.9126C44.7557 34.9385 44.5993 34.9385 44.4169 34.9644C44.3909 34.9644 44.3648 34.9644 44.3127 34.9644C44.3127 35.0162 44.2866 35.0421 44.2866 35.068C44.2866 35.1197 44.2866 35.1456 44.2866 35.1974C44.2866 36.8544 44.2866 38.5113 44.2866 40.1424C44.2866 40.246 44.2866 40.3495 44.2866 40.479C44.3127 40.7379 44.443 40.945 44.6515 41.1003C44.8078 41.2039 44.9642 41.2816 45.1466 41.3074C45.2248 41.3074 45.3029 41.3333 45.4072 41.3333C45.4593 41.4369 45.4593 41.4369 45.4332 41.5922C45.4072 41.5922 45.355 41.6181 45.329 41.6181C45.3029 41.6181 45.2508 41.6181 45.2248 41.6181C44 41.6181 42.8013 41.6181 41.5765 41.6181C41.4984 41.6181 41.4463 41.644 41.3681 41.5922C41.3681 41.5146 41.3681 41.4369 41.3681 41.3333C41.4463 41.3333 41.5505 41.3074 41.6287 41.3074C41.785 41.2816 41.9414 41.2298 42.0717 41.1521C42.3583 40.9968 42.5147 40.7379 42.5147 40.4013C42.5147 40.3236 42.5147 40.2718 42.5147 40.1942C42.5147 38.4337 42.5147 36.699 42.5147 34.9385C42.5147 34.8608 42.5147 34.8091 42.5147 34.7314C42.4625 34.7055 42.4365 34.7055 42.3844 34.6796C41.759 34.5502 41.1335 34.3689 40.5342 34.1618C40.0651 34.0065 39.57 33.8511 39.0749 33.7476C39.0228 33.7476 38.9707 33.7217 38.9186 33.7217C38.8664 33.7994 38.8404 33.8511 38.8143 33.9288C38.3974 34.8608 37.9805 35.767 37.5635 36.699C37.1987 37.5275 36.8078 38.3301 36.3909 39.1327C36.3648 39.1845 36.3388 39.2621 36.2866 39.3398C36.3127 39.3657 36.3388 39.3657 36.3648 39.3657C36.5993 39.3657 36.8339 39.3657 37.0684 39.3139C37.2769 39.2621 37.4853 39.1586 37.6417 39.0291C37.8502 38.8479 38.0326 38.6149 38.1889 38.4078C38.241 38.3301 38.3192 38.2524 38.3974 38.1748C38.5537 38.0194 38.8404 38.0194 38.9967 38.0971C39.2052 38.2006 39.3094 38.4078 39.2834 38.6408C39.2573 38.7443 39.2052 38.8479 39.1531 38.9256C39.0749 39.0032 38.9707 39.0809 38.8664 39.1327C38.5277 39.3398 38.1629 39.4434 37.772 39.521C37.4593 39.5987 37.1466 39.6246 36.8339 39.6246C36.7036 39.6246 36.5472 39.6246 36.4169 39.5987C36.3388 39.5987 36.2606 39.5987 36.1824 39.5728C36.1563 39.6505 36.1042 39.7023 36.0782 39.754C35.5831 40.6602 35.0619 41.5663 34.4886 42.4207C33.9674 43.1715 33.3941 43.8964 32.7427 44.5178C32.2215 45.0097 31.6743 45.4498 31.0489 45.8123C30.2932 46.2524 29.4593 46.5631 28.5733 46.6408C27.5049 46.7443 26.4625 46.6408 25.4723 46.2265C23.7524 45.5016 22.6059 44.233 22.0065 42.4725C21.772 41.7994 21.6678 41.0744 21.6678 40.3495C21.6938 39.1327 22.0847 38.0712 22.8143 37.0874C23.57 36.0777 24.5603 35.3786 25.7329 34.9126C26.5407 34.6019 27.3746 34.4725 28.2345 34.4984C28.5472 34.4984 28.8599 34.5502 29.1466 34.6537C29.3029 34.7055 29.4593 34.7832 29.6156 34.9126C30.0847 35.2751 30.0065 35.9741 29.6417 36.2848C29.5114 36.4142 29.329 36.466 29.1466 36.466C28.886 36.466 28.6254 36.4142 28.4169 36.2589C28.0782 36.0518 27.7394 35.8706 27.3746 35.7152C27.1401 35.6117 26.8795 35.534 26.6189 35.4563C25.9674 35.301 25.342 35.4304 24.7687 35.7411C24.6124 35.8188 24.4821 35.9223 24.3518 36C23.9088 36.3107 23.5179 36.6731 23.1792 37.0874C22.6059 37.7864 22.2671 38.589 22.1107 39.4693C22.0326 39.8835 22.0065 40.2718 22.0326 40.6861C22.1107 41.8252 22.5016 42.835 23.3355 43.6375C23.8827 44.1812 24.5603 44.5178 25.2899 44.7249C25.785 44.8803 26.2801 44.932 26.8013 44.9579C27.2443 44.9838 27.6612 44.9579 28.1042 44.9061C28.7557 44.8285 29.355 44.6731 29.9544 44.4401C31.0749 43.9741 32.0651 43.301 32.9511 42.4466C33.4202 42.0065 33.8111 41.5146 34.202 41.0227C34.5668 40.5307 34.9316 40.0388 35.2704 39.521C35.2964 39.6764 35.3485 39.6246 35.3746 39.5469ZM38.5016 33.7217C38.4756 33.7217 38.4756 33.6958 38.4756 33.6958C38.4495 33.6958 38.3974 33.6699 38.3713 33.6699C37.7199 33.5405 37.0684 33.4887 36.4169 33.5146C35.7134 33.5405 35.0619 33.7735 34.4886 34.2136C34.0456 34.5502 33.7068 34.9385 33.4984 35.4563C33.2638 36 33.1857 36.5696 33.316 37.165C33.4202 37.6052 33.6287 37.9676 33.9153 38.3042C34.3322 38.7702 34.8274 39.0809 35.4267 39.288C35.4788 39.3139 35.5049 39.3139 35.557 39.3139C35.6091 39.2621 35.6352 39.1845 35.6612 39.1327C36 38.5372 36.3388 37.9676 36.6515 37.3722C37.2769 36.2071 37.8502 35.0162 38.4495 33.8252C38.4756 33.7735 38.5016 33.7476 38.5016 33.7217ZM42.5668 27.2233C42.4625 27.2751 42.4365 27.3269 42.4104 27.3786C42.0195 27.8964 41.6547 28.4401 41.316 29.0097C40.9511 29.6311 40.6384 30.2524 40.3257 30.8997C39.9349 31.7023 39.544 32.5307 39.1791 33.3333C39.1531 33.3851 39.101 33.4628 39.127 33.5405C39.1791 33.5663 39.2313 33.5663 39.3094 33.5922C39.8306 33.7217 40.3518 33.877 40.873 34.0583C41.3681 34.2395 41.8892 34.3948 42.4104 34.4984C42.4625 34.5243 42.5147 34.5243 42.5928 34.5243C42.5928 34.4984 42.6189 34.4725 42.6189 34.4466C42.5668 32.0388 42.5668 29.657 42.5668 27.2233Z" fill="white"/>
<path d="M55.0228 28.0518C55.0749 28.0518 55.127 28.0518 55.1792 28.0518C55.3355 28.0777 55.4919 28.0518 55.6482 28C56.3518 27.767 57.0554 27.5081 57.7329 27.2751C57.9153 27.2233 58.0717 27.1456 58.1759 26.9903C58.202 26.9644 58.228 26.9385 58.2801 26.9385C58.3062 26.9903 58.3322 27.0162 58.3322 27.0421C58.4625 27.4045 58.5928 27.767 58.6971 28.1295C58.7752 28.3884 58.8274 28.6731 58.8013 28.9579C58.7752 29.3981 58.5668 29.7346 58.228 29.9935C57.785 30.3301 57.2638 30.4854 56.7166 30.4337C56.4039 30.4078 56.1433 30.2783 55.9088 30.0712C55.7003 29.8641 55.544 29.6311 55.4397 29.3722C55.2834 28.9579 55.1531 28.5437 54.9967 28.1036C55.0228 28.1036 55.0228 28.0777 55.0228 28.0518ZM58.2801 27.6117C57.9414 27.7152 57.6547 27.8188 57.342 27.9223C57.0293 28.0259 56.7166 28.1295 56.4039 28.233C56.0912 28.3366 55.7785 28.4401 55.4919 28.5696C55.544 29.0097 55.6743 29.3981 56.013 29.7087C56.1694 29.8382 56.3518 29.9159 56.5342 29.9417C56.6124 29.9417 56.7166 29.9676 56.7948 29.9676C57.2378 29.9417 57.6547 29.8123 58.0456 29.5534C58.1498 29.5016 58.228 29.4239 58.3062 29.3463C58.4625 29.1909 58.5407 29.0097 58.5668 28.8026C58.6189 28.3625 58.5147 27.9741 58.2801 27.6117Z" fill="white"/>
<path d="M51.5049 17.6181C51.5309 17.644 51.557 17.6699 51.5831 17.6699C51.8436 17.9288 52.1042 18.1618 52.3909 18.4207C52.5472 18.5761 52.6775 18.7573 52.7818 18.9644C52.8599 19.1456 52.886 19.301 52.8599 19.4822C52.7818 19.9741 52.2866 20.2848 51.8176 20.1812C51.7134 20.1553 51.6091 20.1295 51.5049 20.0777C51.5049 20.1036 51.4788 20.1295 51.4788 20.1553C51.4788 20.3366 51.4528 20.5178 51.3746 20.699C51.3225 20.8803 51.2443 21.0356 51.1922 21.2168C51.1661 21.3204 51.1401 21.3981 51.114 21.5016C51.0879 21.7346 51.1401 21.8123 51.3746 21.8641L51.4007 21.89C51.4007 21.9159 51.4007 21.9417 51.4007 21.9676C51.2704 22.0453 51.1401 22.0194 51.0358 21.9417C50.8534 21.8123 50.7231 21.657 50.6971 21.4239C50.671 21.2686 50.6971 21.1133 50.7492 20.9579C50.8013 20.8285 50.8534 20.6731 50.9055 20.5437C50.9577 20.4142 51.0098 20.2589 51.0619 20.1295C51.114 19.9482 51.0619 19.7929 50.9316 19.6634C50.8534 19.5858 50.7752 19.5081 50.6971 19.4304C50.6449 19.4822 50.6189 19.5081 50.5668 19.534C50.3844 19.7411 50.1759 19.9482 49.9935 20.1553C49.8892 20.2589 49.8111 20.3883 49.785 20.5437C49.785 20.5955 49.759 20.6472 49.7068 20.6731C49.6026 20.6214 49.2638 20.3107 49.1596 20.1553C49.1857 20.1295 49.2117 20.1036 49.2378 20.1036C49.4202 20.0518 49.5765 19.9223 49.7068 19.7929C50.202 19.2751 50.6971 18.7314 51.1661 18.2136C51.2964 18.0583 51.4267 17.9288 51.4528 17.7217C51.4528 17.6958 51.4788 17.6699 51.5049 17.6181ZM50.8274 19.2751C50.9837 19.4304 51.1401 19.5858 51.2964 19.7152C51.6091 19.9223 51.9218 19.8964 52.2085 19.6634C52.5472 19.3528 52.5472 18.9644 52.2606 18.6278C52.1563 18.4984 52.0261 18.4207 51.8958 18.3172C51.8697 18.2913 51.8176 18.2654 51.7655 18.2654C51.4788 18.6019 51.1661 18.9385 50.8274 19.2751Z" fill="white"/>
<path d="M15.9609 31.5728C15.9088 31.5469 15.8567 31.521 15.8306 31.4951C15.7003 31.3657 15.57 31.288 15.3876 31.2621C14.658 31.055 13.9544 30.8479 13.2248 30.6408C13.0684 30.589 12.9121 30.5631 12.7557 30.6149C12.7036 30.6149 12.6775 30.6149 12.5993 30.6149C12.5993 30.5631 12.5993 30.5372 12.5993 30.5113C12.7036 30.123 12.8078 29.7346 12.9381 29.3722C13.0163 29.1392 13.1205 28.932 13.2508 28.7508C13.5635 28.3366 13.9805 28.1295 14.4756 28.1295C14.8664 28.1295 15.2573 28.233 15.5961 28.4401C16.1954 28.7767 16.43 29.2945 16.3778 29.9676C16.3518 30.123 16.3257 30.3042 16.2736 30.4595C16.1954 30.7961 16.0912 31.1068 15.987 31.4434C16.013 31.4693 15.987 31.4951 15.9609 31.5728ZM15.8827 30.8738C15.9088 30.8479 15.9088 30.822 15.9349 30.7961C16.0391 30.589 16.1173 30.356 16.1433 30.123C16.1954 29.657 16.0391 29.2945 15.6482 29.0356C15.2313 28.7508 14.7362 28.6214 14.241 28.6473C13.8241 28.6731 13.5375 28.8544 13.329 29.2168C13.1987 29.4239 13.1205 29.657 13.0945 29.89C13.0945 29.9676 13.0423 30.0194 13.0945 30.123C14.0065 30.3819 14.9186 30.6667 15.8306 30.9256C15.8306 30.8738 15.8567 30.8738 15.8827 30.8738Z" fill="white"/>
<path d="M30.241 55.9612C30.215 55.9353 30.215 55.9094 30.1889 55.8576C30.2671 55.7282 30.3974 55.6764 30.5537 55.7023C30.8143 55.7282 31.0228 55.8576 31.1531 56.0906C31.2313 56.246 31.2834 56.4013 31.3094 56.5566C31.3355 56.712 31.3616 56.8932 31.3876 57.0485C31.4137 57.1521 31.4397 57.2557 31.4658 57.3333C31.5179 57.4628 31.6221 57.5663 31.7785 57.5922C31.8827 57.6181 32.013 57.644 32.1173 57.6699C32.1433 57.6181 32.1433 57.5922 32.1694 57.5405C32.2215 57.2557 32.2997 56.9709 32.3518 56.6602C32.3778 56.5307 32.3778 56.4013 32.3257 56.2718C32.2997 56.1942 32.2997 56.1942 32.3257 56.0906C32.5603 56.1165 32.7948 56.1683 33.0293 56.246C33.0554 56.2977 33.0293 56.3495 33.0033 56.3754C32.873 56.5049 32.8208 56.6602 32.7948 56.8155C32.6384 57.5663 32.4821 58.3172 32.3257 59.0939C32.2997 59.2233 32.2997 59.3528 32.3518 59.4822C32.3778 59.534 32.4039 59.5858 32.3518 59.6634C32.3257 59.6634 32.2997 59.6634 32.2736 59.6634C31.9088 59.5858 31.57 59.5081 31.2052 59.4563C30.9967 59.4045 30.7883 59.3269 30.6059 59.1974C30.4235 59.068 30.2671 58.8867 30.215 58.6537C30.1107 58.2395 30.3192 57.8252 30.7362 57.6699C30.8664 57.6181 30.9707 57.5922 31.101 57.5663C31.101 57.5405 31.101 57.5405 31.101 57.5146C30.9446 57.3074 30.8925 57.0744 30.8664 56.8414C30.8404 56.712 30.8143 56.5566 30.7883 56.4272C30.7622 56.3495 30.7362 56.246 30.7101 56.1683C30.5798 55.9353 30.4756 55.9094 30.241 55.9612ZM32.0651 57.9029C31.8827 57.8511 31.544 57.7735 31.3876 57.7735C31.3616 57.7735 31.3094 57.7735 31.2834 57.7735C31.0489 57.7994 30.8925 57.9029 30.7883 58.0841C30.7362 58.1618 30.7101 58.2395 30.684 58.343C30.5798 58.7314 30.7622 59.0421 31.127 59.1715C31.3094 59.2492 31.5179 59.2751 31.7264 59.2751C31.7524 59.2751 31.7524 59.2492 31.7785 59.2492C31.8827 58.8091 31.9609 58.3689 32.0651 57.9029Z" fill="white"/>
<path d="M17.1335 24.479C17.4202 24.3754 17.6808 24.4272 17.9674 24.4531C18.0717 24.479 18.202 24.479 18.3062 24.5049C18.3844 24.5049 18.4886 24.5049 18.5668 24.5049C18.6189 24.5049 18.671 24.479 18.7231 24.479C18.8274 24.4272 18.8795 24.3754 18.8795 24.246C18.8795 24.2201 18.8795 24.1942 18.8795 24.1683C18.9055 24.1683 18.9577 24.1424 18.9837 24.1424C19.0619 24.246 19.0879 24.3495 19.0619 24.4531C19.0098 24.712 18.7492 24.945 18.4625 24.9709C18.2801 24.9968 18.1238 24.9709 17.9414 24.945C17.785 24.9191 17.6287 24.8932 17.4723 24.8673C17.3681 24.8414 17.2899 24.8414 17.1857 24.8673C17.0293 24.8673 16.9251 24.945 16.8469 25.0744C16.7948 25.178 16.7427 25.2816 16.6645 25.3851C16.7166 25.411 16.7687 25.4628 16.8208 25.4887C17.0554 25.6181 17.2899 25.7476 17.4984 25.9029C17.6287 25.9806 17.785 26.0324 17.9674 26.0324C18.0195 26.0324 18.0456 26.0583 18.0977 26.0583C18.0456 26.2136 17.8111 26.6019 17.7068 26.7314C17.6808 26.7055 17.6287 26.6796 17.6287 26.6537C17.5505 26.4984 17.4202 26.3948 17.2638 26.3172C16.6384 25.9547 15.987 25.5922 15.3616 25.2039C15.1792 25.1003 15.0228 25.0227 14.8143 25.0227C14.7883 25.0227 14.7622 24.9968 14.7101 24.9968C14.7362 24.9709 14.7362 24.9191 14.7362 24.8932C14.9186 24.5825 15.101 24.246 15.2834 23.9353C15.3876 23.754 15.544 23.5987 15.7003 23.4693C15.8306 23.3657 15.987 23.3139 16.1433 23.288C16.6124 23.2362 17.1596 23.5728 17.1335 24.1942C17.1335 24.246 17.1335 24.2718 17.1335 24.3236C17.1335 24.3754 17.1335 24.4272 17.1335 24.479ZM16.456 25.2557C16.456 25.2557 16.4821 25.2557 16.4821 25.2298C16.5603 25.0744 16.6645 24.945 16.7427 24.7896C16.9511 24.4013 16.8208 24.0388 16.43 23.8317C16.3779 23.8058 16.2997 23.7799 16.2215 23.754C16.013 23.6764 15.8046 23.7282 15.6482 23.8835C15.57 23.9353 15.4919 24.0388 15.4397 24.1165C15.3616 24.246 15.3094 24.3754 15.2573 24.5049C15.2313 24.5307 15.2573 24.5825 15.2313 24.6084C15.4658 24.712 16.3257 25.2039 16.456 25.2557Z" fill="white"/>
<path d="M52.886 52.5178C52.9121 53.424 51.8958 54.356 50.8013 53.9417C50.5668 53.8641 50.3583 53.7346 50.202 53.5793C49.8632 53.2686 49.6026 52.932 49.4984 52.466C49.2378 51.4563 50.0456 50.7055 50.7492 50.6019C51.0098 50.5502 51.2704 50.6019 51.5049 50.6796C52.1303 50.8867 52.7557 51.5858 52.886 52.2589C52.8599 52.3366 52.886 52.4142 52.886 52.5178ZM52.4951 52.7767C52.4951 52.6214 52.4691 52.4401 52.3909 52.2848C52.1563 51.7411 51.7655 51.3269 51.2443 51.0421C51.0879 50.9644 50.9055 50.9126 50.7231 50.8867C50.202 50.8608 49.8892 51.1974 49.8111 51.5081C49.785 51.6634 49.759 51.7929 49.8111 51.9482C49.8371 52.1553 49.9153 52.3366 50.0195 52.5178C50.228 52.8544 50.4886 53.1392 50.8013 53.3463C50.9577 53.4498 51.0879 53.5275 51.2704 53.5793C51.4528 53.6311 51.6352 53.657 51.8176 53.6311C52.2085 53.5793 52.5212 53.2427 52.4951 52.7767Z" fill="white"/>
<path d="M54.4495 25.5146C53.772 25.5146 53.2248 25.0744 52.9902 24.4531C52.8599 24.0906 52.886 23.7282 53.0423 23.3916C53.0945 23.2621 53.1466 23.1586 53.2248 23.055C53.6156 22.5631 54.1107 22.2524 54.7362 22.1748C55.127 22.123 55.4919 22.2006 55.8046 22.4595C56.2215 22.7961 56.456 23.2362 56.43 23.754C56.43 23.9871 56.3518 24.1942 56.2476 24.4013C55.8827 25.0227 55.3094 25.3851 54.6059 25.5146C54.5798 25.5146 54.5798 25.5146 54.5537 25.5146C54.5277 25.5146 54.5016 25.5146 54.4495 25.5146ZM54.1629 25.1262C54.3453 25.1262 54.5016 25.0744 54.684 25.0227C55.127 24.8673 55.4919 24.6343 55.8046 24.2977C55.9609 24.1165 56.0912 23.9094 56.1433 23.6505C56.2476 23.1845 55.987 22.7184 55.4919 22.6149C55.3355 22.589 55.1792 22.5631 55.0228 22.589C54.3713 22.7184 53.8762 23.0291 53.4853 23.5469C53.3811 23.7023 53.3029 23.8576 53.2508 24.0647C53.1466 24.5049 53.4072 24.945 53.8502 25.0744C53.9544 25.1003 54.0586 25.1003 54.1629 25.1262Z" fill="white"/>
<path d="M40.43 57.178C40.43 56.9968 40.456 56.8414 40.5081 56.6602C40.6906 56.1165 41.0554 55.7799 41.6026 55.6246C42.2541 55.4693 42.8013 55.6505 43.2182 56.1683C43.4528 56.479 43.5831 56.8414 43.6612 57.2298C43.7133 57.4887 43.6873 57.7735 43.6091 58.0324C43.4528 58.6278 42.9837 59.0421 42.3322 59.1197C41.7329 59.1974 41.2378 58.9903 40.873 58.4984C40.5603 58.11 40.43 57.6699 40.43 57.178ZM40.9251 56.9968C40.9251 57.4369 41.0554 57.8511 41.2638 58.2395C41.342 58.3948 41.4462 58.5243 41.5765 58.6278C41.6547 58.7055 41.759 58.7573 41.8371 58.8091C42.2541 59.0162 42.7231 58.8867 42.9577 58.4984C43.0358 58.3689 43.0879 58.2136 43.114 58.0583C43.1661 57.8511 43.1401 57.6181 43.114 57.411C43.0619 57.0485 42.9316 56.6861 42.7231 56.3754C42.6189 56.1942 42.4625 56.0388 42.2801 55.9353C41.9935 55.754 41.6808 55.754 41.3941 55.9353C41.2378 56.0388 41.1075 56.1683 41.0293 56.3495C40.9511 56.5307 40.9251 56.7638 40.9251 56.9968Z" fill="white"/>
<path d="M45.6417 14.2006C45.5375 14.4595 45.4593 14.7184 45.355 14.9773C45.3029 14.9515 45.2508 14.9515 45.2248 14.9256C45.2248 14.8738 45.2248 14.7961 45.2248 14.7443C45.1987 14.356 45.0163 14.0712 44.6515 13.89C44.3127 13.7087 43.9739 13.7346 43.6352 13.9417C43.4528 14.0453 43.3225 14.2006 43.2182 14.3819C42.9837 14.7702 42.8534 15.2104 42.9055 15.6505C42.9316 16.1165 43.1661 16.479 43.6091 16.6861C43.7915 16.7638 43.9739 16.8155 44.1824 16.8414C44.2085 16.8414 44.2345 16.8414 44.2866 16.8414C44.3127 16.7896 44.3388 16.7638 44.3388 16.712C44.4169 16.5307 44.4691 16.3495 44.5472 16.1424C44.5993 15.9871 44.6254 15.8576 44.5472 15.7023C44.5472 15.6764 44.5212 15.6764 44.5212 15.6505C44.5212 15.6246 44.5212 15.5987 44.5212 15.5728C44.5472 15.5469 44.5733 15.5469 44.5993 15.5469C44.8078 15.6246 45.0163 15.7023 45.2248 15.7799L45.2508 15.8058C45.2248 15.8317 45.2248 15.8835 45.1987 15.8835C45.0423 16.0129 44.9381 16.1683 44.886 16.3495C44.8339 16.5049 44.7557 16.6602 44.7036 16.8155C44.6775 16.9191 44.5993 16.9709 44.5212 16.9968C44.3127 17.0485 44.1042 17.0744 43.8958 17.0485C43.5831 17.0227 43.2964 16.9191 43.0358 16.7379C42.6189 16.4531 42.4104 16.0647 42.3583 15.5728C42.3322 15.055 42.4625 14.589 42.7752 14.1489C43.0098 13.8123 43.3485 13.6052 43.7394 13.5016C43.9739 13.4498 44.2085 13.4498 44.443 13.5016C44.8078 13.5793 45.1205 13.7346 45.3811 13.9676C45.5114 14.0453 45.5635 14.123 45.6417 14.2006Z" fill="white"/>
<path d="M22.1107 18.8091C22.215 18.9903 22.8664 19.8188 22.9967 19.9223C23.0228 19.8964 23.0489 19.8964 23.0749 19.8706C23.2573 19.7411 23.4137 19.6117 23.5961 19.4563L23.6221 19.4304C23.9088 19.2233 24.013 18.9385 23.9349 18.6019C23.9349 18.5502 23.9088 18.4725 23.8827 18.4207C23.9088 18.3948 23.9349 18.3689 23.987 18.343C24.013 18.343 24.013 18.343 24.013 18.3689C24.1433 18.6019 24.2997 18.835 24.43 19.0421C24.43 19.068 24.43 19.068 24.43 19.068C24.43 19.068 24.43 19.068 24.43 19.0939C23.8827 19.534 23.3355 19.9482 22.7622 20.3884C22.7101 20.4142 22.658 20.466 22.6319 20.4919C22.5798 20.4919 22.5537 20.4401 22.5537 20.3884C22.5277 20.2071 22.4495 20.0518 22.3453 19.8964C21.9023 19.3269 21.4593 18.7573 21.0163 18.1877C20.886 18.0324 20.7557 17.9029 20.5733 17.8252C20.5472 17.8252 20.5472 17.7994 20.5212 17.7994C20.5212 17.7994 20.5212 17.7735 20.4951 17.7476C20.4951 17.7217 20.5212 17.6958 20.5472 17.6958C21.0945 17.2557 21.6417 16.8414 22.215 16.4013C22.215 16.4013 22.215 16.4013 22.241 16.4013C22.3453 16.479 22.658 16.7638 22.8664 16.9968C22.8404 17.0227 22.8143 17.0485 22.7622 17.1003C22.7101 17.0744 22.684 17.0485 22.6319 17.0485C22.5537 17.0227 22.4756 16.9709 22.3974 16.945C22.1889 16.8673 22.0065 16.8932 21.8241 16.9968C21.7199 17.0744 21.2508 17.4369 21.1466 17.5405C21.2508 17.6958 21.8762 18.5243 22.0065 18.6278C22.0326 18.6278 22.0586 18.6019 22.0586 18.6019C22.215 18.4984 22.3453 18.3689 22.5016 18.2654C22.5277 18.2395 22.5798 18.2136 22.6059 18.1618C22.684 18.0583 22.7101 17.9547 22.684 17.8252C22.658 17.7735 22.658 17.7217 22.6319 17.6699C22.658 17.644 22.7101 17.6181 22.7362 17.5922C22.8404 17.6958 23.2052 18.1359 23.3355 18.343C23.3094 18.3689 23.2834 18.3948 23.2573 18.4207C23.2313 18.4207 23.2313 18.4207 23.2052 18.4207C23.1792 18.3948 23.127 18.3689 23.101 18.343C22.9967 18.2913 22.8664 18.2913 22.7622 18.343C22.6319 18.3689 22.1889 18.7055 22.1107 18.8091Z" fill="white"/>
<path d="M25.8892 57.6958C25.8371 57.6699 25.8111 57.644 25.759 57.644C25.759 57.6181 25.759 57.5922 25.759 57.5663C25.785 57.1003 25.8111 56.6602 25.8632 56.1942C25.8892 55.9612 25.8892 55.7282 25.9153 55.4693C25.9414 55.1068 25.9674 54.7443 25.9935 54.356C25.9935 54.2265 25.9935 54.0971 25.9414 53.9676C25.9153 53.9159 25.9153 53.89 25.9674 53.8382C26.0977 53.8641 26.4625 54.0194 26.6971 54.1748C26.7231 54.2265 26.6971 54.2524 26.6449 54.2783C26.5147 54.356 26.4625 54.4854 26.4365 54.6408C26.4365 54.8738 26.4104 55.0809 26.3844 55.3139C26.5147 55.3916 27.2964 55.7799 27.5049 55.8576C27.5309 55.8317 27.557 55.8317 27.5831 55.8058C27.7394 55.6764 27.8958 55.521 28.0261 55.3916C28.0521 55.3657 28.0521 55.3657 28.0782 55.3398C28.1563 55.2621 28.1824 55.1586 28.1303 55.055C28.1042 55.0032 28.1042 54.9515 28.1564 54.8997C28.2606 54.9256 28.3388 54.9773 28.443 55.0291C28.5212 55.0809 28.6254 55.1068 28.7036 55.1586C28.7296 55.1586 28.7296 55.2104 28.7296 55.2104C28.7296 55.2362 28.7036 55.2621 28.6775 55.2621C28.6515 55.288 28.6254 55.288 28.5993 55.288C28.443 55.3139 28.3388 55.3916 28.2345 55.4951C28.1042 55.5987 28 55.7282 27.8697 55.8317C27.2443 56.4272 26.6189 56.9968 25.9935 57.5922C25.9935 57.6181 25.9414 57.6699 25.8892 57.6958ZM27.3225 56.0388C27.2182 55.9612 27.114 55.9353 27.0098 55.8835C26.9055 55.8317 26.8013 55.7799 26.7231 55.754C26.6189 55.7023 26.5147 55.6246 26.4104 55.6246C26.3844 55.7799 26.3062 56.7896 26.3062 56.945C26.3062 56.9709 26.3062 56.9709 26.3322 56.9968C26.4365 56.8932 27.1922 56.1942 27.3225 56.0388Z" fill="white"/>
<path d="M15.4137 48.246C15.3355 48.1165 15.3355 48.1165 15.3876 48.0388C15.5179 47.8576 15.6482 47.7023 15.7785 47.521C16.2476 46.8997 16.7427 46.2783 17.2117 45.6828C17.342 45.5275 17.4463 45.3722 17.4984 45.1909C17.5244 45.1392 17.5505 45.1133 17.6026 45.1133C17.7068 45.2686 17.9674 45.6828 18.0195 45.8123C17.9935 45.8641 17.9414 45.8641 17.9153 45.8641C17.759 45.8382 17.6547 45.9159 17.5505 46.0453C17.4202 46.2265 17.2638 46.4078 17.1335 46.5631C17.2378 46.7702 17.6808 47.521 17.785 47.6246C17.9414 47.5987 18.1238 47.5728 18.3062 47.5469C18.3844 47.5469 18.4365 47.521 18.5147 47.521C18.645 47.4951 18.7492 47.4434 18.7752 47.288C18.7752 47.2362 18.8274 47.2104 18.8795 47.2104C18.9837 47.3916 19.0879 47.5728 19.2182 47.754C19.1661 47.7799 19.1401 47.8058 19.114 47.8058C19.0879 47.8058 19.0619 47.7799 19.0358 47.7799C18.9055 47.7282 18.7492 47.7282 18.6189 47.7282C17.785 47.8576 16.9772 47.9871 16.1433 48.1165C15.8827 48.1683 15.6482 48.1942 15.4137 48.246ZM17.4984 47.6764C17.4463 47.521 17.0814 46.8997 16.9772 46.7961C16.873 46.8738 16.2736 47.6246 16.1173 47.8576C16.1173 47.8576 16.1173 47.8835 16.1173 47.9094C16.5863 47.8317 17.0554 47.754 17.4984 47.6764Z" fill="white"/>
<path d="M56.5342 48.5307C56.43 48.712 55.3876 50.2913 55.2834 50.3948C55.1531 50.343 54.7101 50.1359 54.5277 50.0324C54.5537 50.0065 54.5537 49.9547 54.5798 49.9288C54.6319 49.9288 54.658 49.9288 54.7101 49.9288C54.7362 49.9288 54.7622 49.9288 54.7883 49.9288C55.1531 49.9806 55.4137 49.8511 55.6221 49.5663C55.7524 49.3592 55.8827 49.178 56.013 48.9709C56.013 48.945 56.013 48.945 56.013 48.945C56.013 48.945 56.013 48.945 56.013 48.9191C55.6743 48.6861 55.3355 48.4531 54.9967 48.2201C54.9707 48.1942 54.9446 48.1942 54.9186 48.1683C54.8925 48.1942 54.8664 48.2201 54.8404 48.246C54.7362 48.4013 54.6319 48.5566 54.5277 48.712C54.5016 48.7379 54.4756 48.7896 54.4495 48.8414C54.3974 48.9709 54.3974 49.0744 54.4756 49.2039C54.5016 49.2557 54.5277 49.2816 54.5798 49.3333C54.5537 49.3592 54.5277 49.411 54.5016 49.4369C54.3974 49.3851 54.3192 49.3074 54.215 49.2557C54.1368 49.2039 54.0326 49.1521 53.9544 49.0744C53.8762 49.0227 53.772 48.9709 53.6938 48.8673C53.7199 48.8414 53.7459 48.7896 53.772 48.7638C53.8241 48.7638 53.8762 48.7896 53.9283 48.7896C54.0847 48.8155 54.215 48.7638 54.3192 48.6343C54.3713 48.5825 54.3974 48.5049 54.4495 48.4531C54.5537 48.3236 54.6319 48.1683 54.7362 48.0388C54.7101 48.0129 54.684 47.9871 54.658 47.9612C54.3974 47.7799 54.1107 47.5987 53.8241 47.4175C53.7199 47.3398 53.5896 47.288 53.4593 47.288C53.4072 47.288 53.329 47.288 53.3029 47.2362C53.355 47.1068 53.5896 46.7443 53.7199 46.6149C53.772 46.6149 53.798 46.6667 53.8241 46.6926C53.9023 46.8479 54.0065 46.9515 54.1629 47.055C54.7883 47.4693 55.3876 47.8835 56.013 48.2977C56.1694 48.4013 56.3257 48.479 56.5081 48.479C56.43 48.479 56.4821 48.5049 56.5342 48.5307Z" fill="white"/>
<path d="M22.1107 55.4951C21.5114 55.0291 20.9381 54.589 20.3388 54.123C20.4169 53.9417 20.6775 53.5016 20.7818 53.3722C20.8078 53.3981 20.8339 53.4239 20.886 53.4498C20.886 53.5016 20.8599 53.5534 20.8599 53.6311C20.8599 53.6829 20.8339 53.7605 20.8339 53.8123C20.8078 54.0453 20.886 54.2524 21.0684 54.4078C21.2769 54.589 21.4853 54.7443 21.7199 54.8997H21.7459C21.8762 54.7702 22.5277 53.9417 22.5798 53.8123C22.5537 53.7864 22.5016 53.7346 22.4756 53.7087C22.3453 53.6052 22.215 53.5016 22.0847 53.3981C21.9023 53.2427 21.7459 53.2168 21.5114 53.3722C21.5114 53.3722 21.4853 53.3981 21.4593 53.3981C21.4332 53.3722 21.3811 53.3463 21.329 53.3204C21.5375 53.0615 21.7199 52.8026 21.9283 52.5437C21.9805 52.5696 22.0065 52.5955 22.0586 52.6214C22.0326 52.6731 22.0326 52.7249 22.0065 52.7767C21.9544 52.9062 22.0065 53.0097 22.0847 53.1133C22.1107 53.1392 22.1107 53.1392 22.1368 53.1651C22.3192 53.3204 22.5016 53.4498 22.684 53.6052C22.684 53.6052 22.7101 53.6052 22.7362 53.6052C22.7622 53.5793 22.7883 53.5534 22.8143 53.5016C22.9967 53.2686 23.2052 53.0097 23.3876 52.7767C23.4919 52.6473 23.544 52.5178 23.57 52.3884C23.57 52.3366 23.57 52.2848 23.6482 52.2589C23.6743 52.2589 23.6743 52.2589 23.7003 52.2848C23.8827 52.4142 24.0651 52.5696 24.2215 52.699C24.2215 52.7508 24.1954 52.7767 24.1694 52.8026C24.1433 52.8285 24.1173 52.8285 24.0912 52.8285C23.9609 52.8803 23.8567 52.9579 23.7785 53.0615C23.2834 53.6828 22.7883 54.3301 22.2932 54.9515C22.215 55.055 22.1629 55.1845 22.1368 55.3139C22.1889 55.3916 22.1889 55.4434 22.1107 55.4951Z" fill="white"/>
<path d="M47.4397 56.8155C47.4137 56.7379 47.3876 56.6861 47.3616 56.6343C46.9446 55.9094 46.5537 55.1845 46.1368 54.4595C46.0586 54.3042 45.9544 54.2006 45.8241 54.0971C45.798 54.0712 45.772 54.0453 45.7199 54.0194C45.8502 53.9159 46.241 53.6828 46.3974 53.657C46.3974 53.7087 46.4235 53.7346 46.4235 53.7864C46.4235 53.9676 46.4756 54.123 46.5537 54.2524C46.9707 54.9773 47.3616 55.6764 47.7524 56.4013C47.7785 56.4531 47.8046 56.5049 47.8567 56.5566C48.0391 56.479 48.2215 56.3754 48.3518 56.246C48.4821 56.1165 48.5342 55.9612 48.5342 55.8058C48.5342 55.7023 48.5342 55.5728 48.5342 55.4693C48.5603 55.4434 48.5603 55.4434 48.5863 55.4175C48.6124 55.3916 48.6384 55.3916 48.6645 55.4175C48.6645 55.4175 48.6645 55.4175 48.6645 55.4434C48.7687 55.6764 48.8469 55.9094 48.9511 56.1424C48.9511 56.1424 48.9511 56.1683 48.9511 56.1942C48.1433 56.6343 47.3355 57.1003 46.5277 57.5405C46.4234 57.4369 46.1368 57.0744 46.0065 56.8414C46.0326 56.8155 46.0847 56.7896 46.1107 56.7638C46.1889 56.8155 46.241 56.8673 46.3192 56.8932C46.5798 57.0744 46.8404 57.0744 47.127 56.9191C47.2313 56.945 47.3355 56.8932 47.4397 56.8155Z" fill="white"/>
<path d="M28.2085 16.1165C28.2866 16.4013 28.3909 16.6602 28.4691 16.9191C28.3388 17.0227 27.0358 17.644 26.4886 17.877C26.4625 17.877 26.4365 17.9029 26.4104 17.9029C26.3583 17.8511 26.3583 17.7994 26.3583 17.7735C26.3844 17.6181 26.3322 17.4628 26.2541 17.3074C25.9153 16.6084 25.6026 15.9353 25.2638 15.2362C25.1857 15.0809 25.1075 14.9773 24.9772 14.8738C24.9511 14.8479 24.9251 14.822 24.873 14.7702C24.9251 14.6926 25.0293 14.6667 25.0814 14.6408C25.1596 14.589 25.2378 14.5631 25.316 14.5372C25.3941 14.5113 25.4723 14.4595 25.5505 14.4595C25.6026 14.4854 25.6026 14.5372 25.6026 14.5631C25.5765 14.7443 25.6287 14.9256 25.7068 15.0809C26.0456 15.8058 26.4104 16.5566 26.7492 17.2816C26.7752 17.3333 26.8013 17.3851 26.8274 17.4369C26.8795 17.411 26.9055 17.411 26.9316 17.3851C27.114 17.3074 27.3225 17.2039 27.5049 17.1003C27.557 17.0744 27.6091 17.0485 27.6873 16.9968C27.8697 16.8673 27.9739 16.712 28 16.479C28 16.4013 28.0261 16.3236 28 16.2201C28.0521 16.1683 28.1042 16.1424 28.2085 16.1165Z" fill="white"/>
<path d="M32.43 14.9515C32.456 14.9515 32.5081 14.9256 32.5342 14.9256C32.5603 14.9515 32.5603 14.9515 32.5603 14.9515C32.6124 15.2104 32.6384 15.4951 32.6384 15.754C32.5863 15.7799 32.5603 15.7799 32.5342 15.8058C31.8827 15.9612 31.2313 16.1165 30.5798 16.2718C30.5277 16.2718 30.5016 16.2718 30.4235 16.2977C30.4235 16.2718 30.3974 16.2201 30.3974 16.1942C30.3974 16.1683 30.4235 16.1424 30.4235 16.0906C30.4495 15.9871 30.4495 15.8576 30.4235 15.754C30.241 14.9773 30.0586 14.2006 29.8762 13.4498C29.8502 13.2945 29.772 13.165 29.6677 13.0615C29.6417 13.0356 29.5896 12.9838 29.6417 12.9061C29.8762 12.8544 30.1107 12.8026 30.3453 12.7508C30.3974 12.8026 30.3713 12.8544 30.3713 12.9061C30.3192 13.0615 30.3453 13.2168 30.3713 13.3722C30.5537 14.1748 30.7362 14.9773 30.9446 15.7799C30.9446 15.8317 30.9707 15.8835 30.9967 15.9612C31.0489 15.9612 31.0749 15.9612 31.101 15.9612C31.3094 15.9094 31.544 15.8576 31.7524 15.8058C31.7785 15.8058 31.7785 15.8058 31.8046 15.7799C32.0912 15.7023 32.2736 15.521 32.3518 15.2362C32.3778 15.1327 32.4039 15.0291 32.43 14.9515Z" fill="white"/>
<path d="M18.3583 52.1553C18.228 52.0518 17.9935 51.7929 17.8632 51.6117C17.8632 51.5599 17.9153 51.534 17.9674 51.534C18.1498 51.5081 18.2801 51.4045 18.4104 51.301C18.9577 50.8091 19.5309 50.3172 20.0782 49.8252C20.2085 49.6958 20.3127 49.5922 20.3648 49.411C20.3648 49.3851 20.4169 49.3592 20.4169 49.3333C20.5212 49.411 20.8078 49.6958 20.9121 49.877C20.886 49.9029 20.8339 49.9288 20.8078 49.9288C20.6254 49.9547 20.4951 50.0583 20.3648 50.1877C19.8176 50.6796 19.2443 51.1715 18.6971 51.6634C18.5668 51.767 18.4625 51.8964 18.4104 52.0777C18.4104 52.0777 18.3844 52.1036 18.3583 52.1553Z" fill="white"/>
<path d="M20.4169 22.7184C20.3648 22.6926 20.3388 22.6408 20.3127 22.589C20.2606 22.4337 20.1824 22.3301 20.0521 22.2265C19.4788 21.7087 18.8795 21.1909 18.3062 20.699C18.202 20.5955 18.0717 20.5437 17.9414 20.4919C17.8893 20.4919 17.8371 20.4919 17.8111 20.4142C17.8632 20.3107 17.9414 20.233 18.0195 20.1295C18.0977 20.0259 18.1759 19.9482 18.2541 19.8706C18.3322 19.8706 18.3322 19.9223 18.3583 19.9482C18.4104 20.1295 18.5147 20.2589 18.645 20.3625C19.2182 20.8544 19.7655 21.3463 20.3127 21.8382C20.443 21.9417 20.5733 22.0453 20.7557 22.0712C20.8078 22.0712 20.8339 22.0971 20.886 22.123C20.8339 22.3042 20.5472 22.6149 20.4169 22.7184Z" fill="white"/>
<path d="M48.4039 15.4693C48.5342 15.521 48.873 15.7282 49.0293 15.8576C49.0033 15.8835 49.0033 15.9353 48.9511 15.9353C48.7687 16.0388 48.6384 16.1942 48.5342 16.3495C48.1433 16.9709 47.7785 17.5663 47.3876 18.1877C47.2834 18.343 47.2313 18.4984 47.2313 18.6796C47.2313 18.7055 47.2313 18.7314 47.2052 18.7573L47.1791 18.7832C47.0489 18.7573 46.8404 18.6019 46.5537 18.4207C46.5798 18.3948 46.5798 18.3689 46.6059 18.343C46.6059 18.3172 46.6319 18.3172 46.658 18.3172C46.8143 18.2395 46.8925 18.1359 46.9707 18.0065C47.1531 17.7217 47.3355 17.4369 47.4919 17.1521C47.7264 16.7896 47.9349 16.4272 48.1694 16.0906C48.2736 15.9353 48.3257 15.8058 48.3257 15.6246C48.3518 15.521 48.3518 15.4951 48.4039 15.4693Z" fill="white"/>
<path d="M57.1075 42.2913C57.0033 42.2654 56.9511 42.2395 56.873 42.2395C56.8469 42.2395 56.8469 42.2136 56.8208 42.2136C56.8469 42.0583 57.0033 41.3851 57.1075 41.1521C57.2378 41.1521 57.2378 41.1521 57.3941 41.2298C57.3681 41.411 57.316 41.5922 57.2638 41.7735C57.2117 41.9288 57.1596 42.11 57.1075 42.2913Z" fill="white"/>
<path d="M14.7622 41.4369C14.8664 41.411 14.9446 41.3851 15.0228 41.3592C15.101 41.4887 15.2834 42.0583 15.3355 42.4207C15.2573 42.4725 15.2573 42.4725 15.0749 42.5243C15.0228 42.3948 14.8925 42.0065 14.7622 41.4369Z" fill="white"/>
</svg>
