<svg width="34" height="34" viewBox="0 0 34 34" fill="none" xmlns="http://www.w3.org/2000/svg">
<path fill-rule="evenodd" clip-rule="evenodd" d="M30.7247 14.1397L30.7258 14.145C31.8111 19.4176 29.6083 25.1443 25.2897 28.2638L25.2811 28.27L25.2726 28.2762C22.3393 30.4425 18.4496 31.4042 14.6213 30.8428L14.6115 30.8414L14.6018 30.8401C13.6056 30.704 12.6214 30.4435 11.6782 30.0932C9.02573 29.0776 7.67862 27.8436 6.94476 26.916C6.569 26.441 6.32264 26.0069 6.13273 25.6381C6.08373 25.5429 6.0389 25.453 5.99263 25.3601L5.9859 25.3465L5.98582 25.3464C5.94395 25.2623 5.89608 25.1661 5.84985 25.0773L5.84154 25.0613C5.7737 24.9303 5.58516 24.5663 5.28699 24.2673L5.2887 24.2689C5.28871 24.2689 5.28821 24.2684 5.28717 24.2672C5.28143 24.261 5.25936 24.2368 5.21793 24.1875C5.16623 24.126 5.10096 24.0452 5.02288 23.9455C4.86672 23.7461 4.68037 23.4978 4.48267 23.2284C4.17857 22.8139 3.86327 22.3706 3.61631 22.0181C3.37638 21.0655 3.21285 20.1066 3.10721 19.1602C2.8622 16.8555 3.04116 14.7696 3.60207 12.9222C3.77028 12.3924 3.96325 11.8863 4.17866 11.4164L4.17867 11.4164L4.18216 11.4087C5.07683 9.43518 6.58572 7.56667 8.73827 5.86935C10.6342 4.38326 12.4511 3.51871 14.1598 3.18005C16.0223 2.81692 18.2327 2.99032 20.7987 3.81884C23.7905 4.78933 26.2003 6.34003 27.8359 8.20041C29.2567 9.83661 30.2666 11.8831 30.7247 14.1397ZM4.1987 26.2443C4.79572 27.4436 6.12334 30.1107 10.9723 31.9645C12.0389 32.3613 13.169 32.6629 14.3311 32.8217C18.6608 33.4566 23.0861 32.3772 26.4607 29.8851C31.4272 26.2977 33.9264 19.7737 32.6848 13.7418C32.1595 11.1544 30.9974 8.78925 29.3419 6.88444C27.4318 4.70977 24.6938 2.97957 21.4147 1.91604C18.6131 1.01126 16.0502 0.773154 13.7739 1.21761C11.6887 1.63032 9.58745 2.6621 7.50217 4.29706C5.14628 6.15426 3.4112 8.26543 2.36059 10.583C2.1059 11.1385 1.88305 11.7258 1.69203 12.329C1.03938 14.472 0.848365 16.8371 1.11897 19.3769C1.24632 20.5197 1.45326 21.6944 1.77162 22.869C2.30393 23.6379 3.46898 25.2765 3.87076 25.6794C3.96413 25.7731 4.06237 25.9704 4.1987 26.2443ZM23.2735 9.10876C22.68 9.71552 22.0887 10.3225 21.4974 10.9296L21.496 10.931C20.9051 11.5376 20.3142 12.1442 19.7212 12.7505C19.5994 12.874 19.4769 12.997 19.3542 13.1202L19.3541 13.1203C18.9855 13.4904 18.6158 13.8616 18.2649 14.247C18.2192 14.2933 18.18 14.3232 18.1435 14.3405C18.1283 14.356 18.1128 14.3692 18.0973 14.3825L18.0973 14.3825C18.0818 14.3958 18.0663 14.409 18.051 14.4245C18.0179 14.468 17.9798 14.5066 17.9379 14.549L17.9379 14.5491C17.4696 15.024 17.0437 15.541 16.6204 16.0605L16.0573 15.5219C14.5869 14.1154 13.1155 12.7081 11.7112 11.3239C11.4191 11.0355 11.1247 10.7626 10.8304 10.4897C10.5361 10.2169 10.2418 9.94399 9.94965 9.65551C9.94965 9.65551 9.83522 9.54075 9.41581 9.65535C9.28173 9.69036 8.86052 10.151 9.1167 10.399C9.71585 10.9954 10.3152 11.5898 10.9145 12.1841L10.9145 12.1841C11.5138 12.7784 12.1131 13.3728 12.7123 13.9692C12.7993 14.0565 12.8777 14.1354 12.9507 14.2088C13.287 14.5473 13.5075 14.7692 13.9233 15.1569C13.9559 15.1896 14.0572 15.4182 14.1204 15.5609L14.1204 15.561C14.1458 15.6184 14.1651 15.6619 14.1713 15.6732L14.2857 15.788C14.7365 16.24 15.2545 16.6582 15.7798 17.0739C15.5756 17.3099 15.3662 17.5408 15.1476 17.7626C15.1195 17.7911 15.1389 17.8667 15.1586 17.9435C15.1789 18.0228 15.1996 18.1035 15.1687 18.1349C15.1562 18.1621 14.872 18.3249 14.7216 18.411L14.7216 18.4111C14.6687 18.4414 14.6324 18.4622 14.6304 18.4642C13.9556 18.9713 13.689 19.1728 13.1009 19.7888C13.0667 19.8236 13.0351 19.8457 12.9986 19.863C12.8844 19.9788 12.7736 20.0961 12.6628 20.2134L12.6627 20.2135C12.5519 20.3308 12.4411 20.4481 12.3268 20.564L12.3192 20.5717L12.2963 20.5949C12.2757 20.6355 12.2425 20.679 12.1968 20.7253C11.709 21.2086 11.2315 21.7048 10.7542 22.2007L10.7539 22.201C10.4133 22.555 10.0728 22.9088 9.72869 23.2578L9.67033 23.3166C9.39532 23.5933 9.27392 23.7154 9.31475 24.1992C9.31475 24.1992 9.75341 24.8864 10.273 24.4087C12.3506 22.4763 14.5367 20.1953 16.745 17.847C17.1129 18.1525 17.4654 18.4669 17.7801 18.8017C17.8157 18.8196 17.8392 18.8342 17.843 18.8381C18.1447 19.1361 18.445 19.4374 18.7454 19.7386C19.0458 20.0398 19.3461 20.341 19.6478 20.6391C19.6821 20.6735 19.7044 20.7047 19.7222 20.7404C19.8366 20.8552 19.9523 20.9668 20.068 21.0783L20.0683 21.0786C20.1839 21.1901 20.2995 21.3016 20.4138 21.4162L20.4214 21.4239L20.4443 21.4468C20.4837 21.4685 20.5263 21.5023 20.5721 21.5482C21.3909 22.3872 22.4932 23.4926 23.3209 24.3227C23.6375 24.6402 23.7087 24.6224 23.9832 24.4695C23.9832 24.4695 24.6205 24.0828 24.1469 23.5632C22.2052 21.4557 19.9183 19.2243 17.5688 16.9692C17.804 16.7183 18.0393 16.4669 18.2747 16.2156L18.2747 16.2156C19.6713 14.724 21.0688 13.2316 22.4455 11.8088L24.171 10.0294C24.171 10.0294 24.2897 9.94849 24.2765 9.84375C24.254 9.69923 23.5237 8.84516 23.2735 9.10876Z" fill="#7D4C23"/>
<path d="M30.7258 14.145L31.2156 14.0442L31.2155 14.0441L30.7258 14.145ZM30.7247 14.1397L30.2347 14.2392L30.235 14.2406L30.7247 14.1397ZM25.2897 28.2638L24.9969 27.8585L24.9968 27.8585L25.2897 28.2638ZM25.2811 28.27L24.9883 27.8647L24.9841 27.8677L25.2811 28.27ZM25.2726 28.2762L24.9756 27.874L24.9756 27.874L25.2726 28.2762ZM14.6213 30.8428L14.5487 31.3375L14.5487 31.3375L14.6213 30.8428ZM14.6115 30.8414L14.6841 30.3467L14.6792 30.346L14.6115 30.8414ZM14.6018 30.8401L14.6695 30.3447L14.6694 30.3447L14.6018 30.8401ZM11.6782 30.0932L11.4994 30.5601L11.5041 30.5619L11.6782 30.0932ZM6.94476 26.916L7.33689 26.6058L7.33689 26.6058L6.94476 26.916ZM6.13273 25.6381L6.57725 25.4092L6.57725 25.4092L6.13273 25.6381ZM5.99263 25.3601L5.54502 25.5829L5.54503 25.5829L5.99263 25.3601ZM5.9859 25.3465L5.53715 25.5671L5.53829 25.5694L5.9859 25.3465ZM5.98582 25.3464L6.43458 25.1259L6.43344 25.1236L5.98582 25.3464ZM5.84985 25.0773L5.40602 25.3075L5.40634 25.3081L5.84985 25.0773ZM5.84154 25.0613L5.39756 25.2912L5.39771 25.2915L5.84154 25.0613ZM5.28699 24.2673L5.63896 23.9121L4.93293 24.6203L5.28699 24.2673ZM5.2887 24.2689L4.93674 24.6241L5.29028 24.9745L5.64226 24.6225L5.2887 24.2689ZM5.28717 24.2672L5.65624 23.9299L5.65623 23.9299L5.28717 24.2672ZM5.21793 24.1875L4.8352 24.5093L4.83521 24.5093L5.21793 24.1875ZM5.02288 23.9455L4.6292 24.2538L4.6292 24.2538L5.02288 23.9455ZM4.48267 23.2284L4.07954 23.5242L4.07954 23.5242L4.48267 23.2284ZM3.61631 22.0181L3.13146 22.1402L3.15396 22.2296L3.20682 22.305L3.61631 22.0181ZM3.10721 19.1602L2.61 19.213L2.61029 19.2156L3.10721 19.1602ZM3.60207 12.9222L3.12547 12.7709L3.12363 12.777L3.60207 12.9222ZM4.17866 11.4164L4.39156 10.964L3.9346 10.749L3.72414 11.208L4.17866 11.4164ZM4.17867 11.4164L3.96577 11.8688L4.42467 12.0848L4.63407 11.6229L4.17867 11.4164ZM4.18216 11.4087L3.72677 11.2023L3.72677 11.2023L4.18216 11.4087ZM8.73827 5.86935L8.42981 5.47583L8.42868 5.47672L8.73827 5.86935ZM14.1598 3.18005L14.0641 2.68929L14.0625 2.68959L14.1598 3.18005ZM20.7987 3.81884L20.953 3.34323L20.9524 3.34302L20.7987 3.81884ZM27.8359 8.20041L28.2134 7.87258L28.2114 7.87027L27.8359 8.20041ZM10.9723 31.9645L10.7938 32.4316L10.798 32.4331L10.9723 31.9645ZM4.1987 26.2443L4.64631 26.0215L4.64631 26.0215L4.1987 26.2443ZM14.3311 32.8217L14.4036 32.3269L14.3988 32.3263L14.3311 32.8217ZM26.4607 29.8851L26.168 29.4797L26.1637 29.4829L26.4607 29.8851ZM32.6848 13.7418L32.1948 13.8413L32.195 13.8426L32.6848 13.7418ZM29.3419 6.88444L29.7193 6.55644L29.7176 6.55447L29.3419 6.88444ZM21.4147 1.91604L21.5689 1.44043L21.5683 1.44024L21.4147 1.91604ZM13.7739 1.21761L13.6781 0.726877L13.6769 0.727125L13.7739 1.21761ZM7.50217 4.29706L7.19366 3.90359L7.19263 3.9044L7.50217 4.29706ZM2.36059 10.583L2.81511 10.7913L2.81599 10.7894L2.36059 10.583ZM1.69203 12.329L1.21533 12.1781L1.21372 12.1834L1.69203 12.329ZM1.11897 19.3769L0.621783 19.4298L0.62205 19.4322L1.11897 19.3769ZM1.77162 22.869L1.28903 22.9998L1.31154 23.0829L1.36052 23.1536L1.77162 22.869ZM3.87076 25.6794L4.22482 25.3264L4.22482 25.3264L3.87076 25.6794ZM21.4974 10.9296L21.8552 11.2788L21.8556 11.2784L21.4974 10.9296ZM23.2735 9.10876L23.631 9.45842L23.6361 9.453L23.2735 9.10876ZM21.496 10.931L21.1382 10.5818L21.1379 10.5821L21.496 10.931ZM19.7212 12.7505L20.0772 13.1016L20.0786 13.1001L19.7212 12.7505ZM19.3542 13.1202L19.7077 13.4738L19.7084 13.4731L19.3542 13.1202ZM19.3541 13.1203L19.0005 12.7667L18.9998 12.7675L19.3541 13.1203ZM18.2649 14.247L18.6209 14.5981L18.6279 14.591L18.6346 14.5836L18.2649 14.247ZM18.1435 14.3405L17.9293 13.8888L17.8495 13.9266L17.7875 13.9895L18.1435 14.3405ZM18.0973 14.3825L18.4174 14.7666L18.4223 14.7625L18.0973 14.3825ZM18.0973 14.3825L17.7772 13.9984L17.7723 14.0026L18.0973 14.3825ZM18.051 14.4245L17.695 14.0734L17.6728 14.096L17.6535 14.1212L18.051 14.4245ZM17.9379 14.549L17.5819 14.198L17.5714 14.2086L17.5616 14.2198L17.9379 14.549ZM17.9379 14.5491L18.2939 14.9001L18.3044 14.8895L18.3142 14.8783L17.9379 14.5491ZM16.6204 16.0605L16.2747 16.4218L16.6659 16.796L17.008 16.3764L16.6204 16.0605ZM16.0573 15.5219L16.4029 15.1606L16.4029 15.1605L16.0573 15.5219ZM11.7112 11.3239L11.3598 11.6797L11.3602 11.68L11.7112 11.3239ZM10.8304 10.4897L10.4905 10.8564L10.4905 10.8564L10.8304 10.4897ZM9.94965 9.65551L9.59558 10.0086L9.59831 10.0113L9.94965 9.65551ZM9.41581 9.65535L9.54215 10.1392L9.5476 10.1377L9.41581 9.65535ZM9.1167 10.399L9.46948 10.0446L9.46447 10.0398L9.1167 10.399ZM10.9145 12.1841L11.268 11.8305L11.2665 11.8291L10.9145 12.1841ZM10.9145 12.1841L10.5609 12.5376L10.5624 12.5391L10.9145 12.1841ZM12.7123 13.9692L13.0663 13.6161L13.065 13.6148L12.7123 13.9692ZM12.9507 14.2088L13.3054 13.8564L13.3054 13.8564L12.9507 14.2088ZM13.9233 15.1569L14.2773 14.8039L14.2709 14.7974L14.2643 14.7912L13.9233 15.1569ZM14.1204 15.5609L14.5829 15.3705L14.5775 15.3585L14.1204 15.5609ZM14.1204 15.561L13.6579 15.7514L13.6632 15.7635L14.1204 15.561ZM14.1713 15.6732L13.7326 15.9132L13.7669 15.9758L13.8172 16.0263L14.1713 15.6732ZM14.2857 15.788L13.9317 16.141L13.9317 16.141L14.2857 15.788ZM15.7798 17.0739L16.1579 17.401L16.4997 17.006L16.0901 16.6818L15.7798 17.0739ZM15.1476 17.7626L14.7915 17.4115L14.7915 17.4115L15.1476 17.7626ZM15.1586 17.9435L15.6429 17.8192L15.6429 17.8192L15.1586 17.9435ZM15.1687 18.1349L14.8127 17.7838L14.7508 17.8465L14.7141 17.9266L15.1687 18.1349ZM14.7216 18.411L14.473 17.9771L14.4644 17.9823L14.7216 18.411ZM14.7216 18.4111L14.9702 18.845L14.9788 18.8398L14.7216 18.4111ZM14.6304 18.4642L14.9308 18.8639L14.9604 18.8416L14.9864 18.8153L14.6304 18.4642ZM13.1009 19.7888L13.457 20.1399L13.4626 20.1341L13.1009 19.7888ZM12.9986 19.863L12.7844 19.4113L12.7046 19.4491L12.6426 19.5119L12.9986 19.863ZM12.6628 20.2134L13.0245 20.5587L13.0262 20.5568L12.6628 20.2134ZM12.6627 20.2135L12.3011 19.8683L12.2993 19.8701L12.6627 20.2135ZM12.3268 20.564L12.6828 20.9151L12.6828 20.9151L12.3268 20.564ZM12.3192 20.5717L11.9632 20.2206L11.9632 20.2207L12.3192 20.5717ZM12.2963 20.5949L11.9403 20.2438L11.8858 20.2991L11.8506 20.3683L12.2963 20.5949ZM12.1968 20.7253L12.5487 21.0806L12.5528 21.0764L12.1968 20.7253ZM10.7542 22.2007L11.1143 22.5477L11.1145 22.5474L10.7542 22.2007ZM10.7539 22.201L10.3939 21.8541L10.3937 21.8543L10.7539 22.201ZM9.72869 23.2578L10.0838 23.6098L10.0847 23.6088L9.72869 23.2578ZM9.67033 23.3166L10.0249 23.6692L10.0254 23.6687L9.67033 23.3166ZM9.31475 24.1992L8.81652 24.2413L8.8269 24.3643L8.89331 24.4683L9.31475 24.1992ZM10.273 24.4087L10.6114 24.7768L10.6135 24.7748L10.273 24.4087ZM16.745 17.847L17.0644 17.4623L16.7028 17.162L16.3807 17.5045L16.745 17.847ZM17.7801 18.8017L17.4157 19.1441L17.4765 19.2088L17.5559 19.2486L17.7801 18.8017ZM17.843 18.8381L17.4888 19.191L17.4916 19.1937L17.843 18.8381ZM18.7454 19.7386L19.0995 19.3855L19.0995 19.3855L18.7454 19.7386ZM19.6478 20.6391L20.0018 20.286L19.9992 20.2834L19.6478 20.6391ZM19.7222 20.7404L19.2747 20.9636L19.3109 21.0361L19.3681 21.0935L19.7222 20.7404ZM20.068 21.0783L20.418 20.7213L20.4151 20.7184L20.068 21.0783ZM20.0683 21.0786L19.7182 21.4357L19.7212 21.4385L20.0683 21.0786ZM20.4138 21.4162L20.0598 21.7693L20.0598 21.7693L20.4138 21.4162ZM20.4214 21.4239L20.7755 21.0708L20.7755 21.0708L20.4214 21.4239ZM20.4443 21.4468L20.0903 21.7999L20.1407 21.8505L20.2033 21.8849L20.4443 21.4468ZM20.5721 21.5482L20.93 21.199L20.9262 21.1952L20.5721 21.5482ZM23.3209 24.3227L23.675 23.9697L23.675 23.9697L23.3209 24.3227ZM23.9832 24.4695L24.2265 24.9063L24.2346 24.9018L24.2425 24.897L23.9832 24.4695ZM24.1469 23.5632L24.5164 23.2264L24.5146 23.2245L24.1469 23.5632ZM17.5688 16.9692L17.204 16.6273L16.8661 16.9878L17.2226 17.33L17.5688 16.9692ZM18.2747 16.2156L17.9211 15.862L17.9153 15.8678L17.9097 15.8738L18.2747 16.2156ZM18.2747 16.2156L18.6283 16.5691L18.6341 16.5633L18.6397 16.5573L18.2747 16.2156ZM22.4455 11.8088L22.0865 11.4607L22.0861 11.4611L22.4455 11.8088ZM24.171 10.0294L23.8892 9.61639L23.8474 9.64496L23.8121 9.68134L24.171 10.0294ZM24.2765 9.84375L24.7726 9.78128L24.7716 9.77405L24.7705 9.76685L24.2765 9.84375ZM31.2155 14.0441L31.2145 14.0388L30.235 14.2406L30.2361 14.2459L31.2155 14.0441ZM25.5824 28.6691C30.063 25.4327 32.34 19.5066 31.2156 14.0442L30.2361 14.2458C31.2823 19.3285 29.1536 24.856 24.9969 27.8585L25.5824 28.6691ZM25.5739 28.6753L25.5825 28.6691L24.9968 27.8585L24.9883 27.8647L25.5739 28.6753ZM25.5696 28.6785L25.5781 28.6722L24.9841 27.8677L24.9756 27.874L25.5696 28.6785ZM14.5487 31.3375C18.5025 31.9173 22.526 30.9261 25.5697 28.6784L24.9756 27.874C22.1526 29.9588 18.3968 30.8911 14.6938 30.3481L14.5487 31.3375ZM14.539 31.3361L14.5487 31.3375L14.6938 30.3481L14.6841 30.3467L14.539 31.3361ZM14.5341 31.3355L14.5438 31.3368L14.6792 30.346L14.6695 30.3447L14.5341 31.3355ZM11.5041 30.5619C12.4775 30.9234 13.4973 31.1938 14.5341 31.3355L14.6694 30.3447C13.7138 30.2141 12.7654 29.9636 11.8522 29.6245L11.5041 30.5619ZM6.55264 27.2262C7.34477 28.2275 8.76694 29.5139 11.4994 30.5601L11.8569 29.6262C9.28452 28.6413 8.01247 27.4597 7.33689 26.6058L6.55264 27.2262ZM5.68821 25.867C5.88661 26.2523 6.14978 26.717 6.55264 27.2262L7.33689 26.6058C6.98822 26.1651 6.75867 25.7615 6.57725 25.4092L5.68821 25.867ZM5.54503 25.5829C5.59123 25.6757 5.63746 25.7684 5.68821 25.867L6.57725 25.4092C6.53001 25.3174 6.48657 25.2303 6.44024 25.1373L5.54503 25.5829ZM5.53829 25.5694L5.54502 25.5829L6.44024 25.1373L6.43351 25.1237L5.53829 25.5694ZM5.53707 25.5669L5.53715 25.5671L6.43465 25.126L6.43457 25.1259L5.53707 25.5669ZM5.40634 25.3081C5.45012 25.3922 5.49595 25.4843 5.5382 25.5692L6.43344 25.1236C6.39194 25.0402 6.34204 24.9399 6.29337 24.8464L5.40634 25.3081ZM5.39771 25.2915L5.40602 25.3075L6.29368 24.847L6.28537 24.831L5.39771 25.2915ZM4.93293 24.6203C5.17189 24.8599 5.33082 25.1624 5.39756 25.2912L6.28552 24.8313C6.21657 24.6982 5.99844 24.2726 5.64105 23.9142L4.93293 24.6203ZM5.64067 23.9138L5.63896 23.9121L4.93503 24.6224L4.93674 24.6241L5.64067 23.9138ZM4.91811 24.6046C4.91905 24.6056 4.91829 24.6048 4.91738 24.6038C4.9173 24.6037 4.91467 24.6008 4.91139 24.597C4.91052 24.596 4.90491 24.5896 4.89814 24.5811C4.89615 24.5786 4.88546 24.5654 4.87339 24.5474C4.86938 24.5414 4.85146 24.5149 4.83443 24.4778C4.8273 24.4623 4.80612 24.4153 4.79542 24.3506C4.78892 24.3114 4.75617 24.0944 4.93515 23.9154L5.64226 24.6225C5.82124 24.4435 5.78848 24.2265 5.78199 24.1873C5.77129 24.1226 5.7501 24.0756 5.74298 24.0601C5.72595 24.023 5.70802 23.9965 5.704 23.9905C5.69193 23.9725 5.68123 23.9592 5.67922 23.9567C5.67243 23.9482 5.66677 23.9417 5.66584 23.9407C5.66244 23.9367 5.65962 23.9336 5.65928 23.9333C5.65786 23.9317 5.65633 23.93 5.65624 23.9299L4.91811 24.6046ZM4.83521 24.5093C4.88165 24.5645 4.90835 24.5939 4.91811 24.6046L5.65623 23.9299C5.6545 23.928 5.63706 23.9091 5.60065 23.8658L4.83521 24.5093ZM4.6292 24.2538C4.7095 24.3563 4.77859 24.4419 4.8352 24.5093L5.60065 23.8658C5.55386 23.8101 5.49242 23.7342 5.41657 23.6373L4.6292 24.2538ZM4.07954 23.5242C4.27881 23.7958 4.46856 24.0486 4.6292 24.2538L5.41657 23.6373C5.26488 23.4435 5.08193 23.1999 4.88581 22.9326L4.07954 23.5242ZM3.20682 22.305C3.4552 22.6595 3.77269 23.1059 4.07954 23.5242L4.88581 22.9326C4.58444 22.5218 4.27133 22.0816 4.0258 21.7312L3.20682 22.305ZM2.61029 19.2156C2.7181 20.1814 2.88529 21.1629 3.13146 22.1402L4.10117 21.896C3.86747 20.9682 3.70761 20.0318 3.60412 19.1047L2.61029 19.2156ZM3.12363 12.777C2.54065 14.697 2.35893 16.8512 2.61001 19.213L3.60441 19.1073C3.36547 16.8597 3.54167 14.8422 4.0805 13.0675L3.12363 12.777ZM3.72414 11.208C3.49934 11.6984 3.29921 12.2238 3.12551 12.7709L4.07862 13.0736C4.24135 12.561 4.42717 12.0741 4.63317 11.6248L3.72414 11.208ZM4.39157 10.964L4.39156 10.964L3.96576 11.8688L3.96577 11.8688L4.39157 10.964ZM3.72677 11.2023L3.72328 11.21L4.63407 11.6229L4.63756 11.6152L3.72677 11.2023ZM8.42868 5.47672C6.22555 7.21393 4.66032 9.14295 3.72677 11.2023L4.63755 11.6152C5.49333 9.7274 6.94589 7.91942 9.04786 6.26197L8.42868 5.47672ZM14.0625 2.68959C12.2602 3.04682 10.3727 3.95295 8.42981 5.47583L9.04672 6.26286C10.8957 4.81357 12.642 3.9906 14.257 3.67051L14.0625 2.68959ZM20.9524 3.34302C18.3279 2.49562 16.0298 2.30606 14.0641 2.68929L14.2554 3.67081C16.0149 3.32778 18.1376 3.48503 20.6451 4.29465L20.9524 3.34302ZM28.2114 7.87027C26.5073 5.93196 24.016 4.33682 20.953 3.34323L20.6444 4.29444C23.565 5.24184 25.8933 6.7481 27.4604 8.53055L28.2114 7.87027ZM31.2147 14.0402C30.7399 11.7014 29.6923 9.57573 28.2134 7.87258L27.4583 8.52824C28.821 10.0975 29.7933 12.0647 30.2347 14.2392L31.2147 14.0402ZM11.1509 31.4975C8.78946 30.5947 7.30863 29.5034 6.35066 28.5116C5.39294 27.5201 4.93923 26.6099 4.64631 26.0215L3.75109 26.4671C4.05519 27.078 4.5638 28.1011 5.6314 29.2063C6.69874 30.3114 8.30622 31.4805 10.7938 32.4315L11.1509 31.4975ZM14.3988 32.3263C13.2774 32.1731 12.183 31.8815 11.1467 31.4959L10.798 32.4331C11.8947 32.8412 13.0607 33.1528 14.2634 33.3171L14.3988 32.3263ZM26.1637 29.4829C22.8994 31.8935 18.608 32.9435 14.4036 32.327L14.2585 33.3164C18.7136 33.9697 23.2728 32.8609 26.7578 30.2873L26.1637 29.4829ZM32.195 13.8426C33.3976 19.6847 30.9725 26.0093 26.168 29.4798L26.7535 30.2904C31.8819 26.586 34.4552 19.8627 33.1745 13.641L32.195 13.8426ZM28.9646 7.21243C30.5618 9.05026 31.6861 11.3361 32.1948 13.8413L33.1748 13.6423C32.6328 10.9727 31.433 8.52825 29.7193 6.55645L28.9646 7.21243ZM21.2604 2.39165C24.4684 3.43208 27.1247 5.11783 28.9663 7.21441L29.7176 6.55447C27.7388 4.30172 24.9193 2.52705 21.5689 1.44043L21.2604 2.39165ZM13.8698 1.70834C16.0428 1.28404 18.5179 1.50594 21.261 2.39185L21.5683 1.44024C18.7083 0.516569 16.0576 0.262268 13.6781 0.726878L13.8698 1.70834ZM7.81068 4.69054C9.84904 3.09237 11.8795 2.10224 13.871 1.7081L13.6769 0.727125C11.4978 1.1584 9.32587 2.23183 7.19367 3.90359L7.81068 4.69054ZM2.81599 10.7894C3.82767 8.55771 5.50638 6.50706 7.81171 4.68973L7.19263 3.9044C4.78618 5.80145 2.99472 7.97315 1.9052 10.3765L2.81599 10.7894ZM2.1687 12.48C2.35421 11.8942 2.56988 11.3262 2.81511 10.7913L1.90608 10.3746C1.64192 10.9508 1.41188 11.5575 1.21536 12.1781L2.1687 12.48ZM1.61616 19.3239C1.35165 16.8413 1.5399 14.5447 2.17034 12.4747L1.21372 12.1834C0.538866 14.3992 0.345085 16.8329 0.621789 19.4298L1.61616 19.3239ZM2.25421 22.7382C1.94351 21.5918 1.74084 20.4428 1.6159 19.3215L0.62205 19.4322C0.751799 20.5967 0.963008 21.7969 1.28903 22.9998L2.25421 22.7382ZM4.22482 25.3264C4.05648 25.1576 3.689 24.6823 3.27327 24.1157C2.86859 23.5641 2.44697 22.9661 2.18272 22.5844L1.36052 23.1536C1.62858 23.5408 2.05563 24.1466 2.467 24.7073C2.86732 25.2529 3.28327 25.7984 3.51671 26.0325L4.22482 25.3264ZM4.64631 26.0215C4.57996 25.8882 4.51543 25.7583 4.45503 25.6503C4.39848 25.5491 4.32303 25.4249 4.22482 25.3264L3.51671 26.0325C3.51186 26.0276 3.53222 26.0489 3.58221 26.1383C3.62835 26.2208 3.68111 26.3265 3.75109 26.4671L4.64631 26.0215ZM21.8556 11.2784C22.4469 10.6714 23.0379 10.0647 23.631 9.45838L22.9161 8.75914C22.3222 9.36633 21.7305 9.97371 21.1393 10.5807L21.8556 11.2784ZM21.8538 11.2802L21.8552 11.2788L21.1396 10.5803L21.1382 10.5818L21.8538 11.2802ZM20.0786 13.1001C20.6721 12.4934 21.2633 11.8864 21.8542 11.2799L21.1379 10.5821C20.5469 11.1887 19.9564 11.795 19.3637 12.4009L20.0786 13.1001ZM19.7084 13.4731C19.831 13.35 19.9544 13.2261 20.0772 13.1016L19.3652 12.3994C19.2444 12.5219 19.1227 12.6441 18.9999 12.7674L19.7084 13.4731ZM19.7077 13.4738L19.7077 13.4738L19.0006 12.7667L19.0005 12.7667L19.7077 13.4738ZM18.6346 14.5836C18.9767 14.2078 19.3384 13.8446 19.7084 13.4731L18.9998 12.7675C18.6326 13.1362 18.2549 13.5153 17.8952 13.9104L18.6346 14.5836ZM18.3578 14.7923C18.4677 14.7402 18.5541 14.6658 18.6209 14.5981L17.9089 13.8959C17.898 13.907 17.8939 13.9099 17.896 13.9083C17.8983 13.9065 17.9095 13.8981 17.9293 13.8888L18.3578 14.7923ZM18.4223 14.7625C18.4359 14.7508 18.4672 14.7244 18.4996 14.6916L17.7875 13.9895C17.7892 13.9878 17.7895 13.9876 17.7871 13.9897C17.786 13.9907 17.7843 13.9922 17.7818 13.9944C17.7791 13.9967 17.7763 13.9991 17.7723 14.0025L18.4223 14.7625ZM18.4174 14.7666L18.4174 14.7666L17.7772 13.9984L17.7772 13.9984L18.4174 14.7666ZM18.4071 14.7755C18.4054 14.7772 18.4051 14.7774 18.4074 14.7753C18.4086 14.7743 18.4103 14.7728 18.4128 14.7706C18.4154 14.7683 18.4182 14.7659 18.4223 14.7625L17.7723 14.0026C17.7587 14.0142 17.7274 14.0406 17.695 14.0734L18.4071 14.7755ZM18.2939 14.9001C18.3317 14.8619 18.3928 14.8008 18.4486 14.7278L17.6535 14.1212C17.6429 14.1351 17.6279 14.1513 17.5819 14.198L18.2939 14.9001ZM18.3142 14.8783L18.3142 14.8783L17.5616 14.2198L17.5616 14.2198L18.3142 14.8783ZM17.008 16.3764C17.4323 15.8557 17.8444 15.356 18.2939 14.9001L17.5819 14.198C17.0948 14.6919 16.6552 15.2263 16.2328 15.7446L17.008 16.3764ZM15.7117 15.8832L16.2747 16.4218L16.966 15.6992L16.4029 15.1606L15.7117 15.8832ZM11.3602 11.68C12.7676 13.0673 14.2418 14.4772 15.7117 15.8832L16.4029 15.1605C14.9319 13.7536 13.4633 12.3489 12.0622 10.9678L11.3602 11.68ZM10.4905 10.8564C10.7857 11.1301 11.0742 11.3977 11.3598 11.6797L12.0625 10.9682C11.7639 10.6733 11.4638 10.3951 11.1703 10.1231L10.4905 10.8564ZM9.59831 10.0113C9.89694 10.3062 10.197 10.5843 10.4905 10.8564L11.1703 10.1231C10.8752 9.84939 10.5866 9.5818 10.301 9.29975L9.59831 10.0113ZM9.5476 10.1377C9.70781 10.0939 9.76401 10.1068 9.75274 10.1048C9.74624 10.1036 9.72507 10.0988 9.69491 10.0832C9.68011 10.0755 9.66396 10.0656 9.64699 10.0531C9.63855 10.0469 9.63 10.04 9.62139 10.0326C9.61709 10.0289 9.61279 10.025 9.60848 10.021C9.60633 10.019 9.60418 10.017 9.60203 10.0149C9.60096 10.0139 9.59989 10.0128 9.59881 10.0118C9.59828 10.0112 9.59774 10.0107 9.5972 10.0102C9.59693 10.0099 9.59653 10.0095 9.5964 10.0094C9.596 10.009 9.59559 10.0086 9.94965 9.65551C10.3037 9.30246 10.3033 9.30206 10.3029 9.30165C10.3028 9.30152 10.3024 9.30111 10.3021 9.30084C10.3015 9.3003 10.301 9.29976 10.3004 9.29922C10.2993 9.29813 10.2982 9.29705 10.2971 9.29595C10.2948 9.29377 10.2925 9.29156 10.2901 9.28934C10.2854 9.28491 10.2804 9.28042 10.2751 9.27589C10.2646 9.26683 10.2532 9.25766 10.2408 9.24851C10.216 9.23016 10.1876 9.21222 10.1555 9.19557C10.0908 9.16198 10.0148 9.13565 9.92728 9.12013C9.75394 9.0894 9.54323 9.10221 9.28403 9.17303L9.5476 10.1377ZM9.46447 10.0398C9.48682 10.0614 9.50875 10.093 9.52244 10.1321C9.53554 10.1696 9.53652 10.2006 9.53526 10.2184C9.53408 10.235 9.53096 10.2413 9.53298 10.2357C9.53487 10.2306 9.53961 10.2197 9.54901 10.204C9.56883 10.1708 9.59693 10.1368 9.62212 10.1127C9.63439 10.101 9.64022 10.0971 9.63763 10.0989C9.63617 10.0999 9.62911 10.1047 9.61674 10.1111C9.60591 10.1167 9.58007 10.1292 9.54214 10.1391L9.28948 9.17157C9.18991 9.19757 9.11242 9.24642 9.07028 9.27545C9.01999 9.31009 8.97292 9.3499 8.93085 9.39015C8.84736 9.47002 8.76102 9.57326 8.6908 9.69067C8.62321 9.80369 8.55084 9.96269 8.53775 10.1479C8.52332 10.352 8.58397 10.5792 8.76894 10.7583L9.46447 10.0398ZM11.2665 11.8291C10.6672 11.2347 10.0682 10.6407 9.46944 10.0447L8.76396 10.7534C9.3635 11.3502 9.96313 11.9448 10.5624 12.5391L11.2665 11.8291ZM11.268 11.8305L11.268 11.8305L10.5609 12.5376L10.5609 12.5376L11.268 11.8305ZM13.065 13.6148C12.4655 13.018 11.8658 12.4234 11.2665 11.8291L10.5624 12.5391C11.1618 13.1335 11.7608 13.7275 12.3595 14.3236L13.065 13.6148ZM13.3054 13.8564C13.2324 13.783 13.1537 13.7038 13.0663 13.6161L12.3582 14.3222C12.4449 14.4092 12.523 14.4878 12.596 14.5612L13.3054 13.8564ZM14.2643 14.7912C13.8556 14.4102 13.6405 14.1937 13.3054 13.8564L12.596 14.5612C12.9334 14.9009 13.1593 15.1283 13.5823 15.5226L14.2643 14.7912ZM14.5775 15.3585C14.5465 15.2883 14.5029 15.1898 14.4626 15.1044C14.4427 15.0621 14.4209 15.0175 14.4002 14.9785C14.3899 14.9593 14.3772 14.9364 14.363 14.9135C14.3545 14.8998 14.3243 14.851 14.2773 14.8039L13.5692 15.51C13.5458 15.4864 13.5309 15.4664 13.5258 15.4593C13.5193 15.4503 13.5152 15.444 13.5141 15.4421C13.5119 15.4386 13.5129 15.44 13.5178 15.449C13.5271 15.4666 13.5408 15.4942 13.5581 15.5309C13.5924 15.6037 13.6311 15.6909 13.6632 15.7634L14.5775 15.3585ZM14.5827 15.3706L14.5827 15.3706L13.658 15.7513L13.6581 15.7514L14.5827 15.3706ZM14.6099 15.4333C14.6144 15.4414 14.6172 15.4471 14.6173 15.4474C14.6179 15.4486 14.6179 15.4486 14.6171 15.447C14.6156 15.4436 14.6129 15.4379 14.6089 15.429C14.601 15.4113 14.5905 15.3877 14.5776 15.3585L13.6632 15.7635C13.6806 15.8028 13.7132 15.8777 13.7326 15.9132L14.6099 15.4333ZM14.6398 15.4349L14.5254 15.3202L13.8172 16.0263L13.9317 16.141L14.6398 15.4349ZM16.0901 16.6818C15.5639 16.2654 15.0673 15.8637 14.6398 15.4349L13.9317 16.141C14.4056 16.6163 14.9451 17.0509 15.4695 17.466L16.0901 16.6818ZM15.5036 18.1136C15.7319 17.8821 15.9488 17.6428 16.1579 17.401L15.4016 16.7468C15.2024 16.9771 15.0005 17.1996 14.7915 17.4115L15.5036 18.1136ZM15.6429 17.8192C15.6304 17.7706 15.6307 17.768 15.6317 17.776C15.6323 17.7816 15.6366 17.8161 15.6292 17.8654C15.622 17.9145 15.5969 18.019 15.5036 18.1136L14.7915 17.4115C14.6841 17.5204 14.651 17.6451 14.6401 17.7187C14.6291 17.7926 14.6342 17.8562 14.6386 17.8938C14.6472 17.966 14.667 18.0395 14.6743 18.0678L15.6429 17.8192ZM15.5247 18.486C15.63 18.3792 15.6648 18.2571 15.6769 18.1812C15.6888 18.1058 15.6842 18.0405 15.6797 18.0009C15.6711 17.9253 15.6504 17.8487 15.6429 17.8192L14.6743 18.0678C14.6871 18.1177 14.6869 18.121 14.6861 18.1134C14.6854 18.1079 14.6814 18.0736 14.6892 18.0246C14.697 17.9751 14.7229 17.8749 14.8127 17.7838L15.5247 18.486ZM14.9702 18.8449C15.0444 18.8024 15.1576 18.7375 15.2542 18.6796C15.3018 18.651 15.351 18.6207 15.3915 18.5938C15.4108 18.581 15.4357 18.5639 15.4596 18.5452C15.4711 18.5363 15.4901 18.521 15.5106 18.5011C15.5177 18.4943 15.5804 18.4367 15.6233 18.3431L14.7141 17.9266C14.7387 17.873 14.7672 17.8365 14.7799 17.821C14.795 17.8025 14.8083 17.7892 14.8159 17.7819C14.8308 17.7675 14.8423 17.7586 14.8445 17.7568C14.8499 17.7526 14.8494 17.7534 14.838 17.761C14.8169 17.775 14.7834 17.7959 14.7395 17.8222C14.6533 17.874 14.5492 17.9336 14.4731 17.9772L14.9702 18.8449ZM14.9788 18.8398L14.9789 18.8398L14.4644 17.9823L14.4643 17.9823L14.9788 18.8398ZM14.9864 18.8153C14.9793 18.8225 14.973 18.8284 14.968 18.8331C14.9629 18.8377 14.9583 18.8417 14.9545 18.8449C14.9471 18.8512 14.9408 18.8562 14.9364 18.8596C14.9278 18.8663 14.9208 18.8712 14.917 18.8738C14.9095 18.8791 14.9036 18.8828 14.9017 18.8841C14.8972 18.8869 14.8944 18.8886 14.8954 18.888C14.8965 18.8873 14.9002 18.8852 14.9077 18.8808C14.9222 18.8724 14.9432 18.8604 14.9701 18.8449L14.4731 17.9772C14.4471 17.9921 14.4234 18.0056 14.4061 18.0157C14.3977 18.0206 14.3886 18.0258 14.3807 18.0306C14.3772 18.0327 14.3708 18.0366 14.3638 18.0411C14.3606 18.0431 14.3537 18.0476 14.3453 18.0534C14.3412 18.0562 14.3339 18.0614 14.325 18.0683C14.3194 18.0726 14.2983 18.0889 14.2744 18.1131L14.9864 18.8153ZM13.4626 20.1341C14.0229 19.5471 14.2644 19.3647 14.9308 18.8639L14.33 18.0645C13.6469 18.5779 13.3551 18.7984 12.7393 19.4436L13.4626 20.1341ZM13.2129 20.3148C13.306 20.2706 13.3848 20.2131 13.457 20.1399L12.7449 19.4377C12.7446 19.438 12.7493 19.4333 12.7585 19.4267C12.768 19.4198 12.7774 19.4146 12.7844 19.4113L13.2129 20.3148ZM13.0262 20.5568C13.1377 20.4389 13.2448 20.3255 13.3547 20.2141L12.6426 19.5119C12.524 19.6322 12.4096 19.7534 12.2993 19.8701L13.0262 20.5568ZM13.0244 20.5587L13.0245 20.5587L12.3011 19.8682L12.3011 19.8683L13.0244 20.5587ZM12.6828 20.9151C12.8015 20.7948 12.9159 20.6736 13.0262 20.5569L12.2993 19.8701C12.1879 19.9881 12.0807 20.1015 11.9708 20.2129L12.6828 20.9151ZM12.6752 20.9228L12.6828 20.9151L11.9708 20.2129L11.9632 20.2206L12.6752 20.9228ZM12.6524 20.946L12.6752 20.9228L11.9632 20.2207L11.9403 20.2438L12.6524 20.946ZM12.5528 21.0764C12.6206 21.0077 12.6905 20.923 12.7421 20.8215L11.8506 20.3683C11.8564 20.357 11.8602 20.3524 11.8585 20.3547C11.8568 20.3569 11.8515 20.3634 11.8408 20.3743L12.5528 21.0764ZM11.1145 22.5474C11.5924 22.0508 12.0658 21.5589 12.5487 21.0806L11.845 20.3701C11.3521 20.8583 10.8705 21.3588 10.3939 21.854L11.1145 22.5474ZM11.114 22.548L11.1143 22.5477L10.3942 21.8538L10.3939 21.8541L11.114 22.548ZM10.0847 23.6088C10.4313 23.2574 10.7739 22.9013 11.1142 22.5477L10.3937 21.8543C10.0527 22.2086 9.71428 22.5603 9.37267 22.9067L10.0847 23.6088ZM10.0254 23.6687L10.0838 23.6098L9.37361 22.9058L9.31525 22.9646L10.0254 23.6687ZM9.81298 24.1572C9.79602 23.9562 9.82021 23.9064 9.82578 23.8947C9.8414 23.8618 9.87062 23.8244 10.0249 23.6692L9.31575 22.9641C9.19503 23.0855 9.02604 23.2475 8.92242 23.4658C8.80874 23.7052 8.79264 23.9584 8.81652 24.2413L9.81298 24.1572ZM9.9346 24.0406C9.87891 24.0918 9.8661 24.0782 9.892 24.0776C9.90786 24.0772 9.90202 24.0834 9.86909 24.0623C9.83585 24.041 9.80032 24.0076 9.76963 23.9721C9.75548 23.9557 9.74492 23.9419 9.73872 23.9334C9.73568 23.9292 9.73387 23.9266 9.73339 23.9259C9.73315 23.9255 9.73325 23.9257 9.73371 23.9264C9.73394 23.9267 9.73426 23.9272 9.73467 23.9278C9.73488 23.9281 9.73511 23.9285 9.73536 23.9289C9.73549 23.9291 9.73562 23.9293 9.73575 23.9295C9.73582 23.9296 9.73593 23.9298 9.73597 23.9298C9.73607 23.93 9.73619 23.9302 9.31475 24.1992C8.89331 24.4683 8.89342 24.4685 8.89354 24.4687C8.89358 24.4687 8.8937 24.4689 8.89378 24.469C8.89394 24.4693 8.89412 24.4696 8.89429 24.4698C8.89465 24.4704 8.89504 24.471 8.89546 24.4716C8.8963 24.4729 8.89726 24.4744 8.89833 24.476C8.90048 24.4793 8.90311 24.4832 8.90622 24.4878C8.91241 24.4969 8.92053 24.5086 8.9305 24.5223C8.95032 24.5495 8.97809 24.5856 9.01318 24.6262C9.08098 24.7046 9.18759 24.8131 9.32896 24.9039C9.47065 24.9948 9.6719 25.0832 9.91614 25.0773C10.1704 25.0712 10.4073 24.9644 10.6114 24.7767L9.9346 24.0406ZM16.3807 17.5045C14.1728 19.8524 11.9967 22.1226 9.93247 24.0425L10.6135 24.7748C12.7045 22.83 14.9006 20.5382 17.1092 18.1895L16.3807 17.5045ZM18.1444 18.4593C17.81 18.1035 17.4402 17.7744 17.0644 17.4623L16.4255 18.2316C16.7856 18.5307 17.1208 18.8303 17.4157 19.1441L18.1444 18.4593ZM18.1972 18.4851C18.1699 18.4578 18.1451 18.4394 18.1392 18.4351C18.1288 18.4273 18.1197 18.4211 18.1134 18.4169C18.1005 18.4083 18.0881 18.4007 18.0776 18.3945C18.056 18.3818 18.0311 18.3683 18.0043 18.3548L17.5559 19.2486C17.56 19.2507 17.5634 19.2525 17.5659 19.2538C17.5685 19.2552 17.5696 19.2559 17.5694 19.2558C17.5692 19.2557 17.5684 19.2552 17.567 19.2543C17.5657 19.2536 17.5632 19.252 17.5598 19.2497C17.5568 19.2477 17.5504 19.2434 17.5421 19.2372C17.5379 19.2341 17.5316 19.2292 17.5239 19.223C17.5173 19.2175 17.5042 19.2064 17.4888 19.191L18.1972 18.4851ZM19.0995 19.3855C18.7993 19.0845 18.4976 18.782 18.1944 18.4824L17.4916 19.1937C17.7917 19.4903 18.0908 19.7902 18.3914 20.0916L19.0995 19.3855ZM19.9992 20.2834C19.6991 19.9869 19.4001 19.687 19.0995 19.3855L18.3914 20.0916C18.6915 20.3926 18.9932 20.6952 19.2964 20.9947L19.9992 20.2834ZM20.1696 20.5173C20.1259 20.4297 20.0709 20.3553 20.0018 20.286L19.2937 20.9921C19.2954 20.9938 19.2922 20.9908 19.2871 20.9838C19.2817 20.9763 19.2774 20.969 19.2747 20.9636L20.1696 20.5173ZM20.4151 20.7184C20.2988 20.6063 20.1866 20.4981 20.0762 20.3874L19.3681 21.0935C19.4866 21.2123 19.6058 21.3272 19.7209 21.4383L20.4151 20.7184ZM20.4183 20.7216L20.418 20.7213L19.718 21.4354L19.7183 21.4357L20.4183 20.7216ZM20.7679 21.0632C20.6495 20.9445 20.5304 20.8296 20.4154 20.7187L19.7212 21.4385C19.8374 21.5506 19.9495 21.6587 20.0598 21.7693L20.7679 21.0632ZM20.7755 21.0708L20.7679 21.0632L20.0598 21.7693L20.0674 21.7769L20.7755 21.0708ZM20.7984 21.0938L20.7755 21.0708L20.0674 21.7769L20.0903 21.7999L20.7984 21.0938ZM20.9262 21.1952C20.8603 21.1291 20.7801 21.0609 20.6854 21.0088L20.2033 21.8849C20.1941 21.8798 20.1913 21.8771 20.1951 21.8801C20.1986 21.883 20.2063 21.8895 20.218 21.9012L20.9262 21.1952ZM23.675 23.9697C22.8467 23.139 21.7465 22.0356 20.9299 21.199L20.2143 21.8974C21.0353 22.7387 22.1398 23.8463 22.9669 24.6758L23.675 23.9697ZM23.7399 24.0327C23.7067 24.0512 23.6832 24.0639 23.6643 24.0734C23.6553 24.0779 23.6487 24.081 23.6441 24.0831C23.6394 24.0851 23.6376 24.0858 23.638 24.0856C23.6386 24.0854 23.6516 24.0807 23.6737 24.0779C23.6974 24.0749 23.7252 24.0749 23.7544 24.08C23.8118 24.0901 23.836 24.1132 23.8146 24.0975C23.8047 24.0903 23.7885 24.0773 23.7641 24.0553C23.7399 24.0335 23.7108 24.0056 23.675 23.9697L22.9669 24.6758C23.0504 24.7596 23.1364 24.8404 23.2241 24.9046C23.3137 24.9701 23.4321 25.0387 23.5812 25.0649C23.8793 25.1173 24.1284 24.9609 24.2265 24.9063L23.7399 24.0327ZM23.7774 23.9001C23.8352 23.9636 23.8237 23.9815 23.8221 23.9553C23.8207 23.9339 23.8294 23.9288 23.8176 23.9479C23.8043 23.9693 23.7806 23.9953 23.7521 24.0195C23.7392 24.0304 23.7285 24.0383 23.7223 24.0427C23.7193 24.0448 23.7176 24.0459 23.7177 24.0458C23.7178 24.0458 23.7183 24.0454 23.7193 24.0448C23.7198 24.0445 23.7204 24.0441 23.7211 24.0437C23.7215 24.0434 23.7219 24.0432 23.7224 24.0429C23.7226 24.0428 23.7228 24.0426 23.7231 24.0425C23.7232 24.0424 23.7234 24.0423 23.7234 24.0423C23.7236 24.0421 23.7238 24.042 23.9832 24.4695C24.2425 24.897 24.2427 24.8968 24.2429 24.8967C24.243 24.8967 24.2432 24.8966 24.2433 24.8965C24.2436 24.8963 24.2439 24.8961 24.2442 24.8959C24.2448 24.8956 24.2454 24.8952 24.2461 24.8948C24.2475 24.8939 24.249 24.893 24.2507 24.8919C24.2541 24.8898 24.2581 24.8872 24.2627 24.8842C24.2719 24.8783 24.2835 24.8705 24.297 24.861C24.3238 24.8422 24.3591 24.8159 24.3986 24.7824C24.4748 24.7178 24.5808 24.6147 24.6677 24.4745C24.7559 24.332 24.8352 24.1328 24.8201 23.8928C24.8048 23.648 24.6953 23.4227 24.5164 23.2264L23.7774 23.9001ZM17.2226 17.33C19.5719 19.5848 21.8489 21.8068 23.7791 23.902L24.5146 23.2245C22.5615 21.1045 20.2648 18.8637 17.915 16.6085L17.2226 17.33ZM17.9097 15.8738C17.6743 16.1252 17.4391 16.3765 17.204 16.6273L17.9336 17.3111C18.1689 17.0601 18.4043 16.8087 18.6397 16.5573L17.9097 15.8738ZM17.9212 15.862L17.9211 15.862L18.6282 16.5691L18.6283 16.5691L17.9212 15.862ZM22.0861 11.4611C20.7061 12.8873 19.3058 14.3829 17.9097 15.8738L18.6397 16.5573C20.0368 15.0652 21.4315 13.5758 22.8048 12.1565L22.0861 11.4611ZM23.8121 9.68134L22.0865 11.4607L22.8044 12.1569L24.53 10.3775L23.8121 9.68134ZM23.7804 9.90622C23.7611 9.75282 23.8403 9.66091 23.8459 9.65416C23.8548 9.64357 23.8622 9.63701 23.8666 9.63324C23.8693 9.63097 23.8723 9.6286 23.8758 9.62598C23.8775 9.62465 23.8795 9.62321 23.8817 9.62163C23.8828 9.62084 23.884 9.62001 23.8853 9.61913C23.8859 9.6187 23.8865 9.61825 23.8872 9.6178C23.8875 9.61757 23.8879 9.61734 23.8882 9.6171C23.8884 9.61698 23.8885 9.61687 23.8887 9.61675C23.8888 9.61669 23.8889 9.6166 23.889 9.61657C23.8891 9.61648 23.8892 9.61639 24.171 10.0294C24.4528 10.4425 24.4529 10.4424 24.4531 10.4423C24.4531 10.4423 24.4532 10.4422 24.4533 10.4421C24.4535 10.442 24.4537 10.4418 24.4539 10.4417C24.4543 10.4415 24.4546 10.4412 24.455 10.4409C24.4558 10.4404 24.4566 10.4398 24.4575 10.4392C24.4592 10.4381 24.461 10.4368 24.463 10.4354C24.4669 10.4325 24.4714 10.4293 24.4764 10.4255C24.4863 10.4181 24.4985 10.4085 24.5121 10.3971C24.5384 10.3748 24.5745 10.3415 24.6115 10.2976C24.6731 10.2242 24.8051 10.0394 24.7726 9.78128L23.7804 9.90622ZM23.6361 9.453C23.5683 9.52451 23.4786 9.55576 23.4056 9.5584C23.3479 9.56049 23.3197 9.54469 23.3331 9.55054C23.3619 9.56306 23.4291 9.60617 23.5225 9.69175C23.6092 9.77127 23.6921 9.86302 23.7521 9.9395C23.7822 9.97792 23.8017 10.0063 23.8116 10.0223C23.8166 10.0305 23.8156 10.0297 23.8118 10.0216C23.8113 10.0205 23.7919 9.98161 23.7824 9.92065L24.7705 9.76685C24.7582 9.68782 24.7305 9.62537 24.7167 9.59599C24.6996 9.55956 24.6804 9.52594 24.6628 9.49745C24.6274 9.4401 24.5842 9.38009 24.5388 9.32224C24.4478 9.20617 24.3282 9.07378 24.1983 8.95466C24.075 8.84162 23.9114 8.7116 23.7321 8.6336C23.5718 8.56382 23.199 8.46097 22.9109 8.76452L23.6361 9.453Z" fill="#7D4C23"/>
</svg>
