<svg width="33" height="32" viewBox="0 0 33 32" fill="none" xmlns="http://www.w3.org/2000/svg">
<path d="M32.5612 12.6491C32.0383 10.0806 30.8814 7.73261 29.2332 5.84165C27.3315 3.6828 24.6057 1.96517 21.3411 0.909383C18.5519 0.0111747 16.0005 -0.225196 13.7343 0.216029C11.6582 0.625738 9.56635 1.65001 7.49031 3.27309C5.14487 5.11678 3.41748 7.2126 2.37154 9.51327C2.11798 10.0648 1.89611 10.6479 1.70594 11.2467C1.05619 13.374 0.866014 15.7219 1.13542 18.2432C1.2622 19.3778 1.46822 20.5439 1.78518 21.71C1.94365 22.2773 2.10213 22.8446 2.2923 23.3804C2.33984 23.5379 2.40323 23.6798 2.45078 23.7901L2.46662 23.8058C2.56171 24.0107 2.56171 24.0107 2.54586 24.1052C2.51417 24.2628 2.48247 24.4204 2.46662 24.578L2.45078 24.6252C2.41908 24.7828 2.40323 24.9246 2.37154 25.0822L2.32399 25.3343C2.27645 25.5707 2.22891 25.8071 2.18137 26.0592C2.18137 26.075 2.16552 26.1222 2.14967 26.1695V26.201C2.11798 26.3113 2.07043 26.4374 2.05459 26.5635L1.9595 27.115C1.94365 27.1938 1.94365 27.2568 1.9278 27.3356C1.89611 27.3986 1.86441 27.509 1.83272 27.6193C1.81687 27.6981 1.78518 27.7926 1.73763 27.9029L1.67424 28.0605C1.65839 28.1078 1.6267 28.1708 1.61085 28.2181L1.595 28.2338C1.53161 28.4072 1.45238 28.5963 1.40483 28.7854C1.37314 28.8957 1.34144 29.006 1.2939 29.132L1.19881 29.3842C1.13542 29.5575 1.05619 29.7624 0.992795 29.983C0.945252 30.1405 0.945253 30.2824 0.929405 30.503V30.5975C0.929405 30.6448 0.929405 30.7078 0.913557 30.7394C0.786776 31.1963 0.976948 31.6691 1.42068 31.8897C1.56331 31.9527 1.72179 32 1.86441 32H1.91196C1.9278 32 2.05459 32 2.07043 32C2.16552 31.9842 2.2606 31.9685 2.35569 31.9212C2.49832 31.8897 2.60925 31.8582 2.72018 31.8267L2.81527 31.7951C2.91036 31.7636 3.05298 31.7479 3.19561 31.7321L3.35409 31.7164C3.63935 31.6848 3.90876 31.606 4.13062 31.543L3.9563 30.9442L4.14647 31.543C4.27325 31.5115 4.38418 31.48 4.49512 31.4485C4.65359 31.417 4.81207 31.3697 4.97054 31.3224C5.12902 31.2751 5.2875 31.2279 5.43013 31.2121C5.60445 31.1806 5.73123 31.1333 5.84216 31.086C5.85801 31.086 5.87386 31.086 5.87386 31.086L5.9214 31.0703C5.98479 31.0545 6.03233 31.0388 6.07988 31.0388C6.20666 31.0072 6.30174 30.9757 6.41268 30.9285L6.46022 30.9127C6.50776 30.8969 6.53946 30.8812 6.587 30.8654C6.88811 30.7709 7.18921 30.6763 7.45862 30.5975C7.83896 30.4715 8.20346 30.3612 8.56795 30.2666C8.74228 30.2193 8.8849 30.1721 9.02753 30.1248C9.12262 30.0933 9.29694 30.046 9.32864 30.0302C9.32864 30.0302 9.34448 30.0302 9.36033 30.046C9.93085 30.3296 10.4538 30.566 10.9451 30.7394C12.0069 31.1333 13.1321 31.4327 14.2889 31.5903C18.5995 32.2206 23.0051 31.1491 26.3648 28.6751C31.3093 25.1137 33.7973 18.6372 32.5612 12.6491ZM25.1762 27.1623C23.8134 28.155 22.2603 28.8957 20.6121 29.3369C20.7865 29.132 20.9608 28.9272 21.151 28.7223C21.2936 28.5647 21.3728 28.3441 21.4521 28.1393C21.4838 28.0762 21.4204 27.9817 21.4045 27.9029C21.3253 27.9187 21.2143 27.9029 21.1668 27.9659C21.0083 28.1235 20.8657 28.2811 20.7389 28.4702C20.4378 28.8641 20.1209 29.2423 19.7405 29.5575C18.8531 29.7466 17.9339 29.8411 17.0147 29.8569C17.1574 29.7781 17.2841 29.7151 17.4268 29.6363C17.6803 29.4945 17.8863 29.2739 18.1241 29.0848C18.1082 29.069 18.1082 29.0532 18.0924 29.0375C18.1241 28.9902 18.1399 28.9429 18.1716 28.9114C18.2508 28.7696 18.2667 28.6278 18.1558 28.5175C18.029 28.3914 17.8863 28.4702 17.7754 28.549C17.7279 28.5805 17.6645 28.6278 17.6169 28.6593C16.983 29.1163 16.2857 29.4787 15.5409 29.6993C15.4458 29.7308 15.3666 29.7624 15.2715 29.7939C15.0496 29.7781 14.8278 29.7466 14.6059 29.7151C14.2889 29.6678 13.972 29.6048 13.6709 29.5417C13.8927 29.4472 14.1146 29.3526 14.3365 29.2423C14.3999 29.2108 14.4633 29.1005 14.4633 29.0375C14.4633 28.9114 14.3523 28.8799 14.2414 28.8799C13.8135 28.9114 13.3856 28.9745 13.0053 29.1793C12.926 29.2108 12.8627 29.2739 12.7993 29.3211C12.5299 29.2423 12.2446 29.1636 11.9752 29.069C12.1971 28.9745 12.4031 28.8799 12.6249 28.7696C12.6883 28.7381 12.7517 28.6278 12.7517 28.5647C12.7517 28.4387 12.6408 28.4072 12.5299 28.4072C12.102 28.4387 11.6741 28.5017 11.2937 28.7066C11.262 28.7223 11.2304 28.7381 11.1987 28.7696C10.9134 28.6435 10.6123 28.5175 10.2953 28.3441C10.2478 28.3284 10.2003 28.2969 10.1686 28.2811C10.4221 28.1708 10.6598 28.0605 10.8976 27.9502C10.9609 27.9187 11.0243 27.8084 11.0243 27.7453C11.0243 27.6193 10.9134 27.5877 10.8025 27.5877C10.3746 27.6193 9.94669 27.6823 9.56635 27.8871C9.45542 27.9502 9.36033 28.029 9.23355 28.1235C8.93245 28.155 8.66304 28.2338 8.45702 28.2969L8.42532 28.3126C8.33024 28.3441 8.23515 28.3757 8.14007 28.3914C7.69633 28.5017 7.26845 28.6435 6.88811 28.7696L6.84056 28.7854C6.587 28.8641 6.33344 28.9429 6.07988 29.0217C5.98479 29.0532 5.90555 29.0848 5.81047 29.1163C5.76293 29.132 5.69953 29.1478 5.65199 29.1636L5.55691 29.1793C5.46182 29.1951 5.33504 29.2266 5.22411 29.2739C5.19241 29.2896 5.16072 29.3054 5.11317 29.3211C4.90715 29.3526 4.70114 29.4157 4.49512 29.463H4.47927C4.36834 29.4945 4.2574 29.526 4.14647 29.5417C3.97215 29.5733 3.79782 29.6363 3.63935 29.6678C3.49672 29.7151 3.35409 29.7466 3.22731 29.7781C3.2907 29.6205 3.33824 29.4472 3.38578 29.2581C3.40163 29.1793 3.43333 29.1005 3.48087 29.006L3.49672 28.9745C3.52841 28.8957 3.56011 28.8011 3.5918 28.7223L3.6235 28.612C3.67104 28.4702 3.73443 28.2969 3.79782 28.0762C3.84536 27.9817 3.87706 27.8714 3.90876 27.7296C3.9246 27.6665 3.9246 27.6035 3.9246 27.5405C3.9246 27.5247 3.9246 27.509 3.9246 27.4774L4.01969 26.9574C4.01969 26.9259 4.03554 26.8944 4.05138 26.8629L4.06723 26.8314C4.11477 26.7053 4.16232 26.5477 4.17816 26.3744C4.20986 26.201 4.24156 26.0119 4.2891 25.8228L4.35249 25.4919C4.38418 25.3028 4.41588 25.1295 4.44757 24.9562L4.46342 24.9089C4.47927 24.7828 4.51096 24.641 4.54266 24.4992C4.68529 23.8058 4.49512 23.3646 4.33664 23.0179C4.2891 22.9234 4.2574 22.8446 4.22571 22.75C4.05138 22.23 3.89291 21.71 3.76613 21.19C3.48087 20.1027 3.27485 19.0311 3.16392 18.0069C2.9262 15.7535 3.08468 13.6576 3.65519 11.7982C3.81367 11.2782 4.00384 10.7739 4.22571 10.3012C5.14487 8.28415 6.68209 6.44046 8.77397 4.78586C10.5964 3.35188 12.4189 2.45367 14.178 2.10699C16.0956 1.7288 18.3459 1.94941 20.7865 2.73732C23.7183 3.6828 26.143 5.19557 27.807 7.08654C29.2332 8.70961 30.2316 10.7582 30.6912 12.9958C31.6896 18.2275 29.4393 24.0264 25.1762 27.1623Z" fill="#7D4C23"/>
<path d="M7.04658 27.7768C6.6187 27.7138 6.19081 27.6665 5.77877 27.7768C5.65199 27.8084 5.54106 27.8714 5.38258 27.9344C5.35089 28.0132 5.2875 28.1235 5.31919 28.2023C5.35089 28.2811 5.44597 28.3441 5.54106 28.3756C5.60445 28.4072 5.69953 28.4072 5.77877 28.3914C6.20666 28.3126 6.65039 28.2496 7.07828 28.155C7.14167 28.1393 7.23675 28.0447 7.2526 27.9817C7.2526 27.8556 7.15751 27.7926 7.04658 27.7768Z" fill="#7D4C23"/>
<path d="M13.2747 3.55673C13.7184 3.55673 14.0671 3.32036 14.3682 3.03672C14.4791 2.94217 14.3999 2.75307 14.2572 2.75307C13.8452 2.75307 13.4332 2.83186 13.037 3.11551C13.0211 3.17854 12.9577 3.30461 12.9894 3.39915C13.037 3.47794 13.1796 3.55673 13.2747 3.55673Z" fill="#7D4C23"/>
<path d="M10.7549 4.86465C11.0719 4.7701 11.3888 4.62828 11.6741 4.48646C11.8326 4.40767 11.8009 4.20281 11.6424 4.12402C11.3254 3.9822 10.8183 4.06099 10.5489 4.32888C10.5331 4.36039 10.4697 4.43918 10.438 4.51797C10.3746 4.73859 10.5331 4.92768 10.7549 4.86465Z" fill="#7D4C23"/>
<path d="M8.47287 27.6823C8.2193 27.7296 7.98159 27.8084 7.69633 27.9029C7.68049 28.0447 7.6171 28.1866 7.64879 28.3126C7.68049 28.4544 7.85481 28.486 7.96574 28.4387C8.20346 28.3441 8.44117 28.2338 8.66304 28.1078C8.72643 28.0762 8.74228 27.9187 8.72643 27.8399C8.67888 27.7453 8.53626 27.6665 8.47287 27.6823Z" fill="#7D4C23"/>
<path d="M24.7167 19.4566L24.6691 19.4251C24.4631 19.2517 24.2095 19.1887 24.0035 19.1414L23.8926 19.1099C23.7024 19.0626 23.5122 18.9839 23.3379 18.9051L23.1794 18.842C22.6248 18.6214 22.086 18.3535 21.5471 18.0541C21.3253 17.9281 21.0717 17.7862 20.7706 17.7547C19.9941 17.7075 19.5186 18.4481 19.3443 18.7002C19.1066 19.0469 18.8689 19.3936 18.5678 19.4566C18.441 19.4724 18.2825 19.4408 18.1241 19.3936C16.8246 19.0311 15.5726 18.1802 14.4157 16.8565C14.1622 16.5571 13.8294 16.1474 13.6709 15.6904C13.5124 15.2334 13.5283 14.7607 13.7343 14.414C13.7818 14.3352 13.8294 14.2722 13.8927 14.1934C14.0671 13.9728 14.2572 13.7207 14.2731 13.3898C14.3048 13.0904 14.1939 12.8225 14.0988 12.6019L13.0687 9.74965C13.0211 9.62358 12.9577 9.43448 12.7993 9.30842C12.5932 9.13508 12.3238 9.11932 12.1654 9.10356C11.6424 9.07205 10.9292 9.04053 10.3746 9.43448C10.0418 9.6551 9.83576 10.0018 9.66144 10.3012C8.96414 11.5618 8.64719 12.6176 8.71058 13.5316C8.78982 14.6977 9.48711 15.785 10.0735 16.6044C10.644 17.3923 11.3571 18.1487 12.3238 18.9996C12.6566 19.2833 12.9736 19.5669 13.3222 19.8348C15.2081 21.3791 17.506 23.0337 20.2001 23.6482C20.7706 23.7743 21.2777 23.8373 21.7532 23.8373C22.2127 23.8373 22.6406 23.7743 23.021 23.664C24.6057 23.1755 25.4615 21.6785 25.0495 20.1027C25.0019 19.9136 24.9227 19.6457 24.7167 19.4566ZM19.17 22.0724C19.1542 22.2143 18.758 22.4349 18.5995 22.4034C18.5044 22.3876 18.3776 22.3088 18.3776 22.2458C18.3776 22.104 18.4252 21.9621 18.441 21.9149C18.7263 21.647 18.9323 21.5997 19.0908 21.773C19.1542 21.8361 19.1859 21.9779 19.17 22.0724ZM20.9766 23.207C20.9132 23.3173 20.7865 23.3804 20.7231 23.4119C20.3427 23.4276 19.9624 23.0809 19.9307 22.7973C19.9148 22.6082 20.0575 22.4979 20.2318 22.5767C20.4378 22.6712 20.6121 22.7815 20.8023 22.8918C20.9291 22.9706 21.0559 23.0652 20.9766 23.207ZM22.2127 23.3331C21.9116 23.3331 21.6581 23.1913 21.4521 22.9706C21.4362 22.8603 21.4045 22.8288 21.563 22.8288C21.8166 22.8446 22.0543 23.0494 22.3078 23.1125C22.4663 23.144 22.5614 23.0652 22.5931 23.0967C22.5614 23.2858 22.3871 23.3173 22.2127 23.3331Z" fill="#7D4C23"/>
</svg>
