<svg width="31" height="17" viewBox="0 0 31 17" fill="none" xmlns="http://www.w3.org/2000/svg">
<path d="M30.5962 6.11954e-05C27.988 0.0133352 26.3881 0.0398816 23.7799 0.0531556C22.7133 0.0531556 21.6384 0.026608 20.5717 0.0797042C20.4718 0.0797042 20.3968 0.0664301 20.3384 0.039882C20.2718 0.039882 20.2134 0.0266084 20.1468 0.0266084C20.0634 0.0398825 19.9801 0.039882 19.8885 0.039882C17.7136 0.039882 15.5387 0.55757 13.3638 0.55757C13.2388 0.55757 13.1138 1.08853 12.9805 1.08853C12.9222 1.11508 12.0555 0.796503 12.0389 0.796503C10.7556 0.55757 10.2473 0.464652 8.93904 0.4912C8.86404 0.4912 8.80571 0.477925 8.74738 0.451377C8.24741 0.451377 7.75577 0.477926 7.25579 0.477926C7.24746 0.477926 7.24746 0.477926 7.23913 0.477926C7.22246 0.477926 7.2058 0.477926 7.18913 0.477926C7.12247 0.504474 7.03914 0.517748 6.93914 0.517748C5.13091 0.4912 3.31434 0.55757 1.5061 0.55757C0.814472 0.55757 0.54782 0.504474 0.0311806 1.26109C0.0311806 1.26109 -0.243805 2.78761 0.839471 2.85398C8.94737 3.29202 18.7802 2.61505 27.7547 2.50885C29.0213 2.49558 29.2879 2.48231 30.5628 2.46903C30.5628 2.46903 30.7795 2.52213 30.8795 2.36284C31.0128 2.13718 31.1545 -0.0132128 30.5962 6.11954e-05Z" fill="#FFF"/>
<path d="M0.529095 9.72178C3.12695 9.70968 5.7165 9.68549 8.31436 9.67339C9.37674 9.67339 9.85813 9.68549 10.9205 9.6371C11.0201 9.6371 11.6841 9.97581 11.7505 10C11.8169 10 11.9331 10 11.9995 10C12.0825 9.9879 11.9165 10 11.9995 10C14.2903 10 16.7802 9.25 19.071 9.33468C19.1291 9.31048 19.1706 9.29839 19.1789 9.29839C20.4819 9.28629 21.7933 9.29839 23.0964 9.28629C23.1711 9.28629 23.2292 9.29839 23.2873 9.32258C23.7853 9.32258 24.275 9.29839 24.773 9.29839C24.7813 9.29839 24.7813 9.29839 24.7896 9.29839C24.8062 9.29839 24.8228 9.29839 24.8394 9.29839C24.9058 9.27419 24.9888 9.2621 25.0884 9.2621C26.8894 9.28629 28.2881 9.28629 30.0892 9.28629C30.778 9.28629 30.8361 9.16532 30.9689 8.58468C30.9689 8.58468 31.2428 7.19355 30.1639 7.13307C22.0881 6.73388 13.2943 7.35081 4.35533 7.44758C3.09375 7.45968 1.89027 7.56855 0.628694 7.58065C0.628694 7.58065 0.379698 7.58065 0.047704 8.30645C-0.0601941 8.53629 -0.0186949 9.73387 0.529095 9.72178Z" fill="#FFF"/>
<path d="M0.40114 16.9999C3.00956 16.9853 5.60964 16.9563 8.21806 16.9417C9.28476 16.9417 10.3598 16.9708 11.4265 16.9127C11.5265 16.9127 11.6015 16.9272 11.6598 16.9563C11.7265 16.9563 11.7848 16.9708 11.8515 16.9708C11.9348 16.9563 12.0182 16.9563 12.1098 16.9563C14.4099 16.9563 16.7183 16.8691 19.0184 16.9708C19.0767 16.9417 19.1184 16.9272 19.1267 16.9272C20.4351 16.9127 21.7518 16.9272 23.0602 16.9127C23.1352 16.9127 23.1935 16.9272 23.2519 16.9563C23.7519 16.9563 24.2436 16.9272 24.7436 16.9272C24.7519 16.9272 24.7519 16.9272 24.7603 16.9272C24.7769 16.9272 24.7936 16.9272 24.8103 16.9272C24.8769 16.8981 24.9603 16.8836 25.0603 16.8836C26.8687 16.9127 27.6854 16.84 29.4938 16.84C30.1855 16.84 30.4521 16.8981 30.9688 16.0697C30.9688 16.0697 31.2438 14.3982 30.1605 14.3255C22.0519 13.8459 13.2182 14.0058 4.24293 14.122C2.97622 14.1366 1.70952 14.7325 0.434474 14.747C0.434474 14.747 0.217801 15.2703 0.117797 15.4447C-0.0155402 15.6772 -0.148878 17.0144 0.40114 16.9999Z" fill="#FFF"/>
</svg>
