<svg width="33" height="32" viewBox="0 0 33 32" fill="none" xmlns="http://www.w3.org/2000/svg">
<path d="M32.0758 15.4099C32.059 14.4975 32.0253 13.5684 32.0253 12.656C32.0253 12.2578 32.0253 11.8596 32.0422 11.4615V11.4449C32.0422 11.0467 32.059 10.6154 32.059 10.2006C32.059 9.37112 32.0253 8.27617 31.8236 7.18123C31.3864 4.82544 29.8394 2.73508 27.7039 1.59037C25.6188 0.478833 23.2479 0.346112 21.1629 0.246572C20.6921 0.213391 20.2212 0.180211 19.7336 0.147031H19.7C18.4893 0.0474904 17.245 -0.0520499 16.0007 0.0309005C14.8405 0.113851 13.6634 0.213391 12.5368 0.329522L12.3182 0.346112C11.8306 0.395882 11.3429 0.445653 10.8553 0.478833C9.20744 0.628143 7.2569 0.876995 5.44088 1.64014C3.4399 2.46964 1.89293 3.83003 1.05218 5.45586C0.160985 7.18123 0.11054 9.12227 0.127355 10.9638C0.14417 12.4403 0.1778 13.9168 0.261875 15.3767C0.295505 15.9574 0.34595 16.5214 0.396395 17.0855V17.1519C0.48047 18.1141 0.564544 19.0929 0.547729 20.0551C0.514099 21.6976 0.530914 23.4727 0.900844 25.2147C1.01855 25.7455 1.16988 26.376 1.53981 26.9566C1.84248 27.4543 2.22923 27.8359 2.58234 28.1677L3.94435 29.5115C4.31428 29.8765 4.73466 30.2746 5.25592 30.5898C5.99578 31.0212 6.78608 31.2037 7.54276 31.3198C8.66936 31.5023 9.79596 31.5355 10.8889 31.5852L11.612 31.6184C12.2341 31.6516 12.8899 31.718 13.5121 31.7843C14.151 31.8507 14.8236 31.917 15.4962 31.9502C16.2025 31.9834 16.9423 32 17.6822 32C19.6327 32 21.6001 31.8673 23.5338 31.635C24.2568 31.5355 25.0976 31.4193 25.9047 31.1373C27.0817 30.7226 28.0402 30.0258 28.965 29.3622L28.9818 29.3456C29.3518 29.0801 29.8058 28.7483 30.1589 28.2838C30.4952 27.8359 30.6633 27.3714 30.8147 26.9234C31.4032 25.1981 31.7731 23.4063 31.9581 21.5814C32.1935 19.5243 32.1262 17.4339 32.0758 15.4099ZM29.9235 21.3658C29.7553 23.0414 29.4022 24.6838 28.8809 26.2598C28.8137 26.4755 28.7296 26.6912 28.6287 26.8737C28.5783 26.8405 28.5278 26.8239 28.4774 26.8239C28.1747 26.8073 27.6703 27.388 27.7207 27.67C27.7207 27.6866 27.7375 27.7032 27.7375 27.7198C27.4012 27.952 27.0817 28.1843 26.7286 28.4165C26.6782 28.3999 26.6109 28.4165 26.5605 28.4497C26.2242 28.6488 25.8711 28.8479 25.5348 29.0636C25.518 29.0636 25.518 29.0801 25.518 29.0801C25.4171 29.1299 25.3162 29.1631 25.2153 29.1963C24.5931 29.4119 23.8869 29.5115 23.2647 29.5944C20.7257 29.9262 18.153 30.0258 15.5971 29.8931C14.975 29.8599 14.3192 29.7935 13.7307 29.7272H13.6634C13.0244 29.6608 12.3687 29.5944 11.6961 29.5613L10.973 29.5281C9.9473 29.4949 8.88795 29.4451 7.87906 29.2958H7.86224C7.99676 29.1465 8.11446 28.964 8.23217 28.7981C8.31624 28.6654 8.16491 28.4829 8.01357 28.5161C7.69409 28.599 7.44187 28.7483 7.29053 29.0304C7.27372 29.0801 7.2569 29.1299 7.24009 29.1797C6.9206 29.0967 6.60112 28.9972 6.33208 28.8479C6.04622 28.682 5.74355 28.3999 5.47451 28.1345C5.5754 28.035 5.67629 27.9188 5.77718 27.8027C5.82763 27.7529 5.794 27.5704 5.72674 27.5207C5.65948 27.4543 5.50814 27.4211 5.44088 27.4709C5.30637 27.5539 5.18866 27.6368 5.05414 27.7363L4.04524 26.7575C4.02843 26.7575 4.02843 26.7409 4.01161 26.7244C4.26384 26.5253 4.49925 26.293 4.71784 26.0607C4.85236 25.928 4.75147 25.7289 4.54969 25.7289C4.21339 25.7124 3.75939 25.9446 3.57442 26.2764C3.47353 26.1603 3.38946 26.0442 3.30538 25.928C3.1036 25.6128 3.00271 25.1981 2.91864 24.8331C2.58234 23.2902 2.56553 21.6478 2.59916 20.1215C2.61597 19.0597 2.5319 18.0146 2.44782 17.0026C2.39738 16.4883 2.34693 15.891 2.3133 15.3104C2.26286 14.2984 2.22923 13.2698 2.1956 12.2412C2.46464 12.0587 2.6496 11.7767 2.80094 11.4781C2.8682 11.3453 2.73368 11.1794 2.58234 11.2292C2.44782 11.279 2.29649 11.3453 2.17878 11.4117C2.17878 11.2624 2.17878 11.1297 2.17878 10.9804C2.16197 9.32135 2.21241 7.7287 2.88501 6.40149C3.23812 5.7213 3.7762 5.09088 4.46562 4.55999C4.34791 4.74249 4.24702 4.94157 4.17976 5.15724C4.14613 5.28996 4.14613 5.42268 4.1125 5.58858C4.17976 5.65494 4.23021 5.77107 4.31428 5.78766C4.39836 5.80425 4.51606 5.73789 4.60014 5.68812C4.6674 5.63835 4.70103 5.5554 4.73466 5.48904C4.90281 5.0577 5.07096 4.62635 5.22229 4.19501C5.2391 4.16183 5.22229 4.09547 5.20548 4.0457C5.52496 3.86321 5.86126 3.68072 6.21437 3.53141C6.41615 3.44846 6.60112 3.3821 6.8029 3.31574C6.5843 3.68072 6.36571 4.0457 6.14711 4.42727C6.01259 4.84203 5.87807 5.25678 5.76037 5.67153C5.74355 5.75448 5.81081 5.92038 5.86126 5.93697C5.96215 5.95356 6.09667 5.90379 6.18074 5.83743C6.26482 5.75448 6.29845 5.62176 6.34889 5.52222C6.68519 4.69271 7.10557 3.89639 7.72772 3.2162C7.77817 3.14984 7.82861 3.08348 7.87906 3.00053C8.29943 2.90099 8.7198 2.81803 9.14018 2.75167C8.83751 3.08348 8.55165 3.44846 8.2658 3.81344C8.09765 4.0457 7.97994 4.32773 7.84542 4.57658C7.86224 4.57658 7.86224 4.59317 7.87906 4.59317C7.86224 4.64294 7.86224 4.69271 7.84542 4.74249C7.81179 4.8918 7.82861 5.04111 7.96313 5.10747C8.09765 5.19042 8.18172 5.0577 8.2658 4.94157C8.29943 4.8918 8.33306 4.82544 8.36669 4.77567C8.75343 4.11206 9.22425 3.53141 9.76233 3.0503C9.91367 2.90099 10.0818 2.76826 10.2163 2.60236C10.4854 2.56918 10.7376 2.55259 11.0066 2.51941C11.242 2.50282 11.4606 2.46964 11.6961 2.45305C11.3598 2.80145 11.0403 3.14984 10.7376 3.51482C10.5863 3.68072 10.5022 3.91298 10.4181 4.12865C10.3845 4.19501 10.4349 4.29455 10.4517 4.3775C10.5358 4.36091 10.6535 4.3775 10.704 4.32773C10.8721 4.16183 11.0235 3.99593 11.1748 3.81344C11.5952 3.26597 12.066 2.76827 12.6545 2.3701H12.6713L12.789 2.35351C13.882 2.25397 15.0086 2.13784 16.1184 2.07148C16.3706 2.05489 16.6565 2.0383 16.9423 2.0383C17.7494 2.0383 18.607 2.10466 19.4309 2.17102H19.515C20.0026 2.2042 20.5239 2.25397 21.0115 2.27056C22.878 2.3701 25.0135 2.48623 26.6782 3.3821C28.242 4.22819 29.419 5.82084 29.7385 7.54621C29.9067 8.47525 29.9403 9.45407 29.9403 10.2006C29.9403 10.6154 29.9403 11.0135 29.9235 11.4283C29.9235 11.843 29.9067 12.2578 29.9067 12.656C29.9067 13.6016 29.9403 14.5472 29.9571 15.4597V15.4929C30.058 17.4505 30.1253 19.4579 29.9235 21.3658Z" fill="#F0792D"/>
<path d="M26.1906 7.24759C26.0728 6.78307 25.8206 6.3849 25.4675 6.08628C24.6604 5.42268 23.4833 5.35632 22.5753 5.92038C21.8355 6.3849 21.5833 7.44667 22.0373 8.27617C22.4408 9.02273 23.3825 9.60338 24.3073 9.63656C24.3409 9.63656 24.3914 9.63656 24.425 9.63656C25.064 9.63656 25.602 9.37112 25.9383 8.85683C26.2242 8.4089 26.3251 7.82824 26.1906 7.24759Z" fill="#F0792D"/>
<path d="M23.2479 12.9214C23.0798 12.6062 22.8612 12.2744 22.5585 11.926C21.5664 10.7647 19.7 9.30476 17.7158 8.95637C16.3706 8.72411 14.6891 8.42548 13.0749 8.92319L12.9908 8.95637C12.4191 9.13886 11.8474 9.43748 11.3093 9.81905C10.4854 10.4163 9.76233 11.196 9.22425 12.0753C8.61891 13.0873 8.2658 14.4145 8.06402 15.3104C7.81179 16.4385 7.55957 17.915 7.9295 19.4247C8.43395 21.3989 10.0146 23.1409 12.1501 24.0865C13.2767 24.5842 14.5041 24.8331 15.7989 24.8331C16.8246 24.8331 17.8503 24.6672 18.8592 24.3686C20.9443 23.7381 22.4576 22.1787 23.2479 19.8726C23.7356 18.4625 23.9037 16.8698 23.7524 15.0283C23.7019 14.3316 23.601 13.6016 23.2479 12.9214ZM21.331 19.209C20.9275 20.3703 20.0867 21.8635 18.2707 22.4275C16.4211 22.9916 14.5546 22.9252 12.9908 22.2284C11.4102 21.5317 10.2668 20.304 9.91366 18.9104C9.64463 17.8155 9.84641 16.6376 10.0482 15.7251C10.2163 14.962 10.519 13.8504 10.973 13.0707C11.3598 12.4237 11.881 11.843 12.4864 11.4117C12.8563 11.1463 13.243 10.9472 13.613 10.831L13.6634 10.8145C14.79 10.4661 16.1352 10.6983 17.3291 10.914C18.6238 11.1463 20.1372 12.2412 20.9779 13.2034C21.1797 13.4357 21.3142 13.6182 21.3983 13.8007C21.6001 14.1822 21.6505 14.6799 21.701 15.1611C21.8523 16.7371 21.7178 18.0477 21.331 19.209Z" fill="#F0792D"/>
<path d="M28.7969 24.5676C28.6455 24.4515 28.511 24.5179 28.3933 24.634C28.1075 24.916 27.8048 25.2147 27.5358 25.5133C27.4685 25.5962 27.418 25.6958 27.3844 25.7455C27.3844 25.9778 27.5358 26.1105 27.7039 26.0773C27.8048 26.0607 27.9057 25.9944 27.9898 25.9446C28.3429 25.6958 28.5951 25.3474 28.7969 24.9824C28.8978 24.8165 28.9482 24.6838 28.7969 24.5676Z" fill="#F0792D"/>
<path d="M24.8958 27.9022C24.5763 28.0681 24.2905 28.2506 24.0046 28.4663C23.9373 28.5161 23.9205 28.6986 23.9542 28.7981C23.9878 28.8811 24.1223 28.9308 24.1728 28.964C24.5763 28.9474 25.1144 28.4995 25.1817 28.1843C25.2153 27.9852 25.064 27.8193 24.8958 27.9022Z" fill="#F0792D"/>
<path d="M26.4596 26.6414C26.241 26.8239 26.0056 27.0396 25.8543 27.2718C25.7197 27.4875 25.8879 27.7032 26.1569 27.7032C26.5269 27.7198 26.964 27.1225 26.8295 26.7907C26.7623 26.658 26.5773 26.5419 26.4596 26.6414Z" fill="#F0792D"/>
<path d="M3.59124 8.80706C3.40627 8.93978 3.20449 9.0725 3.03634 9.22181C2.88501 9.35453 2.93545 9.53702 3.12042 9.60338C3.40627 9.70292 3.91072 9.48725 4.06206 9.12227C4.04524 9.05591 4.04524 8.9066 3.96117 8.79047C3.86028 8.65775 3.69213 8.72411 3.59124 8.80706Z" fill="#F0792D"/>
<path d="M3.12042 8.01073C3.28857 7.97755 3.59124 7.61257 3.55761 7.46326C3.54079 7.36372 3.4399 7.24759 3.35583 7.19782C3.13723 7.08169 2.93545 7.19782 2.7673 7.57939C2.7673 7.64575 2.76731 7.79506 2.83457 7.92778C2.85138 8.01073 3.01953 8.02732 3.12042 8.01073Z" fill="#F0792D"/>
</svg>
