<svg width="400" height="75" viewBox="0 0 400 75" fill="none" xmlns="http://www.w3.org/2000/svg">
<path d="M55.125 46H59.861C59.477 44.464 60.885 38.576 62.805 32.496C67.093 29.616 73.237 31.664 78.229 30.768C81.365 40.176 85.205 50.224 89.237 56.112C77.013 61.744 60.629 68.144 45.013 68.144C1.173 68.144 4.501 13.424 41.045 13.424C48.981 13.424 57.301 16.304 63.061 22.192C57.621 15.664 49.557 12.592 41.173 12.528C0.0209961 12.336 1.877 74.544 45.589 74.544C76.373 74.544 96.405 48.624 116.629 48.624C127.125 48.624 132.437 55.088 132.373 61.36C132.373 67.12 127.829 72.624 118.741 72.624C110.869 72.624 103.957 64.944 98.069 55.216L91.413 59.12C97.877 67.376 106.389 73.456 118.741 73.456C132.181 73.456 138.261 67.504 138.261 61.36C138.261 54.704 131.029 47.728 117.973 47.728C110.613 47.728 103.637 49.904 96.597 52.848C91.285 43.952 79.957 6.448 78.229 1.2H67.157C67.733 1.84 68.565 3.248 69.397 5.104C68.885 7.792 67.861 11.44 66.709 15.088L61.589 30.832C59.477 37.36 56.725 44.336 55.125 46ZM70.677 8.112C71.573 10.224 72.405 12.656 73.237 15.088C74.453 18.928 75.989 23.984 77.781 29.36C73.109 30.256 67.669 28.4 63.381 30.576L70.677 8.112ZM139.521 4.784C137.345 1.776 134.081 0.879997 130.817 0.879997C124.865 0.879997 119.425 3.824 119.425 11.696V16.816H116.225V18.416H119.425V46H130.177C129.153 44.336 128.705 37.488 128.705 30.832V18.416H134.337V16.816H128.705C128.705 11.632 122.625 2.416 130.177 2.544C134.017 2.608 135.041 6.512 134.529 9.52L139.521 4.784ZM156.953 46.32C178.329 45.488 177.177 15.664 155.801 16.496C134.361 17.328 135.577 47.152 156.953 46.32ZM156.441 18.096C164.697 18.096 164.505 44.72 156.377 44.72C148.057 44.72 148.313 18.096 156.441 18.096ZM199.128 41.2C197.592 43.184 195.032 44.72 192.984 44.656C191.384 44.656 190.104 43.696 190.104 41.264C190.04 38.128 192.344 33.328 192.344 30.256V18.416H197.976V16.816H192.344V9.456H190.488C187.672 13.232 185.304 14.832 179.8 16.816V18.416H183.064V35.376C183.064 42.736 187.8 46.384 192.6 46.32C195.48 46.32 198.36 44.912 200.28 42.288L199.128 41.2ZM224.178 46.32C245.554 45.488 244.402 15.664 223.026 16.496C201.585 17.328 202.801 47.152 224.178 46.32ZM223.666 18.096C231.922 18.096 231.73 44.72 223.602 44.72C215.282 44.72 215.538 18.096 223.666 18.096ZM229.938 6.448L227.442 3.184L217.202 11.76L218.418 13.232C222.002 10.608 227.058 7.088 229.938 6.448ZM261.282 40.624C274.786 40.624 277.986 26.608 270.882 19.952C271.458 18.16 273.186 16.816 276.386 17.264L272.29 13.296C270.818 14.448 269.922 16.496 269.538 18.864C267.426 17.456 264.674 16.56 261.282 16.56C247.586 16.56 244.45 30.96 251.938 37.488C248.93 39.856 247.65 42.416 247.65 44.912C247.714 51.056 253.73 51.696 259.682 51.696C265.442 51.696 271.074 51.056 271.074 54.192C271.074 57.328 265.442 60.336 260.706 60.336C256.866 60.336 253.602 58.544 254.498 53.296L249.57 58.032C251.49 60.784 255.33 62 259.554 62C267.362 62 276.386 57.264 276.386 50.096V50.032C276.386 44.4 271.714 43.376 266.53 43.376C263.458 43.376 260.13 43.76 257.506 43.76C254.306 43.76 251.938 43.248 251.938 40.944C251.938 40.112 252.386 39.216 253.218 38.384C255.266 39.728 257.954 40.624 261.282 40.624ZM261.282 17.904C266.914 17.904 266.914 39.28 261.282 39.28C255.586 39.28 255.586 17.904 261.282 17.904ZM284.547 46.064L295.299 46C294.275 44.336 293.763 37.488 293.827 30.832V30.256C293.827 24.432 296.195 18.096 299.907 18.096C302.979 18.096 303.939 22.64 303.491 25.136L308.483 20.4C306.883 18.16 303.683 16.496 300.675 16.496C297.539 16.496 295.299 17.968 293.827 20.272V16.816H283.075C284.035 18.416 284.547 24.496 284.547 30.704V46.064ZM338.82 27.376C338.82 19.632 332.228 16.496 325.956 16.496C321.732 16.496 317.636 17.904 315.78 20.464L320.708 25.264C320.068 21.168 322.5 18.096 324.996 18.096C327.236 18.096 329.54 20.656 329.54 27.376V29.552C316.42 29.808 311.812 34.928 311.812 39.6C311.812 43.056 314.372 46.32 320.196 46.32C324.164 46.32 327.556 44.784 329.54 41.392V46.064L340.292 46C339.268 44.336 338.82 37.488 338.82 30.832V27.376ZM329.54 38.32C327.812 42.16 325.38 43.952 323.588 43.952C321.732 43.952 320.644 42.096 320.644 39.792C320.644 36.272 323.268 31.664 329.54 31.216V38.32ZM369.996 4.784C367.82 1.776 364.556 0.879997 361.292 0.879997C355.34 0.879997 349.9 3.824 349.9 11.696V16.816H346.7V18.416H349.9V46H360.652C359.628 44.336 359.18 37.488 359.18 30.832V18.416H364.812V16.816H359.18C359.18 11.632 353.1 2.416 360.652 2.544C364.492 2.608 365.516 6.512 365.004 9.52L369.996 4.784ZM397.796 27.376C397.796 19.632 391.204 16.496 384.932 16.496C380.708 16.496 376.612 17.904 374.756 20.464L379.684 25.264C379.044 21.168 381.476 18.096 383.972 18.096C386.212 18.096 388.516 20.656 388.516 27.376V29.552C375.396 29.808 370.788 34.928 370.788 39.6C370.788 43.056 373.348 46.32 379.172 46.32C383.14 46.32 386.532 44.784 388.516 41.392V46.064L399.268 46C398.244 44.336 397.796 37.488 397.796 30.832V27.376ZM388.516 38.32C386.788 42.16 384.356 43.952 382.564 43.952C380.708 43.952 379.62 42.096 379.62 39.792C379.62 36.272 382.244 31.664 388.516 31.216V38.32Z" fill="#7D4C23"/>
</svg>
