<svg width="738" height="74" viewBox="0 0 738 74" fill="none" xmlns="http://www.w3.org/2000/svg">
<path d="M99.2785 15.368C99.2785 8.712 99.7265 1.864 100.751 0.199997H89.9985V23.88C86.2225 24.328 82.0625 23.304 78.4145 24.264V0.199997H67.6625C68.6225 1.8 69.1345 7.88 69.1345 14.088V31.432C69.1345 37.64 68.6225 43.72 67.6625 45.32C71.0545 45.32 73.5505 48.648 76.2385 53.064C62.4785 59.272 48.3345 67.848 30.5425 67.848C10.7025 67.848 2.1905 56.648 2.1265 44.04C2.0625 29.192 13.7745 18.312 29.9025 18.312C37.0705 18.312 44.5585 20.936 49.8065 26.248C44.8785 20.36 37.5185 17.48 29.9025 17.48C12.9425 17.416 0.846497 28.68 0.846497 45.064C0.846497 60.232 11.4705 73.672 31.1185 73.672C49.9345 73.672 63.9505 62.536 77.3265 54.856C82.0625 62.728 88.5905 72.584 102.607 72.584C113.999 72.584 120.143 66.632 120.143 60.488C120.143 53.832 112.847 46.856 99.8545 46.856C92.8145 46.856 86.1585 48.84 79.5025 51.656C78.7985 48.712 78.3505 45.64 78.3505 42.696C78.3505 41.288 78.3505 39.816 78.3505 38.408L78.4145 29.96C78.4145 28.616 78.4145 27.272 78.4145 25.928C81.9345 24.904 86.2225 25.864 89.9985 25.544V45H100.751C99.7265 43.336 99.2785 36.488 99.2785 29.832V15.368ZM79.9505 53.384C86.0945 50.12 92.1745 47.752 98.7025 47.752C109.583 47.752 114.831 54.28 114.831 60.488C114.831 66.248 110.287 71.624 101.135 71.624C90.4465 71.624 82.8305 63.24 79.9505 53.384ZM109.031 6.984C109.031 9.928 111.335 12.04 114.279 12.04C117.159 12.04 119.463 9.928 119.463 6.984C119.463 4.168 117.159 2.056 114.279 2.056C111.335 2.056 109.031 4.168 109.031 6.984ZM110.247 29.704C110.247 42.76 116.519 46.728 129.191 46.664C138.215 46.6 147.111 42.952 147.111 36.168C147.111 26.44 131.623 26.76 131.815 20.872C131.879 18.696 134.311 17.096 136.871 17.096C139.751 17.096 142.759 19.208 141.927 24.264L146.855 19.464C144.999 16.904 140.903 15.496 136.679 15.496C130.535 15.496 124.071 18.44 124.071 24.2C124.071 33.48 139.431 34.44 139.431 39.944C139.431 42.888 135.335 45 130.791 45C125.415 45.064 119.527 41.864 119.527 31.176V15.816H108.775C109.735 17.416 110.247 23.496 110.247 29.704ZM173.84 40.2C172.304 42.184 169.744 43.72 167.696 43.656C166.096 43.656 164.816 42.696 164.816 40.264C164.752 37.128 167.056 32.328 167.056 29.256V17.416H172.688V15.816H167.056V8.456H165.2C162.384 12.232 160.016 13.832 154.512 15.816V17.416H157.776V34.376C157.776 41.736 162.512 45.384 167.312 45.32C170.192 45.32 173.073 43.912 174.993 41.288L173.84 40.2ZM196.953 45.32C218.329 44.488 217.177 14.664 195.801 15.496C174.361 16.328 175.577 46.152 196.953 45.32ZM196.441 17.096C204.697 17.096 204.505 43.72 196.377 43.72C188.057 43.72 188.313 17.096 196.441 17.096ZM202.713 5.448L200.217 2.184L189.977 10.76L191.193 12.232C194.777 9.608 199.833 6.088 202.713 5.448ZM221.897 45.064L232.649 45C231.625 43.336 231.113 36.488 231.177 29.832V29.256C231.177 23.432 233.545 17.096 237.257 17.096C240.329 17.096 241.289 21.64 240.841 24.136L245.833 19.4C244.233 17.16 241.033 15.496 238.025 15.496C234.889 15.496 232.649 16.968 231.177 19.272V15.816H220.425C221.385 17.416 221.897 23.496 221.897 29.704V45.064ZM252.606 6.984C252.606 9.928 254.91 12.04 257.854 12.04C260.734 12.04 263.038 9.928 263.038 6.984C263.038 4.168 260.734 2.056 257.854 2.056C254.91 2.056 252.606 4.168 252.606 6.984ZM253.822 45.064L264.574 45C263.55 43.336 263.038 36.488 263.102 29.832V15.816H252.35C253.31 17.416 253.822 23.496 253.822 29.704V45.064ZM281.484 24.264C280.844 20.168 283.276 17.096 285.772 17.096C288.012 17.096 290.316 19.656 290.316 26.376V28.552C277.196 28.808 272.588 33.928 272.588 38.6C272.588 42.056 275.148 45.32 280.972 45.32C285.772 45.32 289.868 42.76 291.468 37.768C293.836 44.616 300.428 46.728 310.028 46.664C319.564 46.6 327.244 42.952 327.244 36.168C327.244 26.44 311.756 26.76 311.948 20.872C312.012 18.696 314.444 17.096 317.004 17.096C319.884 17.096 322.892 19.208 322.06 24.264L326.988 19.464C325.132 16.904 321.036 15.496 316.812 15.496C310.668 15.496 304.204 18.44 304.204 24.2C304.204 33.48 319.564 34.44 319.564 39.944C319.564 42.888 316.684 45 311.628 45C306.252 45 299.596 41.864 299.596 31.176V26.376C299.596 18.632 293.004 15.496 286.732 15.496C282.508 15.496 278.412 16.904 276.556 19.464L281.484 24.264ZM290.892 35.848C289.164 40.712 286.412 42.952 284.364 42.952C282.508 42.952 281.42 41.096 281.42 38.792C281.42 35.272 284.044 30.664 290.316 30.216C290.316 32.328 290.508 34.184 290.892 35.848ZM380.602 45.448V15.816H371.322V20.808C369.594 17.224 365.946 15.432 362.426 15.496C348.858 15.688 348.858 45.128 362.426 45.32C365.946 45.384 369.594 43.592 371.322 40.008V60.616H382.138C381.114 58.952 380.538 51.976 380.602 45.448ZM366.522 41.928C360.442 41.928 360.506 18.888 366.522 18.888C368.762 18.888 371.322 22.152 371.322 28.36V32.456C371.322 38.664 368.762 41.928 366.522 41.928ZM419.361 15.752L408.609 15.816C409.633 17.48 410.081 24.328 410.081 30.984V32.456C410.081 38.664 407.521 41.928 405.281 41.928C402.913 41.928 400.801 38.216 400.801 31.368V15.816H390.113C391.329 17.8 391.521 27.592 391.585 35.144C391.585 41.8 396.321 45.256 401.185 45.32C404.705 45.384 408.353 43.592 410.081 40.008V45H420.833C419.873 43.4 419.361 37.32 419.361 31.112V15.752ZM438.77 31.56C450.674 31.496 454.45 27.144 454.45 23.112C454.45 19.144 450.674 15.496 443.89 15.496C433.97 15.496 428.85 23.176 428.85 30.792C428.85 38.152 433.65 45.32 443.186 45.32C449.586 45.32 453.618 42.056 455.026 37.064C452.914 41.096 449.394 42.056 447.218 42.056C442.162 42.12 439.474 36.936 438.77 31.56ZM444.658 17.096C447.218 17.096 448.37 19.912 448.37 22.28C448.37 25.992 445.618 29.96 438.642 29.96C438.642 29.832 438.642 29.704 438.642 29.64L438.578 28.936C438.578 25.416 439.794 17.096 444.658 17.096ZM480.333 6.984C480.333 4.168 482.701 2.056 485.581 2.056C488.461 2.056 490.765 4.168 490.765 6.984C490.765 9.928 488.461 12.04 485.581 12.04C482.701 12.04 480.333 9.928 480.333 6.984ZM490.829 15.816H480.077C481.101 17.48 481.549 24.328 481.549 30.984L481.613 44.936C481.613 48.008 483.853 52.808 483.853 55.944C483.853 58.376 482.573 59.336 480.973 59.336C478.925 59.336 476.365 57.864 474.829 55.88L473.677 56.968C475.597 59.592 478.477 61 481.357 61C486.157 61 490.893 57.416 490.893 50.056L490.829 15.816ZM526.883 26.376C526.883 18.632 520.291 15.496 514.019 15.496C509.795 15.496 505.699 16.904 503.843 19.464L508.771 24.264C508.131 20.168 510.563 17.096 513.059 17.096C515.299 17.096 517.603 19.656 517.603 26.376V28.552C504.483 28.808 499.875 33.928 499.875 38.6C499.875 42.056 502.435 45.32 508.259 45.32C512.227 45.32 515.619 43.784 517.603 40.392V45.064L528.355 45C527.331 43.336 526.883 36.488 526.883 29.832V26.376ZM517.603 37.32C515.875 41.16 513.443 42.952 511.651 42.952C509.795 42.952 508.707 41.096 508.707 38.792C508.707 35.272 511.331 30.664 517.603 30.216V37.32ZM520.483 5.448L517.987 2.184L507.747 10.76L508.963 12.232C512.547 9.608 517.603 6.088 520.483 5.448ZM579.526 37.064C577.414 41.096 573.894 42.056 571.718 42.056C565.766 42.12 563.014 34.632 563.078 28.424C563.078 22.792 565.446 17.096 569.926 17.096C574.15 17.096 576.646 22.28 578.31 25.416L579.526 19.016C577.798 17.096 573.51 15.496 568.838 15.496C558.47 15.496 553.35 23.24 553.35 30.792C553.35 38.152 558.15 45.32 567.686 45.32C574.086 45.32 578.118 42.056 579.526 37.064ZM603.54 45.32C624.916 44.488 623.764 14.664 602.388 15.496C580.948 16.328 582.164 46.152 603.54 45.32ZM603.028 17.096C611.284 17.096 611.092 43.72 602.964 43.72C594.644 43.72 594.9 17.096 603.028 17.096ZM647.044 45H657.732C656.516 43.016 656.324 33.224 656.26 25.672C656.26 19.016 651.524 15.56 646.66 15.496C643.14 15.432 639.492 17.224 637.764 20.808V15.816H627.012C627.972 17.416 628.484 23.496 628.484 29.704V45.064L639.236 45C638.212 43.336 637.764 36.488 637.764 29.832V28.36C637.764 22.152 640.324 18.888 642.564 18.888C644.932 18.888 647.044 22.6 647.044 29.448V45ZM684.453 40.2C682.917 42.184 680.357 43.72 678.309 43.656C676.709 43.656 675.429 42.696 675.429 40.264C675.365 37.128 677.669 32.328 677.669 29.256V17.416H683.301V15.816H677.669V8.456H675.813C672.997 12.232 670.629 13.832 665.125 15.816V17.416H668.389V34.376C668.389 41.736 673.125 45.384 677.925 45.32C680.805 45.32 683.685 43.912 685.605 41.288L684.453 40.2ZM700.845 31.56C712.749 31.496 716.525 27.144 716.525 23.112C716.525 19.144 712.749 15.496 705.965 15.496C696.045 15.496 690.925 23.176 690.925 30.792C690.925 38.152 695.725 45.32 705.261 45.32C711.661 45.32 715.693 42.056 717.101 37.064C714.989 41.096 711.469 42.056 709.293 42.056C704.237 42.12 701.549 36.936 700.845 31.56ZM706.733 17.096C709.293 17.096 710.445 19.912 710.445 22.28C710.445 25.992 707.693 29.96 700.717 29.96C700.717 29.832 700.717 29.704 700.717 29.64L700.653 28.936C700.653 25.416 701.869 17.096 706.733 17.096ZM725.356 6.984C725.356 9.928 727.66 12.04 730.604 12.04C733.484 12.04 735.788 9.928 735.788 6.984C735.788 4.168 733.484 2.056 730.604 2.056C727.66 2.056 725.356 4.168 725.356 6.984ZM726.572 45.064L737.324 45C736.3 43.336 735.788 36.488 735.852 29.832V15.816H725.1C726.06 17.416 726.572 23.496 726.572 29.704V45.064Z" fill="#7D4C23"/>
</svg>
