<svg width="264" height="62" viewBox="0 0 264 62" fill="none" xmlns="http://www.w3.org/2000/svg">
<path d="M49.433 8.184C49.433 4.856 49.657 1.432 50.169 0.599998H44.793V12.44C42.905 12.664 40.825 12.152 39.001 12.632V0.599998H33.625C34.105 1.4 34.361 4.44 34.361 7.544V16.216C34.361 19.32 34.105 22.36 33.625 23.16C35.321 23.16 36.569 24.824 37.913 27.032C31.033 30.136 23.961 34.424 15.065 34.424C5.14499 34.424 0.888996 28.824 0.856995 22.52C0.824997 15.096 6.681 9.656 14.745 9.656C18.329 9.656 22.073 10.968 24.697 13.624C22.233 10.68 18.553 9.24 14.745 9.24C6.265 9.208 0.216995 14.84 0.216995 23.032C0.216995 30.616 5.529 37.336 15.353 37.336C24.761 37.336 31.769 31.768 38.457 27.928C40.825 31.864 44.089 36.792 51.097 36.792C56.793 36.792 59.865 33.816 59.865 30.744C59.865 27.416 56.217 23.928 49.721 23.928C46.201 23.928 42.873 24.92 39.545 26.328C39.193 24.856 38.969 23.32 38.969 21.848C38.969 21.144 38.969 20.408 38.969 19.704L39.001 15.48C39.001 14.808 39.001 14.136 39.001 13.464C40.761 12.952 42.905 13.432 44.793 13.272V23H50.169C49.657 22.168 49.433 18.744 49.433 15.416V8.184ZM39.769 27.192C42.841 25.56 45.881 24.376 49.145 24.376C54.585 24.376 57.209 27.64 57.209 30.744C57.209 33.624 54.937 36.312 50.361 36.312C45.017 36.312 41.209 32.12 39.769 27.192ZM54.3092 3.992C54.3092 5.464 55.4612 6.52 56.9332 6.52C58.3732 6.52 59.5252 5.464 59.5252 3.992C59.5252 2.584 58.3732 1.528 56.9332 1.528C55.4612 1.528 54.3092 2.584 54.3092 3.992ZM54.9172 15.352C54.9172 21.88 58.0532 23.864 64.3892 23.832C68.9012 23.8 73.3492 21.976 73.3492 18.584C73.3492 13.72 65.6052 13.88 65.7012 10.936C65.7332 9.848 66.9492 9.048 68.2292 9.048C69.6692 9.048 71.1733 10.104 70.7572 12.632L73.2212 10.232C72.2932 8.952 70.2452 8.248 68.1332 8.248C65.0612 8.248 61.8292 9.72 61.8292 12.6C61.8292 17.24 69.5092 17.72 69.5092 20.472C69.5092 21.944 67.4612 23 65.1892 23C62.5012 23.032 59.5572 21.432 59.5572 16.088V8.408H54.1812C54.6612 9.208 54.9172 12.248 54.9172 15.352ZM86.714 20.6C85.946 21.592 84.666 22.36 83.642 22.328C82.842 22.328 82.202 21.848 82.202 20.632C82.17 19.064 83.322 16.664 83.322 15.128V9.208H86.138V8.408H83.322V4.728H82.394C80.986 6.616 79.802 7.416 77.05 8.408V9.208H78.682V17.688C78.682 21.368 81.05 23.192 83.45 23.16C84.89 23.16 86.33 22.456 87.29 21.144L86.714 20.6ZM98.27 23.16C108.958 22.744 108.382 7.832 97.694 8.248C86.974 8.664 87.582 23.576 98.27 23.16ZM98.014 9.048C102.142 9.048 102.046 22.36 97.982 22.36C93.822 22.36 93.95 9.048 98.014 9.048ZM101.15 3.224L99.902 1.592L94.782 5.88L95.39 6.616C97.182 5.304 99.71 3.544 101.15 3.224ZM110.742 23.032L116.118 23C115.606 22.168 115.35 18.744 115.382 15.416V15.128C115.382 12.216 116.566 9.048 118.422 9.048C119.958 9.048 120.438 11.32 120.214 12.568L122.71 10.2C121.91 9.08 120.31 8.248 118.806 8.248C117.238 8.248 116.118 8.984 115.382 10.136V8.408H110.006C110.486 9.208 110.742 12.248 110.742 15.352V23.032ZM126.097 3.992C126.097 5.464 127.249 6.52 128.721 6.52C130.161 6.52 131.313 5.464 131.313 3.992C131.313 2.584 130.161 1.528 128.721 1.528C127.249 1.528 126.097 2.584 126.097 3.992ZM126.705 23.032L132.081 23C131.569 22.168 131.313 18.744 131.345 15.416V8.408H125.969C126.449 9.208 126.705 12.248 126.705 15.352V23.032ZM140.536 12.632C140.216 10.584 141.432 9.048 142.68 9.048C143.8 9.048 144.952 10.328 144.952 13.688V14.776C138.392 14.904 136.088 17.464 136.088 19.8C136.088 21.528 137.368 23.16 140.28 23.16C142.68 23.16 144.728 21.88 145.528 19.384C146.712 22.808 150.008 23.864 154.808 23.832C159.576 23.8 163.416 21.976 163.416 18.584C163.416 13.72 155.672 13.88 155.768 10.936C155.8 9.848 157.016 9.048 158.296 9.048C159.736 9.048 161.24 10.104 160.824 12.632L163.288 10.232C162.36 8.952 160.312 8.248 158.2 8.248C155.128 8.248 151.896 9.72 151.896 12.6C151.896 17.24 159.576 17.72 159.576 20.472C159.576 21.944 158.136 23 155.608 23C152.92 23 149.592 21.432 149.592 16.088V13.688C149.592 9.816 146.296 8.248 143.16 8.248C141.048 8.248 139 8.952 138.072 10.232L140.536 12.632ZM145.24 18.424C144.376 20.856 143 21.976 141.976 21.976C141.048 21.976 140.504 21.048 140.504 19.896C140.504 18.136 141.816 15.832 144.952 15.608C144.952 16.664 145.048 17.592 145.24 18.424ZM190.095 23.224V8.408H185.455V10.904C184.591 9.112 182.767 8.216 181.007 8.248C174.223 8.344 174.223 23.064 181.007 23.16C182.767 23.192 184.591 22.296 185.455 20.504V30.808H190.863C190.351 29.976 190.063 26.488 190.095 23.224ZM183.055 21.464C180.015 21.464 180.047 9.944 183.055 9.944C184.175 9.944 185.455 11.576 185.455 14.68V16.728C185.455 19.832 184.175 21.464 183.055 21.464ZM209.474 8.376L204.098 8.408C204.61 9.24 204.834 12.664 204.834 15.992V16.728C204.834 19.832 203.554 21.464 202.434 21.464C201.25 21.464 200.194 19.608 200.194 16.184V8.408H194.85C195.458 9.4 195.554 14.296 195.586 18.072C195.586 21.4 197.954 23.128 200.386 23.16C202.146 23.192 203.97 22.296 204.834 20.504V23H210.21C209.73 22.2 209.474 19.16 209.474 16.056V8.376ZM219.179 16.28C225.131 16.248 227.019 14.072 227.019 12.056C227.019 10.072 225.131 8.248 221.739 8.248C216.779 8.248 214.219 12.088 214.219 15.896C214.219 19.576 216.619 23.16 221.387 23.16C224.587 23.16 226.603 21.528 227.307 19.032C226.251 21.048 224.491 21.528 223.403 21.528C220.875 21.56 219.531 18.968 219.179 16.28ZM222.123 9.048C223.403 9.048 223.979 10.456 223.979 11.64C223.979 13.496 222.603 15.48 219.115 15.48C219.115 15.416 219.115 15.352 219.115 15.32L219.083 14.968C219.083 13.208 219.691 9.048 222.123 9.048ZM239.96 3.992C239.96 2.584 241.144 1.528 242.584 1.528C244.024 1.528 245.176 2.584 245.176 3.992C245.176 5.464 244.024 6.52 242.584 6.52C241.144 6.52 239.96 5.464 239.96 3.992ZM245.208 8.408H239.832C240.344 9.24 240.568 12.664 240.568 15.992L240.6 22.968C240.6 24.504 241.72 26.904 241.72 28.472C241.72 29.688 241.08 30.168 240.28 30.168C239.256 30.168 237.976 29.432 237.208 28.44L236.632 28.984C237.592 30.296 239.032 31 240.472 31C242.872 31 245.24 29.208 245.24 25.528L245.208 8.408ZM263.235 13.688C263.235 9.816 259.939 8.248 256.803 8.248C254.691 8.248 252.643 8.952 251.715 10.232L254.179 12.632C253.859 10.584 255.075 9.048 256.323 9.048C257.443 9.048 258.595 10.328 258.595 13.688V14.776C252.035 14.904 249.731 17.464 249.731 19.8C249.731 21.528 251.011 23.16 253.923 23.16C255.907 23.16 257.603 22.392 258.595 20.696V23.032L263.971 23C263.459 22.168 263.235 18.744 263.235 15.416V13.688ZM258.595 19.16C257.731 21.08 256.515 21.976 255.619 21.976C254.691 21.976 254.147 21.048 254.147 19.896C254.147 18.136 255.459 15.832 258.595 15.608V19.16ZM260.035 3.224L258.787 1.592L253.667 5.88L254.275 6.616C256.067 5.304 258.595 3.544 260.035 3.224ZM117.091 57.032C116.035 59.048 114.275 59.528 113.187 59.528C110.211 59.56 108.835 55.816 108.867 52.712C108.867 49.896 110.051 47.048 112.291 47.048C114.403 47.048 115.651 49.64 116.483 51.208L117.091 48.008C116.227 47.048 114.083 46.248 111.747 46.248C106.563 46.248 104.003 50.12 104.003 53.896C104.003 57.576 106.403 61.16 111.171 61.16C114.371 61.16 116.387 59.528 117.091 57.032ZM129.098 61.16C139.786 60.744 139.21 45.832 128.522 46.248C117.802 46.664 118.41 61.576 129.098 61.16ZM128.842 47.048C132.97 47.048 132.874 60.36 128.81 60.36C124.65 60.36 124.778 47.048 128.842 47.048ZM150.85 61H156.194C155.586 60.008 155.49 55.112 155.458 51.336C155.458 48.008 153.09 46.28 150.658 46.248C148.898 46.216 147.074 47.112 146.21 48.904V46.408H140.834C141.314 47.208 141.57 50.248 141.57 53.352V61.032L146.946 61C146.434 60.168 146.21 56.744 146.21 53.416V52.68C146.21 49.576 147.49 47.944 148.61 47.944C149.794 47.944 150.85 49.8 150.85 53.224V61ZM169.555 58.6C168.787 59.592 167.507 60.36 166.483 60.328C165.683 60.328 165.043 59.848 165.043 58.632C165.011 57.064 166.163 54.664 166.163 53.128V47.208H168.979V46.408H166.163V42.728H165.235C163.827 44.616 162.643 45.416 159.891 46.408V47.208H161.523V55.688C161.523 59.368 163.891 61.192 166.291 61.16C167.731 61.16 169.171 60.456 170.131 59.144L169.555 58.6ZM177.751 54.28C183.703 54.248 185.591 52.072 185.591 50.056C185.591 48.072 183.703 46.248 180.311 46.248C175.351 46.248 172.791 50.088 172.791 53.896C172.791 57.576 175.191 61.16 179.959 61.16C183.159 61.16 185.175 59.528 185.879 57.032C184.823 59.048 183.063 59.528 181.975 59.528C179.447 59.56 178.103 56.968 177.751 54.28ZM180.695 47.048C181.975 47.048 182.551 48.456 182.551 49.64C182.551 51.496 181.175 53.48 177.687 53.48C177.687 53.416 177.687 53.352 177.687 53.32L177.655 52.968C177.655 51.208 178.263 47.048 180.695 47.048ZM190.006 41.992C190.006 43.464 191.158 44.52 192.63 44.52C194.07 44.52 195.222 43.464 195.222 41.992C195.222 40.584 194.07 39.528 192.63 39.528C191.158 39.528 190.006 40.584 190.006 41.992ZM190.614 61.032L195.99 61C195.478 60.168 195.222 56.744 195.254 53.416V46.408H189.878C190.358 47.208 190.614 50.248 190.614 53.352V61.032Z" fill="#7D4C23"/>
</svg>
