<svg width="285" height="38" viewBox="0 0 285 38" fill="none" xmlns="http://www.w3.org/2000/svg">
<path d="M6.4375 23H9.2215C8.7095 22.168 8.4855 18.744 8.4855 15.416V8.376L15.0135 19L16.8375 14.328L16.8055 14.296L21.0295 6.776C21.0295 17.176 21.0295 3.288 21.0295 21.848C21.0295 23.32 20.8375 24.856 20.4855 26.328C17.1575 24.92 13.8615 23.928 10.3415 23.928C3.8455 23.928 0.165497 27.416 0.165497 30.744C0.165497 33.816 3.2375 36.792 8.9335 36.792C15.9415 36.792 19.2055 31.864 21.5735 27.928C28.2615 31.768 35.3015 37.336 44.7095 37.336C54.5335 37.336 59.8135 30.616 59.8135 23.032C59.8135 14.84 53.7655 9.208 45.2855 9.24C41.4775 9.24 37.7975 10.68 35.3335 13.624C37.9575 10.968 41.7335 9.656 45.3175 9.656C53.3815 9.656 59.2055 15.096 59.1735 22.52C59.1415 28.824 54.8855 34.424 44.9655 34.424C36.0695 34.424 28.9975 30.136 22.1175 27.032C23.4615 24.824 24.7095 23.16 26.4055 23.16C25.9255 22.36 25.6695 19.352 25.6695 16.248V8.184C25.6695 4.856 25.8935 1.432 26.4055 0.599998H21.0295L16.1975 13.304L8.4855 0.631998V0.599998H6.4695C6.9495 1.4 7.2055 4.44 7.2055 7.544V15.416C7.2055 18.68 6.9495 22.168 6.4375 23ZM2.8215 30.744C2.8215 27.64 5.4775 24.376 10.9175 24.376C14.1815 24.376 17.1895 25.56 20.2615 27.192C18.8215 32.12 15.0135 36.312 9.6695 36.312C5.0935 36.312 2.8215 33.624 2.8215 30.744ZM43.9352 13.688C43.9352 9.816 40.6392 8.248 37.5032 8.248C35.3912 8.248 33.3432 8.952 32.4152 10.232L34.8792 12.632C34.5592 10.584 35.7752 9.048 37.0232 9.048C38.1432 9.048 39.2952 10.328 39.2952 13.688V14.776C32.7352 14.904 30.4312 17.464 30.4312 19.8C30.4312 21.528 31.7112 23.16 34.6232 23.16C36.6072 23.16 38.3032 22.392 39.2952 20.696V23.032L44.6712 23C44.1592 22.168 43.9352 18.744 43.9352 15.416V13.688ZM39.2952 19.16C38.4312 21.08 37.2152 21.976 36.3192 21.976C35.3912 21.976 34.8472 21.048 34.8472 19.896C34.8472 18.136 36.1592 15.832 39.2952 15.608V19.16ZM40.7352 3.224L39.4872 1.592L34.3672 5.88L34.9752 6.616C36.7672 5.304 39.2952 3.544 40.7352 3.224ZM62.851 23.224V8.408H58.211V10.904C57.347 9.112 55.523 8.216 53.763 8.248C46.979 8.344 46.979 23.064 53.763 23.16C55.523 23.192 57.347 22.296 58.211 20.504V30.808H63.619C63.107 29.976 62.819 26.488 62.851 23.224ZM55.811 21.464C52.771 21.464 52.803 9.944 55.811 9.944C56.931 9.944 58.211 11.576 58.211 14.68V16.728C58.211 19.832 56.931 21.464 55.811 21.464ZM82.2302 8.376L76.8542 8.408C77.3662 9.24 77.5902 12.664 77.5902 15.992V16.728C77.5902 19.832 76.3102 21.464 75.1902 21.464C74.0062 21.464 72.9502 19.608 72.9502 16.184V8.408H67.6062C68.2142 9.4 68.3102 14.296 68.3422 18.072C68.3422 21.4 70.7102 23.128 73.1422 23.16C74.9022 23.192 76.7262 22.296 77.5902 20.504V23H82.9662C82.4862 22.2 82.2302 19.16 82.2302 16.056V8.376ZM87.103 3.992C87.103 5.464 88.255 6.52 89.727 6.52C91.167 6.52 92.319 5.464 92.319 3.992C92.319 2.584 91.167 1.528 89.727 1.528C88.255 1.528 87.103 2.584 87.103 3.992ZM87.711 23.032L93.087 23C92.575 22.168 92.319 18.744 92.351 15.416V8.408H86.975C87.455 9.208 87.711 12.248 87.711 15.352V23.032ZM107.11 23H112.454C111.846 22.008 111.75 17.112 111.718 13.336C111.718 10.008 109.35 8.28 106.918 8.248C105.158 8.216 103.334 9.112 102.47 10.904V8.408H97.0937C97.5737 9.208 97.8297 12.248 97.8297 15.352V23.032L103.206 23C102.694 22.168 102.47 18.744 102.47 15.416V14.68C102.47 11.576 103.75 9.944 104.87 9.944C106.054 9.944 107.11 11.8 107.11 15.224V23ZM129.966 13.688C129.966 9.816 126.67 8.248 123.534 8.248C121.422 8.248 119.374 8.952 118.446 10.232L120.91 12.632C120.59 10.584 121.806 9.048 123.054 9.048C124.174 9.048 125.326 10.328 125.326 13.688V14.776C118.766 14.904 116.462 17.464 116.462 19.8C116.462 21.528 117.742 23.16 120.654 23.16C122.638 23.16 124.334 22.392 125.326 20.696V23.032L130.702 23C130.19 22.168 129.966 18.744 129.966 15.416V13.688ZM125.326 19.16C124.462 21.08 123.246 21.976 122.35 21.976C121.422 21.976 120.878 21.048 120.878 19.896C120.878 18.136 122.19 15.832 125.326 15.608V19.16ZM157.344 15.416V0.599998H151.968C152.448 1.4 152.704 4.44 152.704 7.544V10.872C151.808 9.144 150.048 8.216 148.288 8.248C141.504 8.344 141.504 23.064 148.288 23.16C150.048 23.192 151.808 22.264 152.704 20.536V23L158.08 22.968C157.568 22.136 157.344 18.744 157.344 15.416ZM150.336 21.464C147.296 21.464 147.328 9.944 150.336 9.944C151.36 9.944 152.512 11.288 152.704 13.848V17.56C152.512 20.12 151.36 21.464 150.336 21.464ZM170.389 23.16C181.077 22.744 180.501 7.832 169.813 8.248C159.093 8.664 159.701 23.576 170.389 23.16ZM170.133 9.048C174.261 9.048 174.165 22.36 170.101 22.36C165.941 22.36 166.069 9.048 170.133 9.048ZM200.283 20.6C199.515 21.592 198.235 22.36 197.211 22.328C196.411 22.328 195.771 21.848 195.771 20.632C195.739 19.064 196.891 16.664 196.891 15.128V9.208H199.707V8.408H196.891V4.728H195.963C194.555 6.616 193.371 7.416 190.619 8.408V9.208H192.251V17.688C192.251 21.368 194.619 23.192 197.019 23.16C198.459 23.16 199.899 22.456 200.859 21.144L200.283 20.6ZM218.943 16.568C216.447 20.12 214.655 21.56 212.703 21.56C210.559 21.56 208.927 19.352 208.479 16.28C214.431 16.248 216.319 14.072 216.319 12.056C216.319 10.072 214.431 8.248 211.039 8.248C206.079 8.248 203.519 12.088 203.519 15.896C203.519 20.152 206.495 23.16 210.687 23.16C218.943 23.16 222.559 9.944 225.887 9.944C227.199 9.944 228.063 12.088 228.063 15.224V23H233.407C232.959 22.264 232.703 19.128 232.671 13.784C232.863 11.544 233.855 9.944 235.039 9.944C236.351 9.944 237.279 12.12 237.279 15.224V23H242.623C242.143 22.232 241.887 18.712 241.887 13.336C241.887 10.392 239.903 8.28 237.087 8.248C234.943 8.216 233.087 9.496 232.415 11.48C231.807 9.56 230.047 8.28 227.935 8.248C226.463 8.216 225.023 8.952 223.583 10.392V8.408H218.207C218.655 9.144 218.943 11.928 218.943 15.352V16.568ZM211.423 9.048C212.703 9.048 213.279 10.456 213.279 11.64C213.279 13.496 211.903 15.48 208.415 15.48C208.287 13.592 208.831 9.048 211.423 9.048ZM218.943 18.616V23.032L224.319 23C223.871 22.264 223.583 19.288 223.583 15.416V12.216C221.759 14.712 220.895 16.312 218.943 18.616ZM247.373 30.808H252.749C252.237 29.976 252.013 26.552 252.013 23.224V20.536C252.909 22.264 254.669 23.192 256.429 23.16C263.213 23.064 263.213 8.344 256.429 8.248C254.669 8.216 252.909 9.144 252.013 10.872V8.408H246.637C247.117 9.208 247.373 12.248 247.373 15.352V30.808ZM254.381 21.464C253.357 21.464 252.205 20.12 252.013 17.56V13.848C252.205 11.288 253.357 9.944 254.381 9.944C257.421 9.944 257.421 21.464 254.381 21.464ZM273.826 23.16C284.514 22.744 283.938 7.832 273.25 8.248C262.53 8.664 263.138 23.576 273.826 23.16ZM273.57 9.048C277.698 9.048 277.602 22.36 273.538 22.36C269.378 22.36 269.506 9.048 273.57 9.048Z" fill="#7D4C23"/>
</svg>
