<svg width="245" height="31" viewBox="0 0 245 31" fill="none" xmlns="http://www.w3.org/2000/svg">
<path d="M10.1066 0.599998H0.922622C1.40262 1.4 1.65862 4.44 1.65862 7.544V15.416C1.65862 18.68 1.40262 22.168 0.890622 23H7.03462C6.52262 22.168 6.29862 18.744 6.29862 15.416V13.112C10.6506 13.112 16.7306 12.76 16.7306 6.872C16.7306 3.896 14.5866 0.599998 10.1066 0.599998ZM6.29862 1.4C10.6506 1.4 12.2506 3.96 12.2506 6.68C12.2506 9.528 10.4906 12.28 6.29862 12.312V1.4ZM34.2321 13.688C34.2321 9.816 30.9361 8.248 27.8001 8.248C25.6881 8.248 23.6401 8.952 22.7121 10.232L25.1761 12.632C24.8561 10.584 26.0721 9.048 27.3201 9.048C28.4401 9.048 29.5921 10.328 29.5921 13.688V14.776C23.0321 14.904 20.7281 17.464 20.7281 19.8C20.7281 21.528 22.0081 23.16 24.9201 23.16C26.9041 23.16 28.6001 22.392 29.5921 20.696V23.032L34.9681 23C34.4561 22.168 34.2321 18.744 34.2321 15.416V13.688ZM29.5921 19.16C28.7281 21.08 27.5121 21.976 26.6161 21.976C25.6881 21.976 25.1441 21.048 25.1441 19.896C25.1441 18.136 26.4561 15.832 29.5921 15.608V19.16ZM39.7079 23.032L45.0839 23C44.5719 22.168 44.3159 18.744 44.3479 15.416V15.128C44.3479 12.216 45.5319 9.048 47.3879 9.048C48.9239 9.048 49.4039 11.32 49.1799 12.568L51.6759 10.2C50.8759 9.08 49.2759 8.248 47.7719 8.248C46.2039 8.248 45.0839 8.984 44.3479 10.136V8.408H38.9719C39.4519 9.208 39.7079 12.248 39.7079 15.352V23.032ZM66.8446 13.688C66.8446 9.816 63.5486 8.248 60.4126 8.248C58.3006 8.248 56.2526 8.952 55.3246 10.232L57.7886 12.632C57.4686 10.584 58.6846 9.048 59.9326 9.048C61.0526 9.048 62.2046 10.328 62.2046 13.688V14.776C55.6446 14.904 53.3406 17.464 53.3406 19.8C53.3406 21.528 54.6206 23.16 57.5326 23.16C59.5166 23.16 61.2126 22.392 62.2046 20.696V23.032L67.5806 23C67.0686 22.168 66.8446 18.744 66.8446 15.416V13.688ZM62.2046 19.16C61.3406 21.08 60.1246 21.976 59.2286 21.976C58.3006 21.976 57.7566 21.048 57.7566 19.896C57.7566 18.136 59.0686 15.832 62.2046 15.608V19.16ZM87.1821 1.4C90.4461 1.4 94.0301 2.072 94.7661 2.936V0.599998H80.0781C80.5581 1.4 80.8141 4.44 80.8141 7.544V21.688C80.8141 29.112 76.9741 30.392 74.7661 30.392C72.3341 30.392 70.9261 28.92 71.3101 26.456L68.8461 28.856C69.7741 30.136 71.5021 30.84 73.9341 30.84C82.0301 30.84 81.1341 23 86.1901 23C85.7101 22.2 85.4541 19.064 85.4541 15.896V12.696C87.9821 12.792 90.3501 13.016 90.9901 13.432V11.096C90.3501 11.512 87.9821 11.736 85.4541 11.832V1.4H87.1821ZM106.298 23.16C116.986 22.744 116.41 7.832 105.722 8.248C95.0021 8.664 95.6101 23.576 106.298 23.16ZM106.042 9.048C110.17 9.048 110.074 22.36 106.01 22.36C101.85 22.36 101.978 9.048 106.042 9.048ZM127.386 20.6C126.618 21.592 125.338 22.36 124.314 22.328C123.514 22.328 122.874 21.848 122.874 20.632C122.842 19.064 123.994 16.664 123.994 15.128V9.208H126.81V8.408H123.994V4.728H123.066C121.658 6.616 120.474 7.416 117.722 8.408V9.208H119.354V17.688C119.354 21.368 121.722 23.192 124.122 23.16C125.562 23.16 127.002 22.456 127.962 21.144L127.386 20.6ZM138.942 23.16C149.63 22.744 149.054 7.832 138.366 8.248C127.646 8.664 128.254 23.576 138.942 23.16ZM138.686 9.048C142.814 9.048 142.718 22.36 138.654 22.36C134.494 22.36 134.622 9.048 138.686 9.048ZM141.822 3.224L140.574 1.592L135.454 5.88L136.062 6.616C137.854 5.304 140.382 3.544 141.822 3.224ZM157.494 20.312C164.246 20.312 165.846 13.304 162.294 9.976C162.582 9.08 163.446 8.408 165.046 8.632L162.998 6.648C162.262 7.224 161.814 8.248 161.622 9.432C160.566 8.728 159.19 8.28 157.494 8.28C150.646 8.28 149.078 15.48 152.822 18.744C151.318 19.928 150.678 21.208 150.678 22.456C150.71 25.528 153.718 25.848 156.694 25.848C159.574 25.848 162.39 25.528 162.39 27.096C162.39 28.664 159.574 30.168 157.206 30.168C155.286 30.168 153.654 29.272 154.102 26.648L151.638 29.016C152.598 30.392 154.518 31 156.63 31C160.534 31 165.046 28.632 165.046 25.048V25.016C165.046 22.2 162.71 21.688 160.118 21.688C158.582 21.688 156.918 21.88 155.606 21.88C154.006 21.88 152.822 21.624 152.822 20.472C152.822 20.056 153.046 19.608 153.462 19.192C154.486 19.864 155.83 20.312 157.494 20.312ZM157.494 8.952C160.31 8.952 160.31 19.64 157.494 19.64C154.646 19.64 154.646 8.952 157.494 8.952ZM169.127 23.032L174.503 23C173.991 22.168 173.735 18.744 173.767 15.416V15.128C173.767 12.216 174.951 9.048 176.807 9.048C178.343 9.048 178.823 11.32 178.599 12.568L181.095 10.2C180.295 9.08 178.695 8.248 177.191 8.248C175.623 8.248 174.503 8.984 173.767 10.136V8.408H168.391C168.871 9.208 169.127 12.248 169.127 15.352V23.032ZM196.263 13.688C196.263 9.816 192.967 8.248 189.831 8.248C187.719 8.248 185.671 8.952 184.743 10.232L187.207 12.632C186.887 10.584 188.103 9.048 189.351 9.048C190.471 9.048 191.623 10.328 191.623 13.688V14.776C185.063 14.904 182.759 17.464 182.759 19.8C182.759 21.528 184.039 23.16 186.951 23.16C188.935 23.16 190.631 22.392 191.623 20.696V23.032L196.999 23C196.487 22.168 196.263 18.744 196.263 15.416V13.688ZM191.623 19.16C190.759 21.08 189.543 21.976 188.647 21.976C187.719 21.976 187.175 21.048 187.175 19.896C187.175 18.136 188.487 15.832 191.623 15.608V19.16ZM211.851 2.392C210.763 0.887999 209.131 0.439999 207.499 0.439999C204.523 0.439999 201.803 1.912 201.803 5.848V8.408H200.203V9.208H201.803V23H207.179C206.667 22.168 206.443 18.744 206.443 15.416V9.208H209.259V8.408H206.443C206.443 5.816 203.403 1.208 207.179 1.272C209.099 1.304 209.611 3.256 209.355 4.76L211.851 2.392ZM220.567 23.16C231.255 22.744 230.679 7.832 219.991 8.248C209.271 8.664 209.879 23.576 220.567 23.16ZM220.311 9.048C224.439 9.048 224.343 22.36 220.279 22.36C216.119 22.36 216.247 9.048 220.311 9.048ZM244.111 18.584C244.111 13.72 236.367 13.88 236.463 10.936C236.495 9.848 237.711 9.048 238.991 9.048C240.431 9.048 241.935 10.104 241.519 12.632L243.983 10.232C243.055 8.952 241.007 8.248 238.895 8.248C235.823 8.248 232.591 9.72 232.591 12.6C232.591 17.24 240.271 17.72 240.271 20.472C240.271 21.624 238.927 22.36 237.551 22.36C235.983 22.328 234.351 21.336 234.799 18.776L232.303 21.176C233.263 22.488 235.407 23.16 237.615 23.16C240.815 23.16 244.111 21.752 244.111 18.584Z" fill="#7D4C23"/>
</svg>
