<svg width="295" height="69" viewBox="0 0 295 69" fill="none" xmlns="http://www.w3.org/2000/svg">
<path d="M58.8299 24.312C64.0779 24.312 66.7339 27.544 66.7019 30.68C66.7019 33.56 64.4299 36.312 59.8859 36.312C55.9499 36.312 52.4939 32.472 49.5499 27.608L46.2219 29.528C49.4539 33.688 53.7099 36.728 59.8859 36.728C66.6059 36.728 69.6459 33.752 69.6459 30.68C69.6459 27.352 66.0299 23.864 59.5019 23.864C55.8219 23.864 52.3339 24.952 48.8139 26.424C48.2059 25.432 47.4699 23.672 46.6379 21.56C46.8619 20.184 47.4059 18.136 48.0779 16.056L50.6379 8.184C51.6939 4.92 53.0699 1.432 53.8699 0.599998H51.5019C51.7259 1.432 50.8619 4.856 49.7739 8.184L45.9979 19.864C43.3099 12.632 40.2379 2.488 39.6299 0.599998H34.0939C34.8299 1.4 36.1419 4.44 37.1339 7.544C38.8939 12.952 41.8699 23.256 45.1339 28.056C39.0219 30.872 30.8299 34.072 23.0219 34.072C1.10188 34.072 2.76587 6.712 21.0379 6.712C25.0059 6.712 29.1659 8.152 32.0459 11.096C29.3259 7.832 25.2939 6.296 21.1019 6.264C0.525875 6.168 1.45387 37.272 23.3099 37.272C38.7019 37.272 48.7179 24.312 58.8299 24.312ZM65.3794 23.16C76.0674 22.744 75.4914 7.832 64.8034 8.248C54.0834 8.664 54.6914 23.576 65.3794 23.16ZM65.1234 9.048C69.2514 9.048 69.1554 22.36 65.0914 22.36C60.9314 22.36 61.0594 9.048 65.1234 9.048ZM77.8516 23H83.2276C82.7156 22.168 82.4916 18.744 82.4916 15.416V0.599998H77.1156C77.5956 1.4 77.8516 4.44 77.8516 7.544V23ZM96.8984 20.6C96.1304 21.592 94.8504 22.36 93.8264 22.328C93.0264 22.328 92.3864 21.848 92.3864 20.632C92.3544 19.064 93.5064 16.664 93.5064 15.128V9.208H96.3224V8.408H93.5064V4.728H92.5784C91.1704 6.616 89.9864 7.416 87.2344 8.408V9.208H88.8664V17.688C88.8664 21.368 91.2344 23.192 93.6344 23.16C95.0744 23.16 96.5144 22.456 97.4744 21.144L96.8984 20.6ZM105.094 16.28C111.046 16.248 112.934 14.072 112.934 12.056C112.934 10.072 111.046 8.248 107.654 8.248C102.694 8.248 100.134 12.088 100.134 15.896C100.134 19.576 102.534 23.16 107.302 23.16C110.502 23.16 112.518 21.528 113.222 19.032C112.166 21.048 110.406 21.528 109.318 21.528C106.79 21.56 105.446 18.968 105.094 16.28ZM108.038 9.048C109.318 9.048 109.894 10.456 109.894 11.64C109.894 13.496 108.518 15.48 105.03 15.48C105.03 15.416 105.03 15.352 105.03 15.32L104.998 14.968C104.998 13.208 105.606 9.048 108.038 9.048ZM139.22 13.688C139.22 9.816 135.924 8.248 132.788 8.248C130.676 8.248 128.628 8.952 127.7 10.232L130.164 12.632C129.844 10.584 131.06 9.048 132.308 9.048C133.428 9.048 134.58 10.328 134.58 13.688V14.776C128.02 14.904 125.716 17.464 125.716 19.8C125.716 21.528 126.996 23.16 129.908 23.16C131.892 23.16 133.588 22.392 134.58 20.696V23.032L139.956 23C139.444 22.168 139.22 18.744 139.22 15.416V13.688ZM134.58 19.16C133.716 21.08 132.5 21.976 131.604 21.976C130.676 21.976 130.132 21.048 130.132 19.896C130.132 18.136 131.444 15.832 134.58 15.608V19.16ZM152.279 23.16C162.967 22.744 162.391 7.832 151.703 8.248C140.983 8.664 141.591 23.576 152.279 23.16ZM152.023 9.048C156.151 9.048 156.055 22.36 151.991 22.36C147.831 22.36 147.959 9.048 152.023 9.048ZM173.245 30.808H178.621C178.109 29.976 177.885 26.552 177.885 23.224V20.536C178.781 22.264 180.541 23.192 182.301 23.16C189.085 23.064 189.085 8.344 182.301 8.248C180.541 8.216 178.781 9.144 177.885 10.872V8.408H172.509C172.989 9.208 173.245 12.248 173.245 15.352V30.808ZM180.253 21.464C179.229 21.464 178.077 20.12 177.885 17.56V13.848C178.077 11.288 179.229 9.944 180.253 9.944C183.293 9.944 183.293 21.464 180.253 21.464ZM195.826 12.632C195.506 10.584 196.722 9.048 197.97 9.048C199.09 9.048 200.242 10.328 200.242 13.688V14.776C193.682 14.904 191.378 17.464 191.378 19.8C191.378 21.528 192.658 23.16 195.57 23.16C197.97 23.16 200.018 21.88 200.818 19.384C202.002 22.808 205.298 23.864 210.098 23.832C214.866 23.8 218.706 21.976 218.706 18.584C218.706 13.72 210.962 13.88 211.058 10.936C211.09 9.848 212.306 9.048 213.586 9.048C215.026 9.048 216.53 10.104 216.114 12.632L218.578 10.232C217.65 8.952 215.602 8.248 213.49 8.248C210.418 8.248 207.186 9.72 207.186 12.6C207.186 17.24 214.866 17.72 214.866 20.472C214.866 21.944 213.426 23 210.898 23C208.21 23 204.882 21.432 204.882 16.088V13.688C204.882 9.816 201.586 8.248 198.45 8.248C196.338 8.248 194.29 8.952 193.362 10.232L195.826 12.632ZM200.53 18.424C199.666 20.856 198.29 21.976 197.266 21.976C196.338 21.976 195.794 21.048 195.794 19.896C195.794 18.136 197.106 15.832 200.242 15.608C200.242 16.664 200.338 17.592 200.53 18.424ZM234.211 18.584C234.211 13.72 226.467 13.88 226.563 10.936C226.595 9.848 227.811 9.048 229.091 9.048C230.531 9.048 232.035 10.104 231.619 12.632L234.083 10.232C233.155 8.952 231.107 8.248 228.995 8.248C225.923 8.248 222.691 9.72 222.691 12.6C222.691 17.24 230.371 17.72 230.371 20.472C230.371 21.624 229.027 22.36 227.651 22.36C226.083 22.328 224.451 21.336 224.899 18.776L222.403 21.176C223.363 22.488 225.507 23.16 227.715 23.16C230.915 23.16 234.211 21.752 234.211 18.584ZM251.713 13.688C251.713 9.816 248.417 8.248 245.281 8.248C243.169 8.248 241.121 8.952 240.193 10.232L242.657 12.632C242.337 10.584 243.553 9.048 244.801 9.048C245.921 9.048 247.073 10.328 247.073 13.688V14.776C240.513 14.904 238.209 17.464 238.209 19.8C238.209 21.528 239.489 23.16 242.401 23.16C244.385 23.16 246.081 22.392 247.073 20.696V23.032L252.449 23C251.937 22.168 251.713 18.744 251.713 15.416V13.688ZM247.073 19.16C246.209 21.08 244.993 21.976 244.097 21.976C243.169 21.976 242.625 21.048 242.625 19.896C242.625 18.136 243.937 15.832 247.073 15.608V19.16ZM270.597 15.416V0.599998H265.221C265.701 1.4 265.957 4.44 265.957 7.544V10.872C265.061 9.144 263.301 8.216 261.541 8.248C254.757 8.344 254.757 23.064 261.541 23.16C263.301 23.192 265.061 22.264 265.957 20.536V23L271.333 22.968C270.821 22.136 270.597 18.744 270.597 15.416ZM263.589 21.464C260.549 21.464 260.581 9.944 263.589 9.944C264.613 9.944 265.765 11.288 265.957 13.848V17.56C265.765 20.12 264.613 21.464 263.589 21.464ZM283.642 23.16C294.33 22.744 293.754 7.832 283.066 8.248C272.346 8.664 272.954 23.576 283.642 23.16ZM283.386 9.048C287.514 9.048 287.418 22.36 283.354 22.36C279.194 22.36 279.322 9.048 283.386 9.048ZM122.482 57.032C121.426 59.048 119.666 59.528 118.578 59.528C115.602 59.56 114.226 55.816 114.258 52.712C114.258 49.896 115.442 47.048 117.682 47.048C119.794 47.048 121.042 49.64 121.874 51.208L122.482 48.008C121.618 47.048 119.474 46.248 117.138 46.248C111.954 46.248 109.394 50.12 109.394 53.896C109.394 57.576 111.794 61.16 116.562 61.16C119.762 61.16 121.778 59.528 122.482 57.032ZM134.489 61.16C145.177 60.744 144.601 45.832 133.913 46.248C123.193 46.664 123.801 61.576 134.489 61.16ZM134.233 47.048C138.361 47.048 138.265 60.36 134.201 60.36C130.041 60.36 130.169 47.048 134.233 47.048ZM146.961 61H152.337C151.825 60.168 151.601 56.744 151.601 53.416V51.528C151.857 49.16 152.977 47.944 153.937 47.944C155.121 47.944 156.273 49.8 156.273 53.224V61H161.521C160.913 60.008 160.881 55.112 160.881 51.336C160.881 51.208 160.881 51.08 160.881 50.952C161.265 48.968 162.225 47.944 163.121 47.944C164.305 47.944 165.361 49.8 165.361 53.224V61H170.705C170.097 60.008 169.969 55.112 169.969 51.336C169.969 48.008 167.601 46.28 165.169 46.248C163.249 46.216 161.297 47.304 160.529 49.352C159.761 47.336 157.873 46.28 155.985 46.248C154.257 46.216 152.497 47.112 151.601 48.808V46.408H146.225C146.705 47.208 146.961 50.248 146.961 53.352V61ZM174.847 41.992C174.847 43.464 175.999 44.52 177.471 44.52C178.911 44.52 180.063 43.464 180.063 41.992C180.063 40.584 178.911 39.528 177.471 39.528C175.999 39.528 174.847 40.584 174.847 41.992ZM175.455 61.032L180.831 61C180.319 60.168 180.063 56.744 180.095 53.416V46.408H174.719C175.199 47.208 175.455 50.248 175.455 53.352V61.032ZM191.654 58.312C198.406 58.312 200.006 51.304 196.454 47.976C196.742 47.08 197.606 46.408 199.206 46.632L197.158 44.648C196.422 45.224 195.974 46.248 195.782 47.432C194.726 46.728 193.35 46.28 191.654 46.28C184.806 46.28 183.238 53.48 186.982 56.744C185.478 57.928 184.838 59.208 184.838 60.456C184.87 63.528 187.878 63.848 190.854 63.848C193.734 63.848 196.55 63.528 196.55 65.096C196.55 66.664 193.734 68.168 191.366 68.168C189.446 68.168 187.814 67.272 188.262 64.648L185.798 67.016C186.758 68.392 188.678 69 190.79 69C194.694 69 199.206 66.632 199.206 63.048V63.016C199.206 60.2 196.87 59.688 194.278 59.688C192.742 59.688 191.078 59.88 189.766 59.88C188.166 59.88 186.982 59.624 186.982 58.472C186.982 58.056 187.206 57.608 187.622 57.192C188.646 57.864 189.99 58.312 191.654 58.312ZM191.654 46.952C194.47 46.952 194.47 57.64 191.654 57.64C188.806 57.64 188.806 46.952 191.654 46.952ZM210.87 61.16C221.558 60.744 220.982 45.832 210.294 46.248C199.574 46.664 200.182 61.576 210.87 61.16ZM210.614 47.048C214.742 47.048 214.646 60.36 210.582 60.36C206.422 60.36 206.55 47.048 210.614 47.048Z" fill="#7D4C23"/>
</svg>
