<svg width="584" height="74" viewBox="0 0 584 74" fill="none" xmlns="http://www.w3.org/2000/svg">
<path d="M12.6313 45H18.1993C17.1753 43.336 16.7273 36.488 16.7273 29.832V15.752L29.7833 37L33.4313 27.656L33.3673 27.592L41.8153 12.552C41.8153 33.352 41.8153 5.576 41.8153 42.696C41.8153 45.64 41.4313 48.712 40.7273 51.656C34.0713 48.84 27.4792 46.856 20.4392 46.856C7.44725 46.856 0.0872498 53.832 0.0872498 60.488C0.0872498 66.632 6.23125 72.584 17.6233 72.584C31.6393 72.584 38.1673 62.728 42.9033 54.856C56.2793 62.536 70.3593 73.672 89.1753 73.672C108.823 73.672 119.383 60.232 119.383 45.064C119.383 28.68 107.287 17.416 90.3273 17.48C82.7113 17.48 75.3512 20.36 70.4233 26.248C75.6712 20.936 83.2233 18.312 90.3913 18.312C106.519 18.312 118.167 29.192 118.103 44.04C118.039 56.648 109.527 67.848 89.6873 67.848C71.8953 67.848 57.7513 59.272 43.9913 53.064C46.6793 48.648 49.1753 45.32 52.5673 45.32C51.6073 43.72 51.0953 37.704 51.0953 31.496V15.368C51.0953 8.712 51.5433 1.864 52.5673 0.199997H41.8153L32.1513 25.608L16.7273 0.263996V0.199997H12.6953C13.6553 1.8 14.1673 7.88 14.1673 14.088V29.832C14.1673 36.36 13.6553 43.336 12.6313 45ZM5.39925 60.488C5.39925 54.28 10.7112 47.752 21.5913 47.752C28.1193 47.752 34.1353 50.12 40.2793 53.384C37.3993 63.24 29.7833 71.624 19.0953 71.624C9.94325 71.624 5.39925 66.248 5.39925 60.488ZM70.5387 31.56C82.4428 31.496 86.2188 27.144 86.2188 23.112C86.2188 19.144 82.4428 15.496 75.6588 15.496C65.7387 15.496 60.6187 23.176 60.6187 30.792C60.6187 38.152 65.4187 45.32 74.9548 45.32C81.3547 45.32 85.3868 42.056 86.7948 37.064C84.6828 41.096 81.1628 42.056 78.9867 42.056C73.9307 42.12 71.2428 36.936 70.5387 31.56ZM70.3467 28.616C70.3467 22.792 72.7148 17.096 76.4268 17.096C78.9867 17.096 80.1388 19.912 80.1388 22.28C80.1388 25.992 77.3867 29.96 70.4107 29.96C70.4107 29.512 70.3467 29.064 70.3467 28.616ZM80.0748 5.448C77.1947 6.088 72.1388 9.608 68.5547 12.232L67.3387 10.76L77.5788 2.184L80.0748 5.448ZM114.713 15.816C115.545 17.224 113.369 22.152 110.425 26.248L104.345 15.816H92.5687C94.2967 17.416 98.0727 23.496 101.721 29.704L103.577 32.84L92.5687 45H99.9927C99.1607 43.528 101.593 38.728 104.665 34.76L110.681 45H122.521C119.385 42.184 113.881 32.136 111.577 28.232L122.137 15.816H114.713ZM129.162 6.984C129.162 9.928 131.466 12.04 134.41 12.04C137.29 12.04 139.594 9.928 139.594 6.984C139.594 4.168 137.29 2.056 134.41 2.056C131.466 2.056 129.162 4.168 129.162 6.984ZM130.378 45.064L141.13 45C140.106 43.336 139.594 36.488 139.658 29.832V15.816H128.906C129.866 17.416 130.378 23.496 130.378 29.704V45.064ZM175.32 37.064C173.208 41.096 169.688 42.056 167.512 42.056C161.56 42.12 158.808 34.632 158.872 28.424C158.872 22.792 161.24 17.096 165.72 17.096C169.944 17.096 172.44 22.28 174.104 25.416L175.32 19.016C173.592 17.096 169.304 15.496 164.632 15.496C154.264 15.496 149.144 23.24 149.144 30.792C149.144 38.152 153.944 45.32 163.48 45.32C169.88 45.32 173.912 42.056 175.32 37.064ZM199.334 45.32C220.71 44.488 219.558 14.664 198.182 15.496C176.742 16.328 177.958 46.152 199.334 45.32ZM198.822 17.096C207.078 17.096 206.886 43.72 198.758 43.72C190.438 43.72 190.694 17.096 198.822 17.096ZM270.642 32.136C265.65 39.24 262.066 42.12 258.162 42.12C253.874 42.12 250.61 37.704 249.714 31.56C261.618 31.496 265.394 27.144 265.394 23.112C265.394 19.144 261.618 15.496 254.834 15.496C244.914 15.496 239.794 23.176 239.794 30.792C239.794 39.304 245.746 45.32 254.13 45.32C270.642 45.32 277.874 18.888 284.53 18.888C287.154 18.888 288.882 23.176 288.882 29.448V45H299.57C298.674 43.528 298.226 37.32 298.098 25.672C298.098 19.784 294.194 15.56 288.626 15.496C285.682 15.432 282.802 16.904 279.922 19.784V15.816H269.17C270.066 17.288 270.642 22.856 270.642 29.704V32.136ZM255.602 17.096C258.162 17.096 259.314 19.912 259.314 22.28C259.314 25.992 256.562 29.96 249.586 29.96C249.33 26.184 250.418 17.096 255.602 17.096ZM270.642 36.36V45.064L281.394 45C280.498 43.528 279.922 37.576 279.922 29.832V23.432C276.274 28.424 274.546 31.752 270.642 36.36ZM333.77 37.064C331.658 41.096 328.138 42.056 325.962 42.056C320.01 42.12 317.258 34.632 317.322 28.424C317.322 22.792 319.69 17.096 324.17 17.096C328.394 17.096 330.89 22.28 332.554 25.416L333.77 19.016C332.042 17.096 327.754 15.496 323.082 15.496C312.714 15.496 307.594 23.24 307.594 30.792C307.594 38.152 312.394 45.32 321.93 45.32C328.33 45.32 332.362 42.056 333.77 37.064ZM368.152 26.376C368.152 18.632 361.56 15.496 355.288 15.496C351.064 15.496 346.968 16.904 345.112 19.464L350.04 24.264C349.4 20.168 351.832 17.096 354.328 17.096C356.568 17.096 358.872 19.656 358.872 26.376V28.552C345.752 28.808 341.144 33.928 341.144 38.6C341.144 42.056 343.704 45.32 349.528 45.32C353.496 45.32 356.888 43.784 358.872 40.392V45.064L369.624 45C368.6 43.336 368.152 36.488 368.152 29.832V26.376ZM358.872 37.32C357.144 41.16 354.712 42.952 352.92 42.952C351.064 42.952 349.976 41.096 349.976 38.792C349.976 35.272 352.6 30.664 358.872 30.216V37.32ZM397.663 45H408.351C407.135 43.016 406.943 33.224 406.879 25.672C406.879 19.016 402.143 15.56 397.279 15.496C393.759 15.432 390.111 17.224 388.383 20.808V15.816H377.631C378.591 17.416 379.103 23.496 379.103 29.704V45.064L389.855 45C388.831 43.336 388.383 36.488 388.383 29.832V28.36C388.383 22.152 390.943 18.888 393.183 18.888C395.551 18.888 397.663 22.6 397.663 29.448V45ZM435.072 40.2C433.536 42.184 430.976 43.72 428.928 43.656C427.328 43.656 426.048 42.696 426.048 40.264C425.984 37.128 428.288 32.328 428.288 29.256V17.416H433.92V15.816H428.288V8.456H426.432C423.616 12.232 421.248 13.832 415.744 15.816V17.416H419.008V34.376C419.008 41.736 423.744 45.384 428.544 45.32C431.424 45.32 434.304 43.912 436.224 41.288L435.072 40.2ZM470.489 26.376C470.489 18.632 463.897 15.496 457.625 15.496C453.401 15.496 449.305 16.904 447.449 19.464L452.377 24.264C451.737 20.168 454.169 17.096 456.665 17.096C458.905 17.096 461.209 19.656 461.209 26.376V28.552C448.089 28.808 443.481 33.928 443.481 38.6C443.481 42.056 446.041 45.32 451.865 45.32C455.833 45.32 459.225 43.784 461.209 40.392V45.064L471.961 45C470.937 43.336 470.489 36.488 470.489 29.832V26.376ZM461.209 37.32C459.481 41.16 457.049 42.952 455.257 42.952C453.401 42.952 452.313 41.096 452.313 38.792C452.313 35.272 454.937 30.664 461.209 30.216V37.32ZM508.257 29.832V0.199997H497.505C498.465 1.8 498.977 7.88 498.977 14.088V20.744C497.185 17.288 493.665 15.432 490.145 15.496C476.577 15.688 476.577 45.128 490.145 45.32C493.665 45.384 497.185 43.528 498.977 40.072V45L509.729 44.936C508.705 43.272 508.257 36.488 508.257 29.832ZM494.241 41.928C488.161 41.928 488.225 18.888 494.241 18.888C496.289 18.888 498.593 21.576 498.977 26.696V34.12C498.593 39.24 496.289 41.928 494.241 41.928ZM534.346 45.32C555.722 44.488 554.57 14.664 533.194 15.496C511.754 16.328 512.97 46.152 534.346 45.32ZM533.834 17.096C542.09 17.096 541.898 43.72 533.77 43.72C525.45 43.72 525.706 17.096 533.834 17.096ZM559.291 45.064L570.043 45C569.019 43.336 568.507 36.488 568.571 29.832V29.256C568.571 23.432 570.939 17.096 574.651 17.096C577.723 17.096 578.683 21.64 578.235 24.136L583.227 19.4C581.627 17.16 578.427 15.496 575.419 15.496C572.283 15.496 570.043 16.968 568.571 19.272V15.816H557.819C558.779 17.416 559.291 23.496 559.291 29.704V45.064Z" fill="#7D4C23"/>
</svg>
