<svg width="488" height="62" viewBox="0 0 488 62" fill="none" xmlns="http://www.w3.org/2000/svg">
<path d="M19.2132 1.2H0.845244C1.80524 2.8 2.31724 8.88 2.31724 15.088V30.832C2.31724 37.36 1.80524 44.336 0.781244 46H13.0692C12.0452 44.336 11.5972 37.488 11.5972 30.832V26.224C20.3012 26.224 32.4612 25.52 32.4612 13.744C32.4612 7.792 28.1732 1.2 19.2132 1.2ZM11.5972 2.8C20.3012 2.8 23.5012 7.92 23.5012 13.36C23.5012 19.056 19.9812 24.56 11.5972 24.624V2.8ZM67.4642 27.376C67.4642 19.632 60.8722 16.496 54.6002 16.496C50.3762 16.496 46.2802 17.904 44.4242 20.464L49.3522 25.264C48.7122 21.168 51.1442 18.096 53.6402 18.096C55.8802 18.096 58.1842 20.656 58.1842 27.376V29.552C45.0642 29.808 40.4562 34.928 40.4562 39.6C40.4562 43.056 43.0162 46.32 48.8402 46.32C52.8082 46.32 56.2002 44.784 58.1842 41.392V46.064L68.9362 46C67.9122 44.336 67.4642 37.488 67.4642 30.832V27.376ZM58.1842 38.32C56.4562 42.16 54.0242 43.952 52.2322 43.952C50.3762 43.952 49.2882 42.096 49.2882 39.792C49.2882 36.272 51.9122 31.664 58.1842 31.216V38.32ZM78.4157 46.064L89.1677 46C88.1437 44.336 87.6317 37.488 87.6957 30.832V30.256C87.6957 24.432 90.0637 18.096 93.7757 18.096C96.8477 18.096 97.8077 22.64 97.3597 25.136L102.352 20.4C100.752 18.16 97.5517 16.496 94.5437 16.496C91.4077 16.496 89.1677 17.968 87.6957 20.272V16.816H76.9437C77.9037 18.416 78.4157 24.496 78.4157 30.704V46.064ZM132.689 27.376C132.689 19.632 126.097 16.496 119.825 16.496C115.601 16.496 111.505 17.904 109.649 20.464L114.577 25.264C113.937 21.168 116.369 18.096 118.865 18.096C121.105 18.096 123.409 20.656 123.409 27.376V29.552C110.289 29.808 105.681 34.928 105.681 39.6C105.681 43.056 108.241 46.32 114.065 46.32C118.033 46.32 121.425 44.784 123.409 41.392V46.064L134.161 46C133.137 44.336 132.689 37.488 132.689 30.832V27.376ZM123.409 38.32C121.681 42.16 119.249 43.952 117.457 43.952C115.601 43.952 114.513 42.096 114.513 39.792C114.513 36.272 117.137 31.664 123.409 31.216V38.32ZM173.364 2.8C179.892 2.8 187.06 4.144 188.532 5.872V1.2H159.156C160.116 2.8 160.628 8.88 160.628 15.088V43.376C160.628 58.224 152.948 60.784 148.532 60.784C143.668 60.784 140.852 57.84 141.62 52.912L136.692 57.712C138.548 60.272 142.004 61.68 146.868 61.68C163.06 61.68 161.268 46 171.38 46C170.42 44.4 169.908 38.128 169.908 31.792V25.392C174.964 25.584 179.7 26.032 180.98 26.864V22.192C179.7 23.024 174.964 23.472 169.908 23.664V2.8H173.364ZM211.596 46.32C232.972 45.488 231.82 15.664 210.444 16.496C189.004 17.328 190.22 47.152 211.596 46.32ZM211.084 18.096C219.34 18.096 219.148 44.72 211.02 44.72C202.7 44.72 202.956 18.096 211.084 18.096ZM253.772 41.2C252.236 43.184 249.676 44.72 247.628 44.656C246.028 44.656 244.748 43.696 244.748 41.264C244.684 38.128 246.988 33.328 246.988 30.256V18.416H252.62V16.816H246.988V9.456H245.132C242.316 13.232 239.948 14.832 234.444 16.816V18.416H237.708V35.376C237.708 42.736 242.444 46.384 247.244 46.32C250.124 46.32 253.004 44.912 254.924 42.288L253.772 41.2ZM276.884 46.32C298.26 45.488 297.108 15.664 275.732 16.496C254.292 17.328 255.508 47.152 276.884 46.32ZM276.372 18.096C284.628 18.096 284.436 44.72 276.308 44.72C267.988 44.72 268.244 18.096 276.372 18.096ZM282.644 6.448L280.148 3.184L269.908 11.76L271.124 13.232C274.708 10.608 279.764 7.088 282.644 6.448ZM313.988 40.624C327.492 40.624 330.692 26.608 323.588 19.952C324.164 18.16 325.892 16.816 329.092 17.264L324.996 13.296C323.524 14.448 322.628 16.496 322.244 18.864C320.132 17.456 317.38 16.56 313.988 16.56C300.292 16.56 297.156 30.96 304.644 37.488C301.636 39.856 300.356 42.416 300.356 44.912C300.42 51.056 306.436 51.696 312.388 51.696C318.148 51.696 323.78 51.056 323.78 54.192C323.78 57.328 318.148 60.336 313.412 60.336C309.572 60.336 306.308 58.544 307.204 53.296L302.276 58.032C304.196 60.784 308.036 62 312.26 62C320.068 62 329.092 57.264 329.092 50.096V50.032C329.092 44.4 324.42 43.376 319.236 43.376C316.164 43.376 312.836 43.76 310.212 43.76C307.012 43.76 304.644 43.248 304.644 40.944C304.644 40.112 305.092 39.216 305.924 38.384C307.972 39.728 310.66 40.624 313.988 40.624ZM313.988 17.904C319.62 17.904 319.62 39.28 313.988 39.28C308.292 39.28 308.292 17.904 313.988 17.904ZM337.253 46.064L348.005 46C346.981 44.336 346.469 37.488 346.533 30.832V30.256C346.533 24.432 348.901 18.096 352.613 18.096C355.685 18.096 356.645 22.64 356.197 25.136L361.189 20.4C359.589 18.16 356.389 16.496 353.381 16.496C350.245 16.496 348.005 17.968 346.533 20.272V16.816H335.781C336.741 18.416 337.253 24.496 337.253 30.704V46.064ZM391.527 27.376C391.527 19.632 384.935 16.496 378.663 16.496C374.439 16.496 370.343 17.904 368.487 20.464L373.415 25.264C372.775 21.168 375.207 18.096 377.703 18.096C379.943 18.096 382.247 20.656 382.247 27.376V29.552C369.127 29.808 364.519 34.928 364.519 39.6C364.519 43.056 367.079 46.32 372.903 46.32C376.871 46.32 380.263 44.784 382.247 41.392V46.064L392.999 46C391.975 44.336 391.527 37.488 391.527 30.832V27.376ZM382.247 38.32C380.519 42.16 378.087 43.952 376.295 43.952C374.439 43.952 373.351 42.096 373.351 39.792C373.351 36.272 375.975 31.664 382.247 31.216V38.32ZM422.702 4.784C420.526 1.776 417.262 0.879997 413.998 0.879997C408.046 0.879997 402.606 3.824 402.606 11.696V16.816H399.406V18.416H402.606V46H413.358C412.334 44.336 411.886 37.488 411.886 30.832V18.416H417.518V16.816H411.886C411.886 11.632 405.806 2.416 413.358 2.544C417.198 2.608 418.222 6.512 417.71 9.52L422.702 4.784ZM440.134 46.32C461.51 45.488 460.358 15.664 438.982 16.496C417.542 17.328 418.758 47.152 440.134 46.32ZM439.622 18.096C447.878 18.096 447.686 44.72 439.558 44.72C431.238 44.72 431.494 18.096 439.622 18.096ZM487.222 37.168C487.222 27.44 471.734 27.76 471.926 21.872C471.99 19.696 474.422 18.096 476.982 18.096C479.862 18.096 482.87 20.208 482.038 25.264L486.966 20.464C485.11 17.904 481.014 16.496 476.79 16.496C470.646 16.496 464.182 19.44 464.182 25.2C464.182 34.48 479.542 35.44 479.542 40.944C479.542 43.248 476.854 44.72 474.102 44.72C470.966 44.656 467.702 42.672 468.598 37.552L463.606 42.352C465.526 44.976 469.814 46.32 474.23 46.32C480.63 46.32 487.222 43.504 487.222 37.168Z" fill="#7D4C23"/>
</svg>
