<svg width="697" height="61" viewBox="0 0 697 61" fill="none" xmlns="http://www.w3.org/2000/svg">
<path d="M19.232 0.199997H0.864012C1.82401 1.8 2.33601 7.88 2.33601 14.088V29.832C2.33601 36.36 1.82401 43.336 0.800012 45H13.088C12.064 43.336 11.616 36.488 11.616 29.832V25.224C20.32 25.224 32.48 24.52 32.48 12.744C32.48 6.792 28.192 0.199997 19.232 0.199997ZM11.616 1.8C20.32 1.8 23.52 6.92 23.52 12.36C23.52 18.056 20 23.56 11.616 23.624V1.8ZM57.115 45.32C78.491 44.488 77.339 14.664 55.963 15.496C34.523 16.328 35.739 46.152 57.115 45.32ZM56.603 17.096C64.859 17.096 64.667 43.72 56.539 43.72C48.219 43.72 48.475 17.096 56.603 17.096ZM82.0595 45H92.8115C91.7875 43.336 91.3395 36.488 91.3395 29.832V0.199997H80.5875C81.5475 1.8 82.0595 7.88 82.0595 14.088V45ZM101.081 6.984C101.081 9.928 103.385 12.04 106.329 12.04C109.209 12.04 111.513 9.928 111.513 6.984C111.513 4.168 109.209 2.056 106.329 2.056C103.385 2.056 101.081 4.168 101.081 6.984ZM102.297 45.064L113.049 45C112.025 43.336 111.513 36.488 111.577 29.832V15.816H100.825C101.785 17.416 102.297 23.496 102.297 29.704V45.064ZM139.766 40.2C138.23 42.184 135.67 43.72 133.622 43.656C132.022 43.656 130.742 42.696 130.742 40.264C130.678 37.128 132.982 32.328 132.982 29.256V17.416H138.614V15.816H132.982V8.456H131.126C128.31 12.232 125.942 13.832 120.438 15.816V17.416H123.702V34.376C123.702 41.736 128.438 45.384 133.238 45.32C136.118 45.32 138.998 43.912 140.918 41.288L139.766 40.2ZM147.806 6.984C147.806 9.928 150.11 12.04 153.054 12.04C155.934 12.04 158.238 9.928 158.238 6.984C158.238 4.168 155.934 2.056 153.054 2.056C150.11 2.056 147.806 4.168 147.806 6.984ZM149.022 45.064L159.774 45C158.75 43.336 158.238 36.488 158.302 29.832V15.816H147.55C148.51 17.416 149.022 23.496 149.022 29.704V45.064ZM193.964 37.064C191.852 41.096 188.332 42.056 186.156 42.056C180.204 42.12 177.452 34.632 177.516 28.424C177.516 22.792 179.884 17.096 184.364 17.096C188.588 17.096 191.084 22.28 192.748 25.416L193.964 19.016C192.236 17.096 187.948 15.496 183.276 15.496C172.908 15.496 167.788 23.24 167.788 30.792C167.788 38.152 172.588 45.32 182.124 45.32C188.524 45.32 192.556 42.056 193.964 37.064ZM228.346 26.376C228.346 18.632 221.754 15.496 215.482 15.496C211.258 15.496 207.162 16.904 205.306 19.464L210.234 24.264C209.594 20.168 212.026 17.096 214.522 17.096C216.762 17.096 219.066 19.656 219.066 26.376V28.552C205.946 28.808 201.338 33.928 201.338 38.6C201.338 42.056 203.898 45.32 209.722 45.32C213.69 45.32 217.082 43.784 219.066 40.392V45.064L229.818 45C228.794 43.336 228.346 36.488 228.346 29.832V26.376ZM219.066 37.32C217.338 41.16 214.906 42.952 213.114 42.952C211.258 42.952 210.17 41.096 210.17 38.792C210.17 35.272 212.794 30.664 219.066 30.216V37.32ZM283.101 29.832V0.199997H272.349C273.309 1.8 273.821 7.88 273.821 14.088V20.744C272.029 17.288 268.509 15.432 264.989 15.496C251.421 15.688 251.421 45.128 264.989 45.32C268.509 45.384 272.029 43.528 273.821 40.072V45L284.573 44.936C283.549 43.272 283.101 36.488 283.101 29.832ZM269.085 41.928C263.005 41.928 263.069 18.888 269.085 18.888C271.133 18.888 273.437 21.576 273.821 26.696V34.12C273.437 39.24 271.133 41.928 269.085 41.928ZM302.47 31.56C314.374 31.496 318.15 27.144 318.15 23.112C318.15 19.144 314.374 15.496 307.59 15.496C297.67 15.496 292.55 23.176 292.55 30.792C292.55 38.152 297.35 45.32 306.886 45.32C313.286 45.32 317.318 42.056 318.726 37.064C316.614 41.096 313.094 42.056 310.918 42.056C305.862 42.12 303.174 36.936 302.47 31.56ZM308.358 17.096C310.918 17.096 312.07 19.912 312.07 22.28C312.07 25.992 309.318 29.96 302.342 29.96C302.342 29.832 302.342 29.704 302.342 29.64L302.278 28.936C302.278 25.416 303.494 17.096 308.358 17.096ZM345.185 60.616H355.937C354.913 58.952 354.465 52.104 354.465 45.448V40.072C356.257 43.528 359.777 45.384 363.297 45.32C376.865 45.128 376.865 15.688 363.297 15.496C359.777 15.432 356.257 17.288 354.465 20.744V15.816H343.713C344.673 17.416 345.185 23.496 345.185 29.704V60.616ZM359.201 41.928C357.153 41.928 354.849 39.24 354.465 34.12V26.696C354.849 21.576 357.153 18.888 359.201 18.888C365.281 18.888 365.281 41.928 359.201 41.928ZM382.922 45.064L393.674 45C392.65 43.336 392.138 36.488 392.202 29.832V29.256C392.202 23.432 394.57 17.096 398.282 17.096C401.354 17.096 402.314 21.64 401.866 24.136L406.858 19.4C405.258 17.16 402.058 15.496 399.05 15.496C395.914 15.496 393.674 16.968 392.202 19.272V15.816H381.45C382.41 17.416 382.922 23.496 382.922 29.704V45.064ZM413.631 6.984C413.631 9.928 415.935 12.04 418.879 12.04C421.759 12.04 424.063 9.928 424.063 6.984C424.063 4.168 421.759 2.056 418.879 2.056C415.935 2.056 413.631 4.168 413.631 6.984ZM414.847 45.064L425.599 45C424.575 43.336 424.063 36.488 424.127 29.832V15.816H413.375C414.335 17.416 414.847 23.496 414.847 29.704V45.064ZM446.733 45H448.333L463.309 15.816H455.629C456.589 17.48 458.573 19.144 451.597 34.76L443.149 15.816H432.013C435.341 19.144 446.221 44.04 446.733 45ZM494.171 26.376C494.171 18.632 487.579 15.496 481.307 15.496C477.083 15.496 472.987 16.904 471.131 19.464L476.059 24.264C475.419 20.168 477.851 17.096 480.347 17.096C482.587 17.096 484.891 19.656 484.891 26.376V28.552C471.771 28.808 467.163 33.928 467.163 38.6C467.163 42.056 469.723 45.32 475.547 45.32C479.515 45.32 482.907 43.784 484.891 40.392V45.064L495.643 45C494.619 43.336 494.171 36.488 494.171 29.832V26.376ZM484.891 37.32C483.163 41.16 480.731 42.952 478.939 42.952C477.083 42.952 475.995 41.096 475.995 38.792C475.995 35.272 478.619 30.664 484.891 30.216V37.32ZM529.826 37.064C527.714 41.096 524.194 42.056 522.018 42.056C516.066 42.12 513.314 34.632 513.378 28.424C513.378 22.792 515.746 17.096 520.226 17.096C524.45 17.096 526.946 22.28 528.61 25.416L529.826 19.016C528.098 17.096 523.81 15.496 519.138 15.496C508.77 15.496 503.65 23.24 503.65 30.792C503.65 38.152 508.45 45.32 517.986 45.32C524.386 45.32 528.418 42.056 529.826 37.064ZM538.081 6.984C538.081 9.928 540.385 12.04 543.329 12.04C546.209 12.04 548.513 9.928 548.513 6.984C548.513 4.168 546.209 2.056 543.329 2.056C540.385 2.056 538.081 4.168 538.081 6.984ZM539.297 45.064L550.049 45C549.025 43.336 548.513 36.488 548.577 29.832V15.816H537.825C538.785 17.416 539.297 23.496 539.297 29.704V45.064ZM586.351 29.832V0.199997H575.599C576.559 1.8 577.071 7.88 577.071 14.088V20.744C575.279 17.288 571.759 15.432 568.239 15.496C554.671 15.688 554.671 45.128 568.239 45.32C571.759 45.384 575.279 43.528 577.071 40.072V45L587.823 44.936C586.799 43.272 586.351 36.488 586.351 29.832ZM572.335 41.928C566.255 41.928 566.319 18.888 572.335 18.888C574.383 18.888 576.687 21.576 577.071 26.696V34.12C576.687 39.24 574.383 41.928 572.335 41.928ZM622.808 26.376C622.808 18.632 616.216 15.496 609.944 15.496C605.72 15.496 601.624 16.904 599.768 19.464L604.696 24.264C604.056 20.168 606.488 17.096 608.984 17.096C611.224 17.096 613.528 19.656 613.528 26.376V28.552C600.408 28.808 595.8 33.928 595.8 38.6C595.8 42.056 598.36 45.32 604.184 45.32C608.152 45.32 611.544 43.784 613.528 40.392V45.064L624.28 45C623.256 43.336 622.808 36.488 622.808 29.832V26.376ZM613.528 37.32C611.8 41.16 609.368 42.952 607.576 42.952C605.72 42.952 604.632 41.096 604.632 38.792C604.632 35.272 607.256 30.664 613.528 30.216V37.32ZM660.576 29.832V0.199997H649.824C650.784 1.8 651.296 7.88 651.296 14.088V20.744C649.503 17.288 645.984 15.432 642.464 15.496C628.895 15.688 628.895 45.128 642.464 45.32C645.984 45.384 649.503 43.528 651.296 40.072V45L662.048 44.936C661.024 43.272 660.576 36.488 660.576 29.832ZM646.56 41.928C640.48 41.928 640.544 18.888 646.56 18.888C648.608 18.888 650.912 21.576 651.296 26.696V34.12C650.912 39.24 648.608 41.928 646.56 41.928ZM679.945 31.56C691.849 31.496 695.625 27.144 695.625 23.112C695.625 19.144 691.849 15.496 685.065 15.496C675.145 15.496 670.025 23.176 670.025 30.792C670.025 38.152 674.825 45.32 684.361 45.32C690.761 45.32 694.793 42.056 696.201 37.064C694.089 41.096 690.569 42.056 688.393 42.056C683.337 42.12 680.649 36.936 679.945 31.56ZM685.833 17.096C688.393 17.096 689.545 19.912 689.545 22.28C689.545 25.992 686.793 29.96 679.817 29.96C679.817 29.832 679.817 29.704 679.817 29.64L679.753 28.936C679.753 25.416 680.969 17.096 685.833 17.096Z" fill="#7D4C23"/>
</svg>
