<svg width="264" height="47" viewBox="0 0 264 47" fill="none" xmlns="http://www.w3.org/2000/svg">
<path d="M19.2632 1.2H0.895247C1.85525 2.8 2.36725 8.88 2.36725 15.088V30.832C2.36725 37.36 1.85525 44.336 0.831247 46H13.1192C12.0952 44.336 11.6472 37.488 11.6472 30.832V26.224C20.3512 26.224 32.5112 25.52 32.5112 13.744C32.5112 7.792 28.2232 1.2 19.2632 1.2ZM11.6472 2.8C20.3512 2.8 23.5512 7.92 23.5512 13.36C23.5512 19.056 20.0312 24.56 11.6472 24.624V2.8ZM41.9782 46.064L52.7302 46C51.7062 44.336 51.1942 37.488 51.2582 30.832V30.256C51.2582 24.432 53.6262 18.096 57.3382 18.096C60.4102 18.096 61.3702 22.64 60.9222 25.136L65.9142 20.4C64.3142 18.16 61.1142 16.496 58.1062 16.496C54.9702 16.496 52.7302 17.968 51.2582 20.272V16.816H40.5062C41.4662 18.416 41.9782 24.496 41.9782 30.704V46.064ZM73.0562 31.792C73.0562 39.152 77.8562 46.32 86.8802 46.32C97.5042 46.32 99.2962 36.528 103.456 26.928C105.184 22.832 108 18.096 115.808 18.096C118.688 18.096 121.696 20.208 120.864 25.264L125.792 20.464C123.936 17.904 119.84 16.496 115.616 16.496C106.528 16.496 103.328 21.808 100.448 29.04C98.1442 34.992 95.8402 43.12 90.5282 43.12C86.3042 43.12 83.6802 37.872 82.9762 32.56C94.8802 32.496 98.6562 28.144 98.6562 24.112C98.6562 20.144 94.8802 16.496 88.0962 16.496C78.1762 16.496 73.0562 24.176 73.0562 31.792ZM82.8482 30.96C82.5922 27.184 83.6802 18.096 88.8642 18.096C91.4242 18.096 92.5762 20.912 92.5762 23.28C92.5762 26.992 89.8242 30.96 82.8482 30.96ZM103.648 28.272C106.528 34.864 118.368 36.08 118.368 40.944C118.368 43.248 115.68 44.72 112.928 44.72C109.792 44.656 106.528 42.672 107.424 37.552L102.432 42.352C104.352 44.976 108.64 46.32 113.056 46.32C119.456 46.32 126.048 43.504 126.048 37.168C126.048 27.44 110.624 27.824 110.816 21.936C110.88 20.592 111.776 19.504 113.056 18.8C108.256 20.208 105.888 22.896 103.648 28.272ZM143.964 32.56C155.868 32.496 159.644 28.144 159.644 24.112C159.644 20.144 155.868 16.496 149.084 16.496C139.164 16.496 134.044 24.176 134.044 31.792C134.044 39.152 138.844 46.32 148.38 46.32C154.78 46.32 158.812 43.056 160.22 38.064C158.108 42.096 154.588 43.056 152.412 43.056C147.356 43.12 144.668 37.936 143.964 32.56ZM149.852 18.096C152.412 18.096 153.564 20.912 153.564 23.28C153.564 26.992 150.812 30.96 143.836 30.96C143.836 30.832 143.836 30.704 143.836 30.64L143.772 29.936C143.772 26.416 144.988 18.096 149.852 18.096ZM186.922 41.2C185.386 43.184 182.826 44.72 180.778 44.656C179.178 44.656 177.898 43.696 177.898 41.264C177.834 38.128 180.138 33.328 180.138 30.256V18.416H185.77V16.816H180.138V9.456H178.282C175.466 13.232 173.098 14.832 167.594 16.816V18.416H170.858V35.376C170.858 42.736 175.594 46.384 180.394 46.32C183.274 46.32 186.154 44.912 188.074 42.288L186.922 41.2ZM228.447 1.2C206.943 1.2 206.943 46.32 228.447 46.32C250.015 46.32 250.079 1.2 228.447 1.2ZM228.447 44.72C218.591 44.72 218.527 2.8 228.447 2.8C238.431 2.8 238.431 44.72 228.447 44.72ZM254.521 46H263.161V0.879997C258.873 4.848 256.249 6.832 250.681 9.648V10.928H254.521V46Z" fill="#7D4C23"/>
</svg>
