<svg width="112" height="112" viewBox="0 0 112 112" fill="none" xmlns="http://www.w3.org/2000/svg">
<circle cx="56" cy="56" r="56" fill="#F0792D"/>
<path d="M52.2868 64.3305C52.0902 64.2662 51.9591 64.2019 51.8281 64.2019C50.1898 63.7518 48.6826 62.9802 47.372 61.887C46.258 60.9225 45.4061 59.7651 45.0129 58.3504C44.4232 56.2285 44.7508 54.2351 46.1269 52.4347C46.7822 51.5344 47.6997 50.7628 48.6826 50.1841C49.9932 49.4125 51.4349 48.8981 52.9421 48.7052C55.3012 48.3194 57.6603 48.448 60.0194 48.9624C60.216 49.0267 60.4126 49.0267 60.6091 49.091C60.7402 48.8981 60.8057 48.7052 60.8713 48.5123C62.1819 45.8759 63.4925 43.3038 64.8686 40.7318C65.655 39.2528 66.5069 37.8382 67.2932 36.4235C68.1451 35.0089 69.0625 33.6586 70.111 32.3725C71.0284 31.2151 72.0769 30.1863 73.322 29.3503C74.1739 28.7716 75.1569 28.3215 76.2053 28.1286C76.6641 28.0643 77.1228 28 77.5815 28C77.7125 28.2572 77.7125 28.2572 77.7125 28.7073C77.5815 28.7073 77.4504 28.7073 77.3194 28.7073C76.7951 28.7716 76.3364 28.8359 75.8777 29.0931C75.2224 29.4789 74.8292 29.9934 74.7637 30.765C74.7637 30.9579 74.7637 31.2151 74.7637 31.408C74.7637 38.1597 74.7637 44.9757 74.7637 51.7274C74.7637 51.856 74.7637 52.0489 74.7637 52.2418C74.8947 52.2418 74.9603 52.3061 75.0913 52.3061C75.55 52.3061 76.0087 52.2418 76.4675 52.1132C77.0572 51.9846 77.4504 51.5988 77.5815 50.9557C77.5815 50.8914 77.5815 50.8271 77.647 50.6985C77.7125 50.5699 77.7781 50.5056 77.9091 50.4413C78.1057 50.377 78.3023 50.377 78.5644 50.4413C78.8265 50.5056 78.9576 50.6985 78.8921 50.9557C78.761 51.6631 78.3678 52.1775 77.7125 52.4347C77.2538 52.6276 76.7951 52.7562 76.2709 52.8205C75.8777 52.8848 75.4845 52.8848 75.0258 52.9491C74.9603 52.9491 74.8947 52.9491 74.7637 52.9491C74.7637 53.0777 74.6981 53.142 74.6981 53.2063C74.6981 53.3349 74.6981 53.3992 74.6981 53.5278C74.6981 57.6431 74.6981 61.7584 74.6981 65.8094C74.6981 66.0667 74.6981 66.3239 74.6981 66.6454C74.7637 67.2884 75.0913 67.8028 75.6156 68.1886C76.0088 68.4458 76.4019 68.6387 76.8606 68.703C77.0572 68.703 77.2538 68.7673 77.516 68.7673C77.647 69.0245 77.647 69.0245 77.5815 69.4103C77.5159 69.4103 77.3849 69.4746 77.3194 69.4746C77.2538 69.4746 77.1228 69.4746 77.0572 69.4746C73.9773 69.4746 70.9629 69.4746 67.883 69.4746C67.6864 69.4746 67.5554 69.539 67.3588 69.4103C67.3588 69.2174 67.3588 69.0245 67.3588 68.7673C67.5554 68.7673 67.8175 68.703 68.0141 68.703C68.4072 68.6387 68.8004 68.5101 69.1281 68.3172C69.8489 67.9314 70.2421 67.2884 70.2421 66.4525C70.2421 66.2596 70.2421 66.131 70.2421 65.938C70.2421 61.5655 70.2421 57.2573 70.2421 52.8848C70.2421 52.6919 70.2421 52.5633 70.2421 52.3704C70.111 52.3061 70.0455 52.3061 69.9144 52.2418C68.3417 51.9203 66.769 51.4702 65.2618 50.9557C64.0822 50.5699 62.8372 50.1841 61.5921 49.9269C61.461 49.9269 61.33 49.8626 61.1989 49.8626C61.0678 50.0555 61.0023 50.1841 60.9368 50.377C59.8883 52.6919 58.8398 54.9424 57.7913 57.2573C56.8739 59.315 55.891 61.3083 54.8425 63.3017C54.7769 63.4303 54.7114 63.6232 54.5804 63.8161C54.6459 63.8804 54.7114 63.8804 54.7769 63.8804C55.3667 63.8804 55.9565 63.8804 56.5463 63.7518C57.0705 63.6232 57.5947 63.366 57.9879 63.0445C58.5122 62.5944 58.9709 62.0156 59.3641 61.5012C59.4951 61.3083 59.6917 61.1154 59.8883 60.9225C60.2815 60.5367 61.0023 60.5367 61.3955 60.7296C61.9197 60.9868 62.1819 61.5012 62.1163 62.0799C62.0508 62.3371 61.9197 62.5944 61.7887 62.7873C61.5921 62.9802 61.33 63.1731 61.0678 63.3017C60.216 63.8161 59.2985 64.0733 58.3156 64.2662C57.5292 64.4591 56.7428 64.5234 55.9565 64.5234C55.6288 64.5234 55.2357 64.5234 54.908 64.4591C54.7114 64.4591 54.5148 64.4591 54.3182 64.3948C54.2527 64.5877 54.1216 64.7163 54.0561 64.8449C52.811 67.0955 51.5004 69.346 50.0588 71.468C48.7482 73.3328 47.3065 75.1332 45.6682 76.6764C44.3576 77.8982 42.9815 78.9913 41.4088 79.8915C39.5084 80.9847 37.4114 81.7563 35.1834 81.9492C32.4967 82.2064 29.8754 81.9492 27.3853 80.9204C23.0603 79.1199 20.177 75.9691 18.6698 71.5966C18.08 69.9248 17.8179 68.1243 17.8179 66.3239C17.8834 63.3017 18.8664 60.6653 20.7012 58.2218C22.6016 55.7141 25.0917 53.9779 28.0406 52.8205C30.072 52.0489 32.169 51.7274 34.3315 51.7917C35.1179 51.7917 35.9042 51.9203 36.6251 52.1775C37.0182 52.3061 37.4114 52.499 37.8046 52.8205C38.9841 53.7207 38.7876 55.4569 37.8701 56.2285C37.5425 56.55 37.0838 56.6786 36.6251 56.6786C35.9698 56.6786 35.3145 56.55 34.7902 56.1642C33.9383 55.6498 33.0864 55.1997 32.169 54.8138C31.5792 54.5566 30.9239 54.3637 30.2686 54.1708C28.6304 53.785 27.0576 54.1065 25.616 54.8781C25.2228 55.071 24.8951 55.3283 24.5675 55.5212C23.4535 56.2928 22.4705 57.193 21.6186 58.2218C20.177 59.958 19.3251 61.9513 18.9319 64.1376C18.7353 65.1664 18.6698 66.131 18.7353 67.1598C18.9319 69.9891 19.9148 72.4968 22.0118 74.4902C23.3879 75.8405 25.0917 76.6764 26.9266 77.1909C28.1717 77.5767 29.4167 77.7053 30.7273 77.7696C31.8413 77.8339 32.8898 77.7696 34.0038 77.641C35.6421 77.4481 37.1493 77.0623 38.6565 76.4835C41.4743 75.3261 43.9644 73.6543 46.1925 71.5323C47.372 70.4392 48.355 69.2174 49.3379 67.9957C50.2554 66.774 51.1728 65.5522 52.0247 64.2662C52.0902 64.652 52.2213 64.5234 52.2868 64.3305ZM60.1504 49.8626C60.0849 49.8626 60.0849 49.7983 60.0849 49.7983C60.0194 49.7983 59.8883 49.734 59.8228 49.734C58.1845 49.4125 56.5463 49.2839 54.908 49.3482C53.1387 49.4125 51.5004 49.9912 50.0588 51.0843C48.9447 51.9203 48.0929 52.8848 47.5686 54.1708C46.9788 55.5212 46.7822 56.9358 47.1099 58.4147C47.372 59.5079 47.8963 60.4081 48.6171 61.244C49.6656 62.4014 50.9107 63.1731 52.4179 63.6875C52.5489 63.7518 52.6144 63.7518 52.7455 63.7518C52.8766 63.6232 52.9421 63.4303 53.0076 63.3017C53.8595 61.8227 54.7114 60.4081 55.4978 58.9292C57.0705 56.0356 58.5122 53.0777 60.0194 50.1198C60.0849 49.9912 60.1504 49.9269 60.1504 49.8626ZM70.3731 33.7229C70.111 33.8515 70.0455 33.9801 69.98 34.1087C68.997 35.3947 68.0796 36.745 67.2277 38.1597C66.3103 39.7029 65.5239 41.2462 64.7375 42.8537C63.7546 44.8471 62.7716 46.9047 61.8542 48.8981C61.7887 49.0267 61.6576 49.2196 61.7232 49.4125C61.8542 49.4768 61.9853 49.4768 62.1819 49.5411C63.4925 49.8626 64.8031 50.2484 66.1137 50.6985C67.3588 51.1486 68.6694 51.5344 69.98 51.7917C70.111 51.856 70.2421 51.856 70.4387 51.856C70.4387 51.7917 70.5042 51.7274 70.5042 51.6631C70.3731 45.683 70.3731 39.7672 70.3731 33.7229Z" fill="white"/>
</svg>
