<svg width="292" height="38" viewBox="0 0 292 38" fill="none" xmlns="http://www.w3.org/2000/svg">
<path d="M6.56563 23H9.34963C8.83763 22.168 8.61363 18.744 8.61363 15.416V8.376L15.1416 19L16.9656 14.328L16.9336 14.296L21.1576 6.776C21.1576 17.176 21.1576 3.288 21.1576 21.848C21.1576 23.32 20.9656 24.856 20.6136 26.328C17.2856 24.92 13.9896 23.928 10.4696 23.928C3.97362 23.928 0.293625 27.416 0.293625 30.744C0.293625 33.816 3.36562 36.792 9.06163 36.792C16.0696 36.792 19.3336 31.864 21.7016 27.928C28.3896 31.768 35.4296 37.336 44.8376 37.336C54.6616 37.336 59.9416 30.616 59.9416 23.032C59.9416 14.84 53.8936 9.208 45.4136 9.24C41.6056 9.24 37.9256 10.68 35.4616 13.624C38.0856 10.968 41.8616 9.656 45.4456 9.656C53.5096 9.656 59.3336 15.096 59.3016 22.52C59.2696 28.824 55.0136 34.424 45.0936 34.424C36.1976 34.424 29.1256 30.136 22.2456 27.032C23.5896 24.824 24.8376 23.16 26.5336 23.16C26.0536 22.36 25.7976 19.352 25.7976 16.248V8.184C25.7976 4.856 26.0216 1.432 26.5336 0.599998H21.1576L16.3256 13.304L8.61363 0.631998V0.599998H6.59763C7.07763 1.4 7.33363 4.44 7.33363 7.544V15.416C7.33363 18.68 7.07763 22.168 6.56563 23ZM2.94962 30.744C2.94962 27.64 5.60562 24.376 11.0456 24.376C14.3096 24.376 17.3176 25.56 20.3896 27.192C18.9496 32.12 15.1416 36.312 9.79763 36.312C5.22162 36.312 2.94962 33.624 2.94962 30.744ZM35.5194 16.28C41.4714 16.248 43.3594 14.072 43.3594 12.056C43.3594 10.072 41.4714 8.248 38.0794 8.248C33.1194 8.248 30.5594 12.088 30.5594 15.896C30.5594 19.576 32.9594 23.16 37.7274 23.16C40.9274 23.16 42.9434 21.528 43.6474 19.032C42.5914 21.048 40.8314 21.528 39.7434 21.528C37.2154 21.56 35.8714 18.968 35.5194 16.28ZM35.4234 14.808C35.4234 11.896 36.6074 9.048 38.4634 9.048C39.7434 9.048 40.3194 10.456 40.3194 11.64C40.3194 13.496 38.9434 15.48 35.4554 15.48C35.4554 15.256 35.4234 15.032 35.4234 14.808ZM40.2874 3.224C38.8474 3.544 36.3194 5.304 34.5274 6.616L33.9194 5.88L39.0394 1.592L40.2874 3.224ZM57.6064 8.408C58.0224 9.112 56.9344 11.576 55.4624 13.624L52.4224 8.408H46.5344C47.3984 9.208 49.2864 12.248 51.1104 15.352L52.0384 16.92L46.5344 23H50.2464C49.8304 22.264 51.0464 19.864 52.5824 17.88L55.5904 23H61.5104C59.9424 21.592 57.1904 16.568 56.0384 14.616L61.3184 8.408H57.6064ZM64.8311 3.992C64.8311 5.464 65.9831 6.52 67.4551 6.52C68.8951 6.52 70.0471 5.464 70.0471 3.992C70.0471 2.584 68.8951 1.528 67.4551 1.528C65.9831 1.528 64.8311 2.584 64.8311 3.992ZM65.4391 23.032L70.8151 23C70.3031 22.168 70.0471 18.744 70.0791 15.416V8.408H64.7031C65.1831 9.208 65.4391 12.248 65.4391 15.352V23.032ZM87.9099 19.032C86.8539 21.048 85.0939 21.528 84.0059 21.528C81.0299 21.56 79.6539 17.816 79.6859 14.712C79.6859 11.896 80.8699 9.048 83.1099 9.048C85.2219 9.048 86.4699 11.64 87.3019 13.208L87.9099 10.008C87.0459 9.048 84.9019 8.248 82.5659 8.248C77.3819 8.248 74.8219 12.12 74.8219 15.896C74.8219 19.576 77.2219 23.16 81.9899 23.16C85.1899 23.16 87.2059 21.528 87.9099 19.032ZM99.9169 23.16C110.605 22.744 110.029 7.832 99.3409 8.248C88.6209 8.664 89.2289 23.576 99.9169 23.16ZM99.6609 9.048C103.789 9.048 103.693 22.36 99.6289 22.36C95.4689 22.36 95.5969 9.048 99.6609 9.048ZM135.571 16.568C133.075 20.12 131.283 21.56 129.331 21.56C127.187 21.56 125.555 19.352 125.107 16.28C131.059 16.248 132.947 14.072 132.947 12.056C132.947 10.072 131.059 8.248 127.667 8.248C122.707 8.248 120.147 12.088 120.147 15.896C120.147 20.152 123.123 23.16 127.315 23.16C135.571 23.16 139.187 9.944 142.515 9.944C143.827 9.944 144.691 12.088 144.691 15.224V23H150.035C149.587 22.264 149.363 19.16 149.299 13.336C149.299 10.392 147.347 8.28 144.563 8.248C143.091 8.216 141.651 8.952 140.211 10.392V8.408H134.835C135.283 9.144 135.571 11.928 135.571 15.352V16.568ZM128.051 9.048C129.331 9.048 129.907 10.456 129.907 11.64C129.907 13.496 128.531 15.48 125.043 15.48C124.915 13.592 125.459 9.048 128.051 9.048ZM135.571 18.68V23.032L140.947 23C140.499 22.264 140.211 19.288 140.211 15.416V12.216C138.387 14.712 137.523 16.376 135.571 18.68ZM167.135 19.032C166.079 21.048 164.319 21.528 163.231 21.528C160.255 21.56 158.879 17.816 158.911 14.712C158.911 11.896 160.095 9.048 162.335 9.048C164.447 9.048 165.695 11.64 166.527 13.208L167.135 10.008C166.271 9.048 164.127 8.248 161.791 8.248C156.607 8.248 154.047 12.12 154.047 15.896C154.047 19.576 156.447 23.16 161.215 23.16C164.415 23.16 166.431 21.528 167.135 19.032ZM184.326 13.688C184.326 9.816 181.03 8.248 177.894 8.248C175.782 8.248 173.734 8.952 172.806 10.232L175.27 12.632C174.95 10.584 176.166 9.048 177.414 9.048C178.534 9.048 179.686 10.328 179.686 13.688V14.776C173.126 14.904 170.822 17.464 170.822 19.8C170.822 21.528 172.102 23.16 175.014 23.16C176.998 23.16 178.694 22.392 179.686 20.696V23.032L185.062 23C184.55 22.168 184.326 18.744 184.326 15.416V13.688ZM179.686 19.16C178.822 21.08 177.606 21.976 176.71 21.976C175.782 21.976 175.238 21.048 175.238 19.896C175.238 18.136 176.55 15.832 179.686 15.608V19.16ZM199.082 23H204.426C203.818 22.008 203.722 17.112 203.69 13.336C203.69 10.008 201.322 8.28 198.89 8.248C197.13 8.216 195.306 9.112 194.442 10.904V8.408H189.066C189.546 9.208 189.802 12.248 189.802 15.352V23.032L195.178 23C194.666 22.168 194.442 18.744 194.442 15.416V14.68C194.442 11.576 195.722 9.944 196.842 9.944C198.026 9.944 199.082 11.8 199.082 15.224V23ZM217.786 20.6C217.018 21.592 215.738 22.36 214.714 22.328C213.914 22.328 213.274 21.848 213.274 20.632C213.242 19.064 214.394 16.664 214.394 15.128V9.208H217.21V8.408H214.394V4.728H213.466C212.058 6.616 210.874 7.416 208.122 8.408V9.208H209.754V17.688C209.754 21.368 212.122 23.192 214.522 23.16C215.962 23.16 217.402 22.456 218.362 21.144L217.786 20.6ZM235.495 13.688C235.495 9.816 232.199 8.248 229.063 8.248C226.951 8.248 224.903 8.952 223.975 10.232L226.439 12.632C226.119 10.584 227.335 9.048 228.583 9.048C229.703 9.048 230.855 10.328 230.855 13.688V14.776C224.295 14.904 221.991 17.464 221.991 19.8C221.991 21.528 223.271 23.16 226.183 23.16C228.167 23.16 229.863 22.392 230.855 20.696V23.032L236.231 23C235.719 22.168 235.495 18.744 235.495 15.416V13.688ZM230.855 19.16C229.991 21.08 228.775 21.976 227.879 21.976C226.951 21.976 226.407 21.048 226.407 19.896C226.407 18.136 227.719 15.832 230.855 15.608V19.16ZM254.378 15.416V0.599998H249.002C249.482 1.4 249.738 4.44 249.738 7.544V10.872C248.842 9.144 247.082 8.216 245.322 8.248C238.538 8.344 238.538 23.064 245.322 23.16C247.082 23.192 248.842 22.264 249.738 20.536V23L255.114 22.968C254.602 22.136 254.378 18.744 254.378 15.416ZM247.37 21.464C244.33 21.464 244.362 9.944 247.37 9.944C248.394 9.944 249.546 11.288 249.738 13.848V17.56C249.546 20.12 248.394 21.464 247.37 21.464ZM267.423 23.16C278.111 22.744 277.535 7.832 266.847 8.248C256.127 8.664 256.735 23.576 267.423 23.16ZM267.167 9.048C271.295 9.048 271.199 22.36 267.135 22.36C262.975 22.36 263.103 9.048 267.167 9.048ZM279.895 23.032L285.271 23C284.759 22.168 284.503 18.744 284.535 15.416V15.128C284.535 12.216 285.719 9.048 287.575 9.048C289.111 9.048 289.591 11.32 289.367 12.568L291.863 10.2C291.063 9.08 289.463 8.248 287.959 8.248C286.391 8.248 285.271 8.984 284.535 10.136V8.408H279.159C279.639 9.208 279.895 12.248 279.895 15.352V23.032Z" fill="#7D4C23"/>
</svg>
