<svg width="178" height="69" viewBox="0 0 178 69" fill="none" xmlns="http://www.w3.org/2000/svg">
<path d="M17.5348 0.599998H8.35075C8.83075 1.4 9.08675 4.44 9.08675 7.544V15.416C9.08675 18.68 8.83075 22.168 8.31875 23H14.4628C13.9508 22.168 13.7268 18.744 13.7268 15.416V13.112C18.0788 13.112 24.1588 12.76 24.1588 6.872C24.1588 3.896 22.0148 0.599998 17.5348 0.599998ZM13.7268 1.4C18.0788 1.4 19.6788 3.96 19.6788 6.68C19.6788 9.528 17.9188 12.28 13.7268 12.312V1.4ZM36.4763 23.16C47.1643 22.744 46.5883 7.832 35.9003 8.248C25.1803 8.664 25.7883 23.576 36.4763 23.16ZM36.2203 9.048C40.3483 9.048 40.2523 22.36 36.1883 22.36C32.0283 22.36 32.1563 9.048 36.2203 9.048ZM48.9485 23H54.3245C53.8125 22.168 53.5885 18.744 53.5885 15.416V0.599998H48.2125C48.6925 1.4 48.9485 4.44 48.9485 7.544V23ZM59.0673 23.032L64.4433 23C63.9313 22.168 63.6753 18.744 63.7073 15.416V8.408H58.3313C58.8113 9.208 59.0673 12.248 59.0673 15.352V23.032ZM64.5713 3.224L63.3233 1.592L58.2033 5.88L58.8113 6.616C60.6033 5.304 63.1313 3.544 64.5713 3.224ZM77.8015 20.6C77.0335 21.592 75.7535 22.36 74.7295 22.328C73.9295 22.328 73.2895 21.848 73.2895 20.632C73.2575 19.064 74.4095 16.664 74.4095 15.128V9.208H77.2255V8.408H74.4095V4.728H73.4815C72.0735 6.616 70.8895 7.416 68.1375 8.408V9.208H69.7695V17.688C69.7695 21.368 72.1375 23.192 74.5375 23.16C75.9775 23.16 77.4175 22.456 78.3775 21.144L77.8015 20.6ZM81.8218 3.992C81.8218 5.464 82.9738 6.52 84.4458 6.52C85.8858 6.52 87.0378 5.464 87.0378 3.992C87.0378 2.584 85.8858 1.528 84.4458 1.528C82.9738 1.528 81.8218 2.584 81.8218 3.992ZM82.4298 23.032L87.8058 23C87.2938 22.168 87.0378 18.744 87.0698 15.416V8.408H81.6938C82.1738 9.208 82.4298 12.248 82.4298 15.352V23.032ZM104.901 19.032C103.845 21.048 102.085 21.528 100.997 21.528C98.0205 21.56 96.6445 17.816 96.6765 14.712C96.6765 11.896 97.8605 9.048 100.101 9.048C102.213 9.048 103.461 11.64 104.293 13.208L104.901 10.008C104.037 9.048 101.893 8.248 99.5565 8.248C94.3725 8.248 91.8125 12.12 91.8125 15.896C91.8125 19.576 94.2125 23.16 98.9805 23.16C102.181 23.16 104.197 21.528 104.901 19.032ZM122.092 13.688C122.092 9.816 118.796 8.248 115.66 8.248C113.548 8.248 111.5 8.952 110.572 10.232L113.036 12.632C112.716 10.584 113.932 9.048 115.18 9.048C116.3 9.048 117.452 10.328 117.452 13.688V14.776C110.892 14.904 108.588 17.464 108.588 19.8C108.588 21.528 109.868 23.16 112.78 23.16C114.764 23.16 116.46 22.392 117.452 20.696V23.032L122.828 23C122.316 22.168 122.092 18.744 122.092 15.416V13.688ZM117.452 19.16C116.588 21.08 115.372 21.976 114.476 21.976C113.548 21.976 113.004 21.048 113.004 19.896C113.004 18.136 114.316 15.832 117.452 15.608V19.16ZM149.469 15.416V0.599998H144.093C144.573 1.4 144.829 4.44 144.829 7.544V10.872C143.933 9.144 142.173 8.216 140.413 8.248C133.629 8.344 133.629 23.064 140.413 23.16C142.173 23.192 143.933 22.264 144.829 20.536V23L150.205 22.968C149.693 22.136 149.469 18.744 149.469 15.416ZM142.461 21.464C139.421 21.464 139.453 9.944 142.461 9.944C143.485 9.944 144.637 11.288 144.829 13.848V17.56C144.637 20.12 143.485 21.464 142.461 21.464ZM159.154 16.28C165.106 16.248 166.994 14.072 166.994 12.056C166.994 10.072 165.106 8.248 161.714 8.248C156.754 8.248 154.194 12.088 154.194 15.896C154.194 19.576 156.594 23.16 161.362 23.16C164.562 23.16 166.578 21.528 167.282 19.032C166.226 21.048 164.466 21.528 163.378 21.528C160.85 21.56 159.506 18.968 159.154 16.28ZM162.098 9.048C163.378 9.048 163.954 10.456 163.954 11.64C163.954 13.496 162.578 15.48 159.09 15.48C159.09 15.416 159.09 15.352 159.09 15.32L159.058 14.968C159.058 13.208 159.666 9.048 162.098 9.048ZM1.61413 68.808H6.99013C6.47813 67.976 6.25413 64.552 6.25413 61.224V58.536C7.15013 60.264 8.91013 61.192 10.6701 61.16C17.4541 61.064 17.4541 46.344 10.6701 46.248C8.91013 46.216 7.15013 47.144 6.25413 48.872V46.408H0.878125C1.35813 47.208 1.61413 50.248 1.61413 53.352V68.808ZM8.62213 59.464C7.59813 59.464 6.44613 58.12 6.25413 55.56V51.848C6.44613 49.288 7.59813 47.944 8.62213 47.944C11.6621 47.944 11.6621 59.464 8.62213 59.464ZM20.4829 61.032L25.8589 61C25.3469 60.168 25.0909 56.744 25.1229 53.416V53.128C25.1229 50.216 26.3069 47.048 28.1629 47.048C29.6989 47.048 30.1789 49.32 29.9549 50.568L32.4509 48.2C31.6509 47.08 30.0509 46.248 28.5469 46.248C26.9789 46.248 25.8589 46.984 25.1229 48.136V46.408H19.7469C20.2269 47.208 20.4829 50.248 20.4829 53.352V61.032ZM35.8374 41.992C35.8374 43.464 36.9894 44.52 38.4614 44.52C39.9014 44.52 41.0534 43.464 41.0534 41.992C41.0534 40.584 39.9014 39.528 38.4614 39.528C36.9894 39.528 35.8374 40.584 35.8374 41.992ZM36.4454 61.032L41.8214 61C41.3094 60.168 41.0534 56.744 41.0854 53.416V46.408H35.7094C36.1894 47.208 36.4454 50.248 36.4454 53.352V61.032ZM52.3881 61H53.1881L60.6761 46.408H56.8361C57.3161 47.24 58.3081 48.072 54.8201 55.88L50.5961 46.408H45.0281C46.6921 48.072 52.1321 60.52 52.3881 61ZM76.1071 51.688C76.1071 47.816 72.8111 46.248 69.6751 46.248C67.5631 46.248 65.5151 46.952 64.5871 48.232L67.0511 50.632C66.7311 48.584 67.9471 47.048 69.1951 47.048C70.3151 47.048 71.4671 48.328 71.4671 51.688V52.776C64.9071 52.904 62.6031 55.464 62.6031 57.8C62.6031 59.528 63.8831 61.16 66.7951 61.16C68.7791 61.16 70.4751 60.392 71.4671 58.696V61.032L76.8431 61C76.3311 60.168 76.1071 56.744 76.1071 53.416V51.688ZM71.4671 57.16C70.6031 59.08 69.3871 59.976 68.4911 59.976C67.5631 59.976 67.0191 59.048 67.0191 57.896C67.0191 56.136 68.3311 53.832 71.4671 53.608V57.16ZM93.9349 57.032C92.8789 59.048 91.1189 59.528 90.0309 59.528C87.0549 59.56 85.6789 55.816 85.7109 52.712C85.7109 49.896 86.8949 47.048 89.1349 47.048C91.2469 47.048 92.4949 49.64 93.3269 51.208L93.9349 48.008C93.0709 47.048 90.9269 46.248 88.5909 46.248C83.4069 46.248 80.8469 50.12 80.8469 53.896C80.8469 57.576 83.2469 61.16 88.0149 61.16C91.2149 61.16 93.2309 59.528 93.9349 57.032ZM98.0624 41.992C98.0624 43.464 99.2144 44.52 100.686 44.52C102.126 44.52 103.278 43.464 103.278 41.992C103.278 40.584 102.126 39.528 100.686 39.528C99.2144 39.528 98.0624 40.584 98.0624 41.992ZM98.6704 61.032L104.046 61C103.534 60.168 103.278 56.744 103.31 53.416V46.408H97.9344C98.4144 47.208 98.6704 50.248 98.6704 53.352V61.032ZM122.197 53.416V38.6H116.821C117.301 39.4 117.557 42.44 117.557 45.544V48.872C116.661 47.144 114.901 46.216 113.141 46.248C106.357 46.344 106.357 61.064 113.141 61.16C114.901 61.192 116.661 60.264 117.557 58.536V61L122.933 60.968C122.421 60.136 122.197 56.744 122.197 53.416ZM115.189 59.464C112.149 59.464 112.181 47.944 115.189 47.944C116.213 47.944 117.365 49.288 117.557 51.848V55.56C117.365 58.12 116.213 59.464 115.189 59.464ZM140.426 51.688C140.426 47.816 137.13 46.248 133.994 46.248C131.882 46.248 129.834 46.952 128.906 48.232L131.37 50.632C131.05 48.584 132.266 47.048 133.514 47.048C134.634 47.048 135.786 48.328 135.786 51.688V52.776C129.226 52.904 126.922 55.464 126.922 57.8C126.922 59.528 128.202 61.16 131.114 61.16C133.098 61.16 134.794 60.392 135.786 58.696V61.032L141.162 61C140.65 60.168 140.426 56.744 140.426 53.416V51.688ZM135.786 57.16C134.922 59.08 133.706 59.976 132.81 59.976C131.882 59.976 131.338 59.048 131.338 57.896C131.338 56.136 132.65 53.832 135.786 53.608V57.16ZM159.31 53.416V38.6H153.934C154.414 39.4 154.67 42.44 154.67 45.544V48.872C153.774 47.144 152.014 46.216 150.254 46.248C143.47 46.344 143.47 61.064 150.254 61.16C152.014 61.192 153.774 60.264 154.67 58.536V61L160.046 60.968C159.534 60.136 159.31 56.744 159.31 53.416ZM152.302 59.464C149.262 59.464 149.294 47.944 152.302 47.944C153.326 47.944 154.478 49.288 154.67 51.848V55.56C154.478 58.12 153.326 59.464 152.302 59.464ZM168.994 54.28C174.946 54.248 176.834 52.072 176.834 50.056C176.834 48.072 174.946 46.248 171.554 46.248C166.594 46.248 164.034 50.088 164.034 53.896C164.034 57.576 166.434 61.16 171.202 61.16C174.402 61.16 176.418 59.528 177.122 57.032C176.066 59.048 174.306 59.528 173.218 59.528C170.69 59.56 169.346 56.968 168.994 54.28ZM171.938 47.048C173.218 47.048 173.794 48.456 173.794 49.64C173.794 51.496 172.418 53.48 168.93 53.48C168.93 53.416 168.93 53.352 168.93 53.32L168.898 52.968C168.898 51.208 169.506 47.048 171.938 47.048Z" fill="#7D4C23"/>
</svg>
