<svg width="133" height="24" viewBox="0 0 133 24" fill="none" xmlns="http://www.w3.org/2000/svg">
<path d="M10.1316 0.599998H0.947623C1.42762 1.4 1.68362 4.44 1.68362 7.544V15.416C1.68362 18.68 1.42762 22.168 0.915623 23H7.05962C6.54762 22.168 6.32362 18.744 6.32362 15.416V13.112C10.6756 13.112 16.7556 12.76 16.7556 6.872C16.7556 3.896 14.6116 0.599998 10.1316 0.599998ZM6.32362 1.4C10.6756 1.4 12.2756 3.96 12.2756 6.68C12.2756 9.528 10.5156 12.28 6.32362 12.312V1.4ZM21.4891 23.032L26.8651 23C26.3531 22.168 26.0971 18.744 26.1291 15.416V15.128C26.1291 12.216 27.3131 9.048 29.1691 9.048C30.7051 9.048 31.1851 11.32 30.9611 12.568L33.4571 10.2C32.6571 9.08 31.0571 8.248 29.5531 8.248C27.9851 8.248 26.8651 8.984 26.1291 10.136V8.408H20.7531C21.2331 9.208 21.4891 12.248 21.4891 15.352V23.032ZM37.0281 15.896C37.0281 19.576 39.4281 23.16 43.9401 23.16C49.2521 23.16 50.1481 18.264 52.2281 13.464C53.0921 11.416 54.5001 9.048 58.4041 9.048C59.8441 9.048 61.3481 10.104 60.9321 12.632L63.3961 10.232C62.4681 8.952 60.4201 8.248 58.3081 8.248C53.7641 8.248 52.1641 10.904 50.7241 14.52C49.5721 17.496 48.4201 21.56 45.7641 21.56C43.6521 21.56 42.3401 18.936 41.9881 16.28C47.9401 16.248 49.8281 14.072 49.8281 12.056C49.8281 10.072 47.9401 8.248 44.5481 8.248C39.5881 8.248 37.0281 12.088 37.0281 15.896ZM41.9241 15.48C41.7961 13.592 42.3401 9.048 44.9321 9.048C46.2121 9.048 46.7881 10.456 46.7881 11.64C46.7881 13.496 45.4121 15.48 41.9241 15.48ZM52.3241 14.136C53.7641 17.432 59.6841 18.04 59.6841 20.472C59.6841 21.624 58.3401 22.36 56.9641 22.36C55.3961 22.328 53.7641 21.336 54.2121 18.776L51.7161 21.176C52.6761 22.488 54.8201 23.16 57.0281 23.16C60.2281 23.16 63.5241 21.752 63.5241 18.584C63.5241 13.72 55.8121 13.912 55.9081 10.968C55.9401 10.296 56.3881 9.752 57.0281 9.4C54.6281 10.104 53.4441 11.448 52.3241 14.136ZM72.4819 16.28C78.4339 16.248 80.3219 14.072 80.3219 12.056C80.3219 10.072 78.4339 8.248 75.0419 8.248C70.0819 8.248 67.5219 12.088 67.5219 15.896C67.5219 19.576 69.9219 23.16 74.6899 23.16C77.8899 23.16 79.9059 21.528 80.6099 19.032C79.5539 21.048 77.7939 21.528 76.7059 21.528C74.1779 21.56 72.8339 18.968 72.4819 16.28ZM75.4259 9.048C76.7059 9.048 77.2819 10.456 77.2819 11.64C77.2819 13.496 75.9059 15.48 72.4179 15.48C72.4179 15.416 72.4179 15.352 72.4179 15.32L72.3859 14.968C72.3859 13.208 72.9939 9.048 75.4259 9.048ZM93.9609 20.6C93.1929 21.592 91.9129 22.36 90.8889 22.328C90.0889 22.328 89.4489 21.848 89.4489 20.632C89.4169 19.064 90.5689 16.664 90.5689 15.128V9.208H93.3849V8.408H90.5689V4.728H89.6409C88.2329 6.616 87.0489 7.416 84.2969 8.408V9.208H85.9289V17.688C85.9289 21.368 88.2969 23.192 90.6969 23.16C92.1369 23.16 93.5769 22.456 94.5369 21.144L93.9609 20.6ZM114.723 0.599998C103.971 0.599998 103.971 23.16 114.723 23.16C125.507 23.16 125.539 0.599998 114.723 0.599998ZM114.723 22.36C109.795 22.36 109.763 1.4 114.723 1.4C119.715 1.4 119.715 22.36 114.723 22.36ZM127.761 23H132.081V0.439999C129.937 2.424 128.625 3.416 125.841 4.824V5.464H127.761V23Z" fill="#7D4C23"/>
</svg>
