<svg width="570" height="74" viewBox="0 0 570 74" fill="none" xmlns="http://www.w3.org/2000/svg">
<path d="M12.875 45H18.443C17.419 43.336 16.971 36.488 16.971 29.832V15.752L30.027 37L33.675 27.656L33.611 27.592L42.059 12.552C42.059 33.352 42.059 5.576 42.059 42.696C42.059 45.64 41.675 48.712 40.971 51.656C34.315 48.84 27.723 46.856 20.683 46.856C7.69099 46.856 0.330994 53.832 0.330994 60.488C0.330994 66.632 6.47499 72.584 17.867 72.584C31.883 72.584 38.411 62.728 43.147 54.856C56.523 62.536 70.603 73.672 89.419 73.672C109.067 73.672 119.627 60.232 119.627 45.064C119.627 28.68 107.531 17.416 90.571 17.48C82.955 17.48 75.595 20.36 70.667 26.248C75.915 20.936 83.467 18.312 90.635 18.312C106.763 18.312 118.411 29.192 118.347 44.04C118.283 56.648 109.771 67.848 89.931 67.848C72.139 67.848 57.995 59.272 44.235 53.064C46.923 48.648 49.419 45.32 52.811 45.32C51.851 43.72 51.339 37.704 51.339 31.496V15.368C51.339 8.712 51.787 1.864 52.811 0.199997H42.059L32.395 25.608L16.971 0.263996V0.199997H12.939C13.899 1.8 14.411 7.88 14.411 14.088V29.832C14.411 36.36 13.899 43.336 12.875 45ZM5.64299 60.488C5.64299 54.28 10.955 47.752 21.835 47.752C28.363 47.752 34.379 50.12 40.523 53.384C37.643 63.24 30.027 71.624 19.339 71.624C10.187 71.624 5.64299 66.248 5.64299 60.488ZM87.8705 26.376C87.8705 18.632 81.2785 15.496 75.0065 15.496C70.7825 15.496 66.6865 16.904 64.8305 19.464L69.7585 24.264C69.1185 20.168 71.5505 17.096 74.0465 17.096C76.2865 17.096 78.5905 19.656 78.5905 26.376V28.552C65.4705 28.808 60.8625 33.928 60.8625 38.6C60.8625 42.056 63.4225 45.32 69.2465 45.32C73.2145 45.32 76.6065 43.784 78.5905 40.392V45.064L89.3425 45C88.3185 43.336 87.8705 36.488 87.8705 29.832V26.376ZM78.5905 37.32C76.8625 41.16 74.4305 42.952 72.6385 42.952C70.7825 42.952 69.6945 41.096 69.6945 38.792C69.6945 35.272 72.3185 30.664 78.5905 30.216V37.32ZM81.4705 5.448L78.9745 2.184L68.7345 10.76L69.9505 12.232C73.5345 9.608 78.5905 6.088 81.4705 5.448ZM125.702 45.448V15.816H116.422V20.808C114.694 17.224 111.046 15.432 107.526 15.496C93.958 15.688 93.958 45.128 107.526 45.32C111.046 45.384 114.694 43.592 116.422 40.008V60.616H127.238C126.214 58.952 125.638 51.976 125.702 45.448ZM111.622 41.928C105.542 41.928 105.606 18.888 111.622 18.888C113.862 18.888 116.422 22.152 116.422 28.36V32.456C116.422 38.664 113.862 41.928 111.622 41.928ZM164.46 15.752L153.708 15.816C154.732 17.48 155.18 24.328 155.18 30.984V32.456C155.18 38.664 152.62 41.928 150.38 41.928C148.012 41.928 145.9 38.216 145.9 31.368V15.816H135.212C136.428 17.8 136.62 27.592 136.684 35.144C136.684 41.8 141.42 45.256 146.284 45.32C149.804 45.384 153.452 43.592 155.18 40.008V45H165.932C164.972 43.4 164.46 37.32 164.46 31.112V15.752ZM174.206 6.984C174.206 9.928 176.51 12.04 179.454 12.04C182.334 12.04 184.638 9.928 184.638 6.984C184.638 4.168 182.334 2.056 179.454 2.056C176.51 2.056 174.206 4.168 174.206 6.984ZM175.422 45.064L186.174 45C185.15 43.336 184.638 36.488 184.702 29.832V15.816H173.95C174.91 17.416 175.422 23.496 175.422 29.704V45.064ZM214.219 45H224.907C223.691 43.016 223.499 33.224 223.435 25.672C223.435 19.016 218.699 15.56 213.835 15.496C210.315 15.432 206.667 17.224 204.939 20.808V15.816H194.187C195.147 17.416 195.659 23.496 195.659 29.704V45.064L206.411 45C205.387 43.336 204.939 36.488 204.939 29.832V28.36C204.939 22.152 207.499 18.888 209.739 18.888C212.107 18.888 214.219 22.6 214.219 29.448V45ZM259.933 26.376C259.933 18.632 253.341 15.496 247.069 15.496C242.845 15.496 238.749 16.904 236.893 19.464L241.821 24.264C241.181 20.168 243.613 17.096 246.109 17.096C248.349 17.096 250.653 19.656 250.653 26.376V28.552C237.533 28.808 232.925 33.928 232.925 38.6C232.925 42.056 235.485 45.32 241.309 45.32C245.277 45.32 248.669 43.784 250.653 40.392V45.064L261.405 45C260.381 43.336 259.933 36.488 259.933 29.832V26.376ZM250.653 37.32C248.925 41.16 246.493 42.952 244.701 42.952C242.845 42.952 241.757 41.096 241.757 38.792C241.757 35.272 244.381 30.664 250.653 30.216V37.32ZM314.688 29.832V0.199997H303.936C304.896 1.8 305.408 7.88 305.408 14.088V20.744C303.616 17.288 300.096 15.432 296.576 15.496C283.008 15.688 283.008 45.128 296.576 45.32C300.096 45.384 303.616 43.528 305.408 40.072V45L316.16 44.936C315.136 43.272 314.688 36.488 314.688 29.832ZM300.672 41.928C294.592 41.928 294.656 18.888 300.672 18.888C302.72 18.888 305.024 21.576 305.408 26.696V34.12C305.024 39.24 302.72 41.928 300.672 41.928ZM340.778 45.32C362.154 44.488 361.002 14.664 339.626 15.496C318.186 16.328 319.402 46.152 340.778 45.32ZM340.266 17.096C348.522 17.096 348.33 43.72 340.202 43.72C331.882 43.72 332.138 17.096 340.266 17.096ZM400.565 40.2C399.029 42.184 396.469 43.72 394.421 43.656C392.821 43.656 391.541 42.696 391.541 40.264C391.477 37.128 393.781 32.328 393.781 29.256V17.416H399.413V15.816H393.781V8.456H391.925C389.109 12.232 386.741 13.832 381.237 15.816V17.416H384.501V34.376C384.501 41.736 389.237 45.384 394.037 45.32C396.917 45.32 399.797 43.912 401.717 41.288L400.565 40.2ZM437.886 32.136C432.894 39.24 429.31 42.12 425.406 42.12C421.118 42.12 417.854 37.704 416.958 31.56C428.862 31.496 432.638 27.144 432.638 23.112C432.638 19.144 428.862 15.496 422.078 15.496C412.158 15.496 407.038 23.176 407.038 30.792C407.038 39.304 412.99 45.32 421.374 45.32C437.886 45.32 445.118 18.888 451.774 18.888C454.398 18.888 456.126 23.176 456.126 29.448V45H466.814C465.918 43.528 465.406 37.256 465.342 26.568C465.726 22.088 467.71 18.888 470.077 18.888C472.701 18.888 474.558 23.24 474.558 29.448V45H485.246C484.286 43.464 483.774 36.424 483.774 25.672C483.774 19.784 479.806 15.56 474.174 15.496C469.886 15.432 466.174 17.992 464.83 21.96C463.614 18.12 460.094 15.56 455.87 15.496C452.926 15.432 450.046 16.904 447.166 19.784V15.816H436.414C437.31 17.288 437.886 22.856 437.886 29.704V32.136ZM422.846 17.096C425.406 17.096 426.558 19.912 426.558 22.28C426.558 25.992 423.806 29.96 416.83 29.96C416.574 26.184 417.662 17.096 422.846 17.096ZM437.886 36.232V45.064L448.638 45C447.742 43.528 447.166 37.576 447.166 29.832V23.432C443.518 28.424 441.79 31.624 437.886 36.232ZM494.747 60.616H505.499C504.475 58.952 504.027 52.104 504.027 45.448V40.072C505.819 43.528 509.339 45.384 512.859 45.32C526.427 45.128 526.427 15.688 512.859 15.496C509.339 15.432 505.819 17.288 504.027 20.744V15.816H493.275C494.235 17.416 494.747 23.496 494.747 29.704V60.616ZM508.763 41.928C506.715 41.928 504.411 39.24 504.027 34.12V26.696C504.411 21.576 506.715 18.888 508.763 18.888C514.843 18.888 514.843 41.928 508.763 41.928ZM547.652 45.32C569.028 44.488 567.876 14.664 546.5 15.496C525.06 16.328 526.276 46.152 547.652 45.32ZM547.14 17.096C555.396 17.096 555.204 43.72 547.076 43.72C538.756 43.72 539.012 17.096 547.14 17.096Z" fill="#7D4C23"/>
</svg>
