<svg width="832" height="74" viewBox="0 0 832 74" fill="none" xmlns="http://www.w3.org/2000/svg">
<path d="M116.854 47.624C127.35 47.624 132.662 54.088 132.598 60.36C132.598 66.12 128.054 71.624 118.966 71.624C111.094 71.624 104.182 63.944 98.2935 54.216L91.6375 58.056C98.1015 66.376 106.614 72.456 118.966 72.456C132.406 72.456 138.486 66.504 138.486 60.36C138.486 53.704 131.254 46.728 118.198 46.728C110.838 46.728 103.862 48.904 96.8215 51.848C95.6055 49.864 94.1335 46.344 92.4695 42.12C92.9175 39.368 94.0055 35.272 95.3495 31.112L100.47 15.368C102.582 8.84 105.334 1.864 106.934 0.199997H102.198C102.646 1.864 100.918 8.712 98.7415 15.368L91.1895 38.728C85.8135 24.264 79.6695 3.976 78.4535 0.199997H67.3815C68.8535 1.8 71.4775 7.88 73.4615 14.088C76.9815 24.904 82.9335 45.512 89.4615 55.112C77.2375 60.744 60.8535 67.144 45.2375 67.144C1.39751 67.144 4.7255 12.424 41.2695 12.424C49.2055 12.424 57.5255 15.304 63.2855 21.192C57.8455 14.664 49.7815 11.592 41.3975 11.528C0.245506 11.336 2.1015 73.544 45.8135 73.544C76.5975 73.544 96.6295 47.624 116.854 47.624ZM129.953 45.32C151.329 44.488 150.177 14.664 128.801 15.496C107.361 16.328 108.577 46.152 129.953 45.32ZM129.441 17.096C137.697 17.096 137.505 43.72 129.377 43.72C121.057 43.72 121.313 17.096 129.441 17.096ZM154.897 45H165.649C164.625 43.336 164.177 36.488 164.177 29.832V0.199997H153.425C154.385 1.8 154.897 7.88 154.897 14.088V45ZM192.991 40.2C191.455 42.184 188.895 43.72 186.847 43.656C185.247 43.656 183.967 42.696 183.967 40.264C183.903 37.128 186.207 32.328 186.207 29.256V17.416H191.839V15.816H186.207V8.456H184.351C181.535 12.232 179.167 13.832 173.663 15.816V17.416H176.927V34.376C176.927 41.736 181.663 45.384 186.463 45.32C189.343 45.32 192.223 43.912 194.143 41.288L192.991 40.2ZM209.383 31.56C221.287 31.496 225.063 27.144 225.063 23.112C225.063 19.144 221.287 15.496 214.503 15.496C204.583 15.496 199.463 23.176 199.463 30.792C199.463 38.152 204.263 45.32 213.799 45.32C220.199 45.32 224.231 42.056 225.639 37.064C223.527 41.096 220.007 42.056 217.831 42.056C212.775 42.12 210.087 36.936 209.383 31.56ZM215.271 17.096C217.831 17.096 218.983 19.912 218.983 22.28C218.983 25.992 216.231 29.96 209.255 29.96C209.255 29.832 209.255 29.704 209.255 29.64L209.191 28.936C209.191 25.416 210.407 17.096 215.271 17.096ZM277.633 26.376C277.633 18.632 271.041 15.496 264.769 15.496C260.545 15.496 256.449 16.904 254.593 19.464L259.521 24.264C258.881 20.168 261.313 17.096 263.809 17.096C266.049 17.096 268.353 19.656 268.353 26.376V28.552C255.233 28.808 250.625 33.928 250.625 38.6C250.625 42.056 253.185 45.32 259.009 45.32C262.977 45.32 266.369 43.784 268.353 40.392V45.064L279.105 45C278.081 43.336 277.633 36.488 277.633 29.832V26.376ZM268.353 37.32C266.625 41.16 264.193 42.952 262.401 42.952C260.545 42.952 259.457 41.096 259.457 38.792C259.457 35.272 262.081 30.664 268.353 30.216V37.32ZM303.753 45.32C325.129 44.488 323.977 14.664 302.601 15.496C281.161 16.328 282.377 46.152 303.753 45.32ZM303.241 17.096C311.497 17.096 311.305 43.72 303.177 43.72C294.857 43.72 295.113 17.096 303.241 17.096ZM345.685 60.616H356.437C355.413 58.952 354.965 52.104 354.965 45.448V40.072C356.757 43.528 360.277 45.384 363.797 45.32C377.365 45.128 377.365 15.688 363.797 15.496C360.277 15.432 356.757 17.288 354.965 20.744V15.816H344.213C345.173 17.416 345.685 23.496 345.685 29.704V60.616ZM359.701 41.928C357.653 41.928 355.349 39.24 354.965 34.12V26.696C355.349 21.576 357.653 18.888 359.701 18.888C365.781 18.888 365.781 41.928 359.701 41.928ZM390.846 24.264C390.206 20.168 392.638 17.096 395.134 17.096C397.374 17.096 399.678 19.656 399.678 26.376V28.552C386.558 28.808 381.95 33.928 381.95 38.6C381.95 42.056 384.51 45.32 390.334 45.32C395.134 45.32 399.23 42.76 400.83 37.768C403.198 44.616 409.79 46.728 419.39 46.664C428.926 46.6 436.606 42.952 436.606 36.168C436.606 26.44 421.118 26.76 421.31 20.872C421.374 18.696 423.806 17.096 426.366 17.096C429.246 17.096 432.254 19.208 431.422 24.264L436.35 19.464C434.494 16.904 430.398 15.496 426.174 15.496C420.03 15.496 413.566 18.44 413.566 24.2C413.566 33.48 428.926 34.44 428.926 39.944C428.926 42.888 426.046 45 420.99 45C415.614 45 408.958 41.864 408.958 31.176V26.376C408.958 18.632 402.366 15.496 396.094 15.496C391.87 15.496 387.774 16.904 385.918 19.464L390.846 24.264ZM400.254 35.848C398.526 40.712 395.774 42.952 393.726 42.952C391.87 42.952 390.782 41.096 390.782 38.792C390.782 35.272 393.406 30.664 399.678 30.216C399.678 32.328 399.87 34.184 400.254 35.848ZM467.616 36.168C467.616 26.44 452.128 26.76 452.32 20.872C452.384 18.696 454.816 17.096 457.376 17.096C460.256 17.096 463.264 19.208 462.432 24.264L467.36 19.464C465.504 16.904 461.408 15.496 457.184 15.496C451.04 15.496 444.576 18.44 444.576 24.2C444.576 33.48 459.936 34.44 459.936 39.944C459.936 42.248 457.248 43.72 454.496 43.72C451.36 43.656 448.096 41.672 448.992 36.552L444 41.352C445.92 43.976 450.208 45.32 454.624 45.32C461.024 45.32 467.616 42.504 467.616 36.168ZM502.621 26.376C502.621 18.632 496.029 15.496 489.757 15.496C485.533 15.496 481.437 16.904 479.581 19.464L484.509 24.264C483.869 20.168 486.301 17.096 488.797 17.096C491.037 17.096 493.341 19.656 493.341 26.376V28.552C480.221 28.808 475.613 33.928 475.613 38.6C475.613 42.056 478.173 45.32 483.997 45.32C487.965 45.32 491.357 43.784 493.341 40.392V45.064L504.093 45C503.069 43.336 502.621 36.488 502.621 29.832V26.376ZM493.341 37.32C491.613 41.16 489.181 42.952 487.389 42.952C485.533 42.952 484.445 41.096 484.445 38.792C484.445 35.272 487.069 30.664 493.341 30.216V37.32ZM540.388 29.832V0.199997H529.636C530.596 1.8 531.108 7.88 531.108 14.088V20.744C529.316 17.288 525.796 15.432 522.276 15.496C508.708 15.688 508.708 45.128 522.276 45.32C525.796 45.384 529.316 43.528 531.108 40.072V45L541.86 44.936C540.836 43.272 540.388 36.488 540.388 29.832ZM526.372 41.928C520.292 41.928 520.356 18.888 526.372 18.888C528.42 18.888 530.724 21.576 531.108 26.696V34.12C530.724 39.24 528.42 41.928 526.372 41.928ZM566.478 45.32C587.854 44.488 586.702 14.664 565.326 15.496C543.886 16.328 545.102 46.152 566.478 45.32ZM565.966 17.096C574.222 17.096 574.03 43.72 565.902 43.72C557.582 43.72 557.838 17.096 565.966 17.096ZM633.114 37.064C631.002 41.096 627.482 42.056 625.306 42.056C619.354 42.12 616.602 34.632 616.666 28.424C616.666 22.792 619.034 17.096 623.514 17.096C627.738 17.096 630.234 22.28 631.898 25.416L633.114 19.016C631.386 17.096 627.098 15.496 622.426 15.496C612.058 15.496 606.938 23.24 606.938 30.792C606.938 38.152 611.738 45.32 621.274 45.32C627.674 45.32 631.706 42.056 633.114 37.064ZM657.127 45.32C678.503 44.488 677.351 14.664 655.975 15.496C634.535 16.328 635.751 46.152 657.127 45.32ZM656.615 17.096C664.871 17.096 664.679 43.72 656.551 43.72C648.231 43.72 648.487 17.096 656.615 17.096ZM682.072 45H692.824C691.8 43.336 691.352 36.488 691.352 29.832V26.056C691.864 21.32 694.104 18.888 696.024 18.888C698.392 18.888 700.696 22.6 700.696 29.448V45H711.192C709.976 43.016 709.912 33.224 709.912 25.672C709.912 25.416 709.912 25.16 709.912 24.904C710.68 20.936 712.6 18.888 714.392 18.888C716.76 18.888 718.872 22.6 718.872 29.448V45H729.56C728.344 43.016 728.088 33.224 728.088 25.672C728.088 19.016 723.352 15.56 718.488 15.496C714.648 15.432 710.744 17.608 709.208 21.704C707.672 17.672 703.896 15.56 700.12 15.496C696.664 15.432 693.144 17.224 691.352 20.616V15.816H680.6C681.56 17.416 682.072 23.496 682.072 29.704V45ZM737.844 6.984C737.844 9.928 740.148 12.04 743.092 12.04C745.972 12.04 748.276 9.928 748.276 6.984C748.276 4.168 745.972 2.056 743.092 2.056C740.148 2.056 737.844 4.168 737.844 6.984ZM739.06 45.064L749.812 45C748.788 43.336 748.276 36.488 748.34 29.832V15.816H737.588C738.548 17.416 739.06 23.496 739.06 29.704V45.064ZM771.457 39.624C784.961 39.624 788.161 25.608 781.057 18.952C781.633 17.16 783.361 15.816 786.561 16.264L782.465 12.296C780.993 13.448 780.097 15.496 779.713 17.864C777.601 16.456 774.849 15.56 771.457 15.56C757.761 15.56 754.625 29.96 762.113 36.488C759.105 38.856 757.825 41.416 757.825 43.912C757.889 50.056 763.905 50.696 769.857 50.696C775.617 50.696 781.249 50.056 781.249 53.192C781.249 56.328 775.617 59.336 770.881 59.336C767.041 59.336 763.777 57.544 764.673 52.296L759.745 57.032C761.665 59.784 765.505 61 769.729 61C777.537 61 786.561 56.264 786.561 49.096V49.032C786.561 43.4 781.889 42.376 776.705 42.376C773.633 42.376 770.305 42.76 767.681 42.76C764.481 42.76 762.113 42.248 762.113 39.944C762.113 39.112 762.561 38.216 763.393 37.384C765.441 38.728 768.129 39.624 771.457 39.624ZM771.457 16.904C777.089 16.904 777.089 38.28 771.457 38.28C765.761 38.28 765.761 16.904 771.457 16.904ZM809.89 45.32C831.266 44.488 830.114 14.664 808.738 15.496C787.298 16.328 788.514 46.152 809.89 45.32ZM809.378 17.096C817.634 17.096 817.442 43.72 809.314 43.72C800.994 43.72 801.25 17.096 809.378 17.096Z" fill="#7D4C23"/>
</svg>
