<svg width="13" height="12" viewBox="0 0 13 12" fill="none" xmlns="http://www.w3.org/2000/svg">
<path d="M9.26667 0C8.2 0 7.16667 0.5 6.46667 1.33333L6.33333 1.5L6.2 1.33333C5.5 0.5 4.46667 0 3.4 0C1.5 0 0 1.56667 0 3.53333C0 6 2.2 8.06667 5.5 11.2L6.33333 12L7.16667 11.2333C10.5 8.1 12.6667 6.03333 12.6667 3.56667C12.6667 1.56667 11.1667 0 9.26667 0ZM6.53333 10.4667L6.33333 10.6667L6.13333 10.4667C3 7.53333 0.933333 5.56667 0.933333 3.53333C0.933333 2.1 2 1 3.4 1C4.43333 1 5.43333 1.66667 5.83333 2.6H6.8C7.23333 1.66667 8.23333 1 9.26667 1C10.6667 1 11.7333 2.1 11.7333 3.53333C11.7333 5.56667 9.66667 7.53333 6.53333 10.4667Z" fill="white"/>
</svg>
