<svg width="35" height="34" viewBox="0 0 35 34" fill="none" xmlns="http://www.w3.org/2000/svg">
<path d="M4.57899 21.807C4.81565 22.1439 5.1058 22.551 5.38581 22.9326C5.58193 23.1999 5.76488 23.4435 5.91657 23.6373C5.99242 23.7342 6.05386 23.8101 6.10065 23.8658C6.12626 23.8962 6.14246 23.9147 6.15034 23.9236C6.49773 24.2754 6.71167 24.6887 6.78283 24.8261L6.78537 24.831L6.78552 24.8313L6.79337 24.8464L4.57899 21.807ZM4.57899 21.807C4.35743 20.9088 4.20445 20.003 4.10427 19.106C3.86567 16.8602 4.04157 14.8441 4.57959 13.0705C4.74208 12.5591 4.92758 12.0732 5.13317 11.6248L5.13361 11.6238L5.13712 11.6161L5.13755 11.6152C5.99325 9.72757 7.44562 7.91975 9.54727 6.26243C11.3958 4.81364 13.1416 3.99084 14.7562 3.67066C16.5155 3.32783 18.6379 3.48513 21.1449 4.29458C24.0646 5.24178 26.3924 6.74754 27.9593 8.52939C29.3215 10.0985 30.2934 12.0652 30.7347 14.2392L30.735 14.2406L30.7361 14.2458C31.7823 19.3285 29.6536 24.856 25.4969 27.8585L25.4968 27.8585L25.4883 27.8647L25.4883 27.8647L25.4841 27.8677L25.4756 27.874L25.4756 27.874C22.6526 29.9588 18.8968 30.8911 15.1938 30.3481L15.1841 30.3467L15.1841 30.3467L15.1792 30.346L15.1695 30.3447L15.1694 30.3447C14.2146 30.2143 13.267 29.9641 12.3546 29.6253C9.78375 28.6406 8.51227 27.4595 7.83689 26.6058C7.48822 26.1651 7.25867 25.7615 7.07725 25.4092C7.03001 25.3174 6.98657 25.2303 6.94024 25.1373L6.93351 25.1237L6.93264 25.122C6.89141 25.0392 6.84192 24.9397 6.79368 24.847L4.57899 21.807ZM15.2714 14.285L15.3542 14.4296L15.2714 14.285ZM15.2714 14.285L15.4362 14.2427M15.2714 14.285L15.4362 14.2427M15.4362 14.2427L15.49 14.2288L15.4362 14.2427ZM14.2796 14.6822C14.5535 14.3994 14.7038 14.2857 15.0113 14.0547L15.0327 14.0385L15.0558 14.0248L15.0592 14.0305C15.0592 14.0305 15.0592 14.0305 15.0592 14.0305L15.0558 14.0248L15.0558 14.0248L15.0559 14.0248L15.0559 14.0248L15.056 14.0247L15.0563 14.0245L15.0573 14.0239L15.0603 14.0221L15.0613 14.0216C15.0776 13.9533 15.114 13.86 15.197 13.7758L15.553 14.1269L15.197 13.7758C15.4095 13.5604 15.6044 13.3217 15.8166 13.0612L15.8233 13.0529C16.0285 12.801 16.2508 12.5281 16.4995 12.2759L16.5112 12.264L16.5151 12.2598L16.53 12.2403L16.5523 12.2177C16.5745 12.1951 16.5958 12.1769 16.6032 12.1706L16.6574 12.1157L16.6783 12.1058C16.8375 11.9333 17.0022 11.7679 17.1587 11.6107L17.1623 11.6072L17.1624 11.6071C17.2195 11.5497 17.2756 11.4934 17.3311 11.4371C17.6075 11.1546 17.8829 10.8718 18.1587 10.5886C18.4341 10.306 18.7099 10.0229 18.9867 9.73984C19.241 9.47586 19.562 9.57592 19.6664 9.62137C19.7902 9.67523 19.8922 9.75909 19.9578 9.81917C20.0299 9.88533 20.0955 9.95796 20.1463 10.0227C20.1716 10.0549 20.198 10.0913 20.2213 10.1291C20.2329 10.1478 20.2472 10.1727 20.2608 10.2016C20.2711 10.2234 20.2966 10.2796 20.3081 10.3538L20.3093 10.361L20.3102 10.3682C20.3392 10.5984 20.2213 10.7584 20.1745 10.8141C20.1487 10.8448 20.1237 10.8687 20.1041 10.8858L19.3188 11.6956L14.2796 14.6822ZM14.2796 14.6822L14.256 14.6934L14.194 14.7562C14.1369 14.8141 14.0821 14.8722 14.0314 14.9258L14.0298 14.9275L14.3933 15.2708L14.0298 14.9275C13.9775 14.9829 13.9294 15.0338 13.8804 15.0834L14.2364 15.4345L13.8804 15.0834L13.8662 15.0979L13.8117 15.1531L13.7977 15.1805C13.5749 15.4021 13.3572 15.6283 13.1441 15.8497L13.1421 15.8518C12.9827 16.0174 12.8259 16.1804 12.6677 16.3408L12.6424 16.3663C12.5681 16.3907 12.5138 16.426 12.4879 16.4439C12.4504 16.4697 12.4174 16.4979 12.3898 16.5243C12.3353 16.5764 12.2795 16.6431 12.2333 16.7204C12.1897 16.7933 12.1348 16.9086 12.1247 17.0518C12.1133 17.2122 12.1612 17.397 12.3081 17.5422C12.5881 17.8209 12.8681 18.0986 13.1478 18.3759C13.1478 18.376 13.1479 18.376 13.1479 18.3761L13.1485 18.3767L13.1487 18.3769L13.1498 18.3779C13.4287 18.6545 13.7072 18.9307 13.9856 19.2078C13.9859 19.2081 13.9861 19.2084 13.9864 19.2086L14.0957 19.3185L14.0959 19.3188L14.0961 19.3189C14.2372 19.4609 14.3387 19.5631 14.5021 19.7169C14.5064 19.7264 14.511 19.7364 14.5157 19.7469L14.5392 19.7997L14.5392 19.7998C14.5396 19.8006 14.5402 19.8019 14.5409 19.8036C14.5475 19.8185 14.567 19.8631 14.5815 19.8897L14.6158 19.9522L14.6661 20.0027L14.7195 20.0563L15.0736 19.7032L14.7195 20.0563C14.9726 20.3101 15.2624 20.539 15.5256 20.7469L15.5369 20.7558C15.8456 20.9996 16.1185 21.2164 16.3403 21.4524L16.4011 21.5171L16.4342 21.5337C16.556 21.6545 16.6778 21.7766 16.8007 21.8998C16.9285 22.028 17.058 22.1578 17.1879 22.2865L17.1998 22.3105L17.2571 22.3679C17.3139 22.4249 17.3708 22.4797 17.4237 22.5308L17.4253 22.5323C17.4798 22.5849 17.5306 22.6339 17.5799 22.6833L17.9339 22.3303L17.5799 22.6833L17.5941 22.6976L17.6446 22.7482L17.6713 22.7629C18.0532 23.1538 18.5577 23.6598 18.9363 24.0395L18.9368 24.0399C18.9781 24.0814 19.03 24.1311 19.0882 24.1737C19.1482 24.2175 19.2415 24.274 19.3661 24.2959C19.5992 24.337 19.7919 24.2227 19.8363 24.1964C19.8393 24.1945 19.8417 24.1932 19.8433 24.1923L19.8514 24.1877L19.8594 24.1829L19.6 23.7554C19.8594 24.1829 19.8595 24.1828 19.8597 24.1827L19.8601 24.1824L19.861 24.1819L19.8627 24.1809L19.8666 24.1785L19.8758 24.1726C19.8825 24.1682 19.8906 24.1628 19.8997 24.1564C19.9177 24.1437 19.9407 24.1265 19.9663 24.1049C20.0145 24.064 20.086 23.9953 20.1461 23.8982C20.2077 23.7988 20.2681 23.6513 20.2567 23.4696C20.245 23.2831 20.1617 23.1226 20.0459 22.9956L20.0441 22.9937C18.9335 21.7881 17.587 20.5003 16.2537 19.225L16.2461 19.2177C15.5594 18.5609 14.8753 17.9065 14.2231 17.2637C14.223 17.2636 14.2229 17.2635 14.2229 17.2635L13.8719 17.6196M14.2796 14.6822L13.8033 16.866C13.8988 16.9545 13.9975 17.0459 14.097 17.1412C13.9756 17.2585 13.8547 17.3736 13.7346 17.4865C13.7804 17.5302 13.8262 17.5745 13.8719 17.6196M13.8719 17.6196C14.527 18.2653 15.2137 18.9221 15.8998 19.5783L15.8998 19.5784L15.9005 19.579C17.2393 20.8596 18.5765 22.1386 19.6764 23.3324L13.8719 17.6196ZM11.2938 32.4316L11.298 32.4331C12.3939 32.8409 13.5591 33.1524 14.761 33.3167C19.2144 33.9692 23.7715 32.8609 27.2556 30.2889C32.3825 26.5843 34.9548 19.8624 33.6746 13.6416C33.1326 10.9723 31.9329 8.52808 30.2193 6.55644L30.2176 6.55447C28.2388 4.30172 25.4193 2.52705 22.0689 1.44043L22.0683 1.44024C19.2083 0.516569 16.5576 0.262268 14.1781 0.726877L14.1769 0.727125C11.9978 1.1584 9.82587 2.23183 7.69366 3.90359L7.69263 3.9044C5.2865 5.8012 3.49519 7.97257 2.40564 10.3756C2.14167 10.9515 1.91177 11.5579 1.71536 12.1781L1.71533 12.1781L1.71372 12.1834C1.03887 14.3992 0.845085 16.8329 1.12178 19.4298L1.12205 19.4322C1.2518 20.5967 1.46301 21.7969 1.78903 22.9998L1.81154 23.0829L1.86052 23.1536C2.12858 23.5408 2.55563 24.1466 2.967 24.7073C3.36732 25.2529 3.78327 25.7984 4.01671 26.0325C4.01567 26.0315 4.01579 26.0316 4.01709 26.0334C4.02189 26.0398 4.04288 26.068 4.08221 26.1383C4.12835 26.2208 4.18111 26.3265 4.25109 26.4671L4.25224 26.4694C4.55647 27.0806 5.06514 28.1024 6.1314 29.2063C7.19874 30.3114 8.80622 31.4805 11.2938 32.4316ZM16.6082 12.1664L16.6073 12.1671C16.6082 12.1664 16.6086 12.166 16.6082 12.1664ZM15.1041 14.1058L15.2188 14.2985L15.1041 14.1059C15.1041 14.1058 15.1041 14.1058 15.1041 14.1058ZM16.3826 21.4826C16.3827 21.4827 16.3829 21.4829 16.3831 21.4831L16.38 21.48L16.3826 21.4826Z" fill="white" stroke="white"/>
</svg>
